<svg width="21" height="19" viewBox="0 0 21 19" fill="none" xmlns="http://www.w3.org/2000/svg">
<path d="M18.5963 11.274C18.9887 10.8853 18.9917 10.2522 18.6031 9.85979C18.2145 9.46739 17.5813 9.46433 17.1889 9.85297L18.5963 11.274ZM10.3926 17.9915L9.68889 18.702C10.0786 19.088 10.7065 19.088 11.0963 18.702L10.3926 17.9915ZM3.59627 9.85297C3.20386 9.46433 2.57071 9.46739 2.18207 9.85979C1.79343 10.2522 1.79649 10.8853 2.18889 11.274L3.59627 9.85297ZM2.19513 11.2802C2.59094 11.6654 3.22405 11.6567 3.60921 11.2609C3.99438 10.8651 3.98575 10.232 3.58993 9.84684L2.19513 11.2802ZM10.3925 3.99753L9.58993 4.59404C9.77802 4.84711 10.0744 4.99664 10.3897 4.99752C10.7051 4.9984 11.0023 4.85052 11.1918 4.5985L10.3925 3.99753ZM17.1918 9.8561C16.7978 10.2431 16.7921 10.8762 17.1791 11.2703C17.5661 11.6643 18.1993 11.67 18.5933 11.2829L17.1918 9.8561ZM17.1889 9.85297L9.68889 17.281L11.0963 18.702L18.5963 11.274L17.1889 9.85297ZM11.0963 17.281L3.59627 9.85297L2.18889 11.274L9.68889 18.702L11.0963 17.281ZM3.58993 9.84684C2.51097 8.79691 2.11292 7.23008 2.55992 5.79247L0.650108 5.19865C-0.0203931 7.35506 0.576689 9.70531 2.19513 11.2802L3.58993 9.84684ZM2.55992 5.79247C3.00692 4.35486 4.22326 3.29 5.70734 3.037L5.37125 1.06545C3.14512 1.44494 1.32061 3.04224 0.650108 5.19865L2.55992 5.79247ZM5.70734 3.037C7.19143 2.78401 8.69188 3.38573 9.58993 4.59404L11.1951 3.40101C9.84805 1.58854 7.59738 0.685953 5.37125 1.06545L5.70734 3.037ZM11.1918 4.5985C12.0936 3.39913 13.5909 2.80539 15.0696 3.06076L15.4099 1.08993C13.1919 0.706885 10.946 1.59749 9.59327 3.39655L11.1918 4.5985ZM15.0696 3.06076C16.5483 3.31612 17.7597 4.37762 18.207 5.80998L20.1161 5.21377C19.4451 3.06522 17.628 1.47297 15.4099 1.08993L15.0696 3.06076ZM18.207 5.80998C18.6543 7.24234 18.2624 8.80459 17.1918 9.8561L18.5933 11.2829C20.1991 9.70568 20.7871 7.36231 20.1161 5.21377L18.207 5.80998Z" fill="#6D4B4A"/>
</svg>
