<svg width="184" height="40" viewBox="0 0 184 40" fill="none" xmlns="http://www.w3.org/2000/svg">
<path d="M69.9355 23.8905C69.4368 23.9848 68.9857 24.0938 68.582 24.2172C68.01 24.3921 67.5238 24.6641 67.1234 25.0332C66.7231 25.4023 66.4275 25.888 66.2369 26.4904C66.0462 27.0926 65.9508 27.8988 65.9508 28.9091V37.4186C64.9594 37.4574 63.8249 37.5448 62.5474 37.6808C61.27 37.8168 59.6018 38.1181 57.5426 38.5843C55.7884 39.0117 54.2153 39.3518 52.8235 39.6044C51.4316 39.8568 49.8778 39.9831 48.1619 39.9831C44.9205 39.9831 42.0986 39.3809 39.6962 38.1764C37.2938 36.9718 35.2919 35.4175 33.6903 33.5136C32.0886 31.6096 30.897 29.4725 30.1152 27.1023C29.9365 26.5603 29.7782 26.0194 29.6404 25.4794L29.7395 25.3854L29.7246 25.3692L29.7251 25.3686L29.7449 25.3903C29.7721 25.3644 29.798 25.3377 29.8226 25.3102C29.8654 25.2682 29.9112 25.2225 29.9602 25.1726L29.9436 25.1557L29.9451 25.1536L29.9648 25.1737L29.969 25.1693L29.9699 25.1684L29.9734 25.1648L29.9745 25.1636C29.9883 25.1492 30.002 25.1348 30.0151 25.1199L30.1655 24.9592C30.2248 24.8964 30.189 24.9312 30.3665 24.7379C30.5551 24.5326 30.5441 24.5496 30.5888 24.4989C30.6063 24.479 30.6749 24.3991 30.8056 24.2459L30.8088 24.2487C30.8447 24.2068 30.8776 24.1634 30.9077 24.1187L30.9719 24.041L30.9747 24.0434L30.9773 24.0401L30.9797 24.0422C31.0019 24.0154 31.0227 23.988 31.0427 23.9602L31.1971 23.7692L31.1693 23.7459L31.1695 23.7457L31.2013 23.7725C31.2257 23.7423 31.2487 23.7114 31.2703 23.6798L31.3025 23.639L31.3053 23.6413C31.3295 23.6111 31.3519 23.5801 31.3732 23.5485C31.4225 23.486 31.4683 23.4276 31.5094 23.3734L31.513 23.3762C31.5375 23.3439 31.5605 23.3109 31.5818 23.2772C31.6651 23.1708 31.6796 23.1516 31.6926 23.1344L31.756 23.051L31.7571 23.052L31.7687 23.0368L31.7708 23.0387C31.7927 23.0099 31.8132 22.9808 31.8325 22.951L32.0062 22.7161L32.0089 22.7183L32.0101 22.7167L32.0118 22.7182C32.0275 22.697 32.0425 22.6755 32.0568 22.6537L32.0643 22.6436L32.0636 22.6431L32.0639 22.6425L32.0662 22.6443C32.1333 22.5538 32.1884 22.4579 32.2317 22.3583C32.253 22.3144 32.2733 22.2686 32.293 22.2205C32.3438 22.0951 32.3811 21.9676 32.4051 21.8336L32.3526 21.8239V21.8235L32.4097 21.8342C32.4272 21.7364 32.4347 21.6392 32.4329 21.5435C32.4341 21.47 32.4312 21.3966 32.4235 21.3233L32.4123 21.3245L32.4122 21.3235L32.4266 21.3219C32.4172 21.2327 32.4002 21.1462 32.376 21.063C32.3578 20.9941 32.335 20.9243 32.3075 20.8538L32.3055 20.8482L32.3108 20.8461C32.2865 20.7846 32.2588 20.7258 32.2277 20.6696C32.1079 20.4295 31.9408 20.2297 31.7266 20.0695C31.476 19.8823 31.1911 19.771 30.8728 19.7317C30.7069 19.7118 30.5357 19.7175 30.358 19.7498L30.3572 19.7452L30.3473 19.7472L30.3471 19.746C30.329 19.7495 30.3108 19.7532 30.2929 19.7574L30.292 19.7451H30.2923L30.2871 19.691L30.2877 19.6909L30.2844 19.6646C30.2759 19.5918 30.2638 19.515 30.2488 19.4352L30.2354 19.4379L30.2345 19.4352L30.2507 19.4321C30.2444 19.399 30.2371 19.3667 30.2287 19.3346C30.2131 19.2659 30.1941 19.1958 30.1723 19.125L30.159 19.1294L30.1576 19.126L30.1736 19.121C30.1535 19.0554 30.1289 18.9924 30.1007 18.932C30.0798 18.8779 30.0585 18.8282 30.0373 18.7832C29.9838 18.6707 29.929 18.5705 29.8733 18.4838L29.8708 18.4855L29.8702 18.4847L29.8741 18.4822C29.8491 18.4433 29.8224 18.4061 29.7945 18.3704C29.7256 18.2704 29.656 18.18 29.5861 18.1002C29.4781 17.9768 29.3581 17.8614 29.2274 17.7552L29.229 17.7531C29.1926 17.7236 29.1551 17.6962 29.1169 17.6709L29.0671 17.6346C29.2736 15.674 29.7373 13.8271 30.4585 12.0941C31.469 9.66553 32.8514 7.54784 34.6055 5.74108C36.3596 3.93431 38.3996 2.52577 40.7259 1.5154C43.0519 0.505144 45.5496 0 48.2189 0C48.829 0 49.5631 0.0389175 50.4211 0.116559C51.2791 0.194315 52.2324 0.408061 53.2811 0.757677C54.3298 1.10741 55.4833 1.63194 56.7417 2.3314C58.0001 3.03086 59.3347 4.0022 60.7457 5.24573C61.2414 4.31311 61.5941 3.54565 61.8039 2.94335C62.0137 2.34118 62.1758 1.76792 62.2901 1.22409H63.4913L63.72 12.5895H62.6332C62.2519 11.2683 61.8039 10.1221 61.2891 9.15062C60.7743 8.1793 60.2023 7.34387 59.5732 6.64452C58.9439 5.94506 58.286 5.35254 57.5996 4.86671C56.9133 4.38111 56.2269 3.96337 55.5405 3.61363C54.816 3.22508 54.1295 2.93362 53.4813 2.7394C52.8331 2.54507 52.242 2.40904 51.7081 2.3314C51.1743 2.25376 50.7357 2.21484 50.3925 2.21484C50.0494 2.21484 49.8206 2.21484 49.7061 2.21484C48.2952 2.21484 46.8176 2.45764 45.2732 2.94335C43.7287 3.42919 42.3179 4.3325 41.0403 5.65355C39.7629 6.97471 38.7047 8.76208 37.8659 11.0157C37.0269 13.2695 36.6074 16.1836 36.6074 19.7584C36.6074 21.3904 36.7314 23.2555 36.9792 25.3536C37.2271 27.4519 37.7896 29.4531 38.6667 31.3571C39.5437 33.261 40.8402 34.8638 42.5562 36.1655C44.2721 37.4672 46.5792 38.118 49.4774 38.118C51.7273 38.118 53.5099 37.8266 54.8256 37.2438C56.1411 36.6609 57.1326 35.9324 57.7998 35.0581C58.4672 34.1837 58.8962 33.2124 59.0869 32.1438C59.2194 31.4007 59.306 30.6907 59.3463 30.0133C59.4637 29.9543 59.5594 29.9009 59.6342 29.8534C59.7071 29.807 59.7979 29.7422 59.9083 29.658C59.9898 29.5955 60.0722 29.5274 60.1548 29.4529L60.1557 29.4539L60.173 29.4387L60.1758 29.4418C60.2052 29.4149 60.2332 29.3873 60.2599 29.3586C60.3134 29.3079 60.3639 29.2571 60.4115 29.2065C60.4799 29.1338 60.5546 29.0471 60.6339 28.9491C60.6918 28.8773 60.7585 28.7863 60.8313 28.6813L60.8372 28.6857C60.8573 28.6565 60.8764 28.6269 60.8943 28.5968C60.9345 28.5364 60.973 28.4758 61.0095 28.4161L61.0115 28.4174C61.0457 28.3613 61.0757 28.3038 61.1016 28.2451C61.3913 27.6798 61.5561 27.0016 61.5952 26.2113C61.618 25.7486 61.5979 25.2429 61.5345 24.6944C61.9865 24.3926 62.3867 24.0958 62.7347 23.8041C63.329 23.3065 63.7749 22.8123 64.0715 22.323H70.2711C70.1678 22.7352 70.0762 23.1467 69.995 23.5588L69.9947 23.5587C69.9901 23.582 69.9862 23.6056 69.9827 23.6288C69.9659 23.7172 69.9502 23.8044 69.9355 23.8905ZM25.2642 19.595C22.9623 21.411 20.6563 23.1031 15.7638 20.0273C15.6697 19.9683 15.576 19.91 15.4823 19.8529C12.7499 18.1851 10.2301 17.3834 7.76408 17.4307C5.2079 17.4797 2.72716 18.4382 0.144898 20.2866C-0.00923625 20.397 -0.0462075 20.6141 0.0620997 20.7711C0.170522 20.9281 0.383443 20.9659 0.537577 20.8554C0.688839 20.7472 0.839647 20.6421 0.990105 20.5402C3.29649 18.9783 5.51203 18.1679 7.77476 18.1246C9.83214 18.0852 11.9418 18.6779 14.2069 19.9134C14.6018 20.1287 15.0011 20.3635 15.406 20.6179C19.6026 23.2563 22.0374 22.6492 24.1065 21.3058L24.0718 21.3829C23.8662 21.8557 23.7282 22.3494 23.6607 22.8582C23.5901 23.3639 23.599 23.8307 23.6871 24.2527C23.7723 24.6716 23.9602 25.0398 24.2539 25.3569C24.4007 25.5125 24.5711 25.6441 24.7647 25.7459C24.9586 25.8476 25.1789 25.9224 25.4228 25.9703C25.5665 25.9973 25.7105 26.0092 25.8574 26.0031C26.0041 26.0002 26.1539 25.9793 26.3095 25.9434C26.4653 25.9105 26.615 25.8626 26.7618 25.8087C26.9087 25.7518 27.0497 25.686 27.1877 25.6112C27.4637 25.4646 27.7544 25.2611 28.0658 25.0067C28.2184 24.881 28.3652 24.7554 28.5032 24.6327C28.6414 24.5071 28.7705 24.3843 28.891 24.2616C29.0112 24.139 29.1347 24.0072 29.2639 23.8666C29.393 23.7259 29.5282 23.5734 29.6662 23.4118C29.8013 23.2472 29.9247 23.1005 30.0333 22.9659C30.142 22.8282 30.2389 22.7085 30.3182 22.6039C30.4004 22.4992 30.4855 22.3854 30.5766 22.2657C30.6677 22.149 30.7616 22.0204 30.8614 21.8856C30.9027 21.8168 30.9291 21.754 30.9408 21.6881C30.9495 21.6223 30.9436 21.5595 30.9201 21.4996C30.8791 21.3741 30.7852 21.3052 30.6383 21.2871C30.5649 21.2782 30.5002 21.2902 30.4415 21.3231C30.3857 21.353 30.3357 21.4069 30.2947 21.4817C30.2359 21.5714 30.1742 21.6703 30.1008 21.7719C30.0275 21.8737 29.9452 21.9814 29.8542 22.0951C29.7631 22.2089 29.6663 22.3285 29.5575 22.4573C29.4518 22.5829 29.3373 22.7175 29.2168 22.8582C29.0966 22.9988 28.9761 23.1364 28.8497 23.2711C28.7265 23.4058 28.5973 23.5375 28.468 23.6662C28.3388 23.7919 28.2067 23.9175 28.0715 24.0402C27.9336 24.1628 27.7955 24.2825 27.6516 24.4023C27.5107 24.5219 27.3698 24.6266 27.2346 24.7164C27.0966 24.8092 26.9644 24.8841 26.8353 24.9469C26.706 25.0067 26.5798 25.0575 26.4534 25.0965C26.3272 25.1354 26.201 25.1623 26.0775 25.1743C25.828 25.2013 25.6136 25.1294 25.4315 24.9647C25.0291 24.6386 24.8999 23.9983 25.0438 23.0438C25.0761 22.8373 25.1348 22.6068 25.2259 22.3585C25.314 22.1071 25.4315 21.8318 25.5783 21.5326C25.7985 21.0867 26.0188 20.7096 26.2391 20.4073C26.4593 20.1052 26.6796 19.8748 26.9028 19.7161C27.1877 19.5096 27.4314 19.4617 27.634 19.5726C28.0438 19.7963 27.9796 20.418 28.3242 20.4643C28.3946 20.4733 28.474 20.4463 28.565 20.3835C28.6531 20.3236 28.7177 20.2578 28.7588 20.192C28.7969 20.1262 28.8146 20.0543 28.8058 19.9795C28.7969 19.8717 28.7764 19.767 28.747 19.6712C28.7148 19.5726 28.6707 19.4798 28.6149 19.3929C28.5179 19.2403 28.4034 19.1087 28.2742 19.004C28.145 18.8963 28.0011 18.8155 27.8425 18.7526C27.681 18.6927 27.5225 18.6538 27.3639 18.6389C27.2024 18.627 27.0408 18.6329 26.8763 18.666C26.7148 18.6957 26.5562 18.7437 26.4006 18.8036C26.245 18.8664 26.0952 18.9471 25.9483 19.0428C25.7902 19.143 25.6396 19.2555 25.4975 19.3779L25.2642 19.595ZM113.415 14.0007C113.362 14.1263 113.297 14.2939 113.215 14.5004C113.136 14.7069 113.039 14.9552 112.933 15.2456C112.824 15.5358 112.704 15.8708 112.572 16.257C112.44 16.643 112.296 17.0738 112.14 17.5497C111.988 18.0285 111.841 18.5042 111.703 18.9771C111.562 19.4498 111.433 19.9167 111.306 20.3835C111.183 20.8472 111.071 21.3171 110.977 21.7898C110.88 22.2597 110.798 22.7354 110.731 23.2143C110.593 24.1689 110.566 24.9409 110.654 25.5274C110.678 25.704 110.713 25.8715 110.757 26.0271C110.798 26.1858 110.86 26.3533 110.936 26.5269C111.016 26.7034 111.118 26.844 111.248 26.9488C111.312 27.0027 111.38 27.0446 111.453 27.0744C111.527 27.1044 111.603 27.1194 111.685 27.1254C111.952 27.1343 112.287 26.9757 112.692 26.6496C112.895 26.4881 113.089 26.3144 113.28 26.1319C113.471 25.9464 113.656 25.7488 113.835 25.5364C114.196 25.1175 114.584 24.6177 114.998 24.0372C115.203 23.75 115.382 23.4926 115.535 23.2681C115.685 23.0467 115.811 22.8552 115.908 22.6965C116.008 22.541 116.105 22.3854 116.199 22.2358C116.296 22.0862 116.387 21.9395 116.478 21.7929C116.504 21.7509 116.522 21.7091 116.531 21.6703C116.539 21.6313 116.542 21.5984 116.537 21.5655C116.528 21.4996 116.498 21.4518 116.443 21.4219C116.387 21.3889 116.31 21.3741 116.211 21.3741C116.099 21.368 116.005 21.386 115.929 21.4248C115.852 21.4638 115.794 21.5236 115.755 21.6014C115.741 21.6223 115.708 21.6731 115.658 21.7509C115.606 21.8288 115.535 21.9335 115.444 22.0651C115.353 22.1969 115.262 22.3285 115.168 22.4603C115.074 22.5949 114.98 22.7265 114.886 22.8641C114.695 23.1364 114.472 23.4506 114.214 23.8097C114.084 23.9894 113.961 24.1628 113.841 24.3304C113.717 24.4951 113.6 24.6566 113.482 24.8092C113.368 24.9619 113.253 25.1114 113.139 25.2581C113.027 25.4018 112.916 25.5424 112.804 25.677C112.692 25.8147 112.59 25.9374 112.493 26.0451C112.399 26.1529 112.308 26.2486 112.228 26.3263C112.146 26.4042 112.076 26.464 112.014 26.503C111.955 26.5448 111.908 26.5628 111.873 26.5628C111.841 26.5628 111.811 26.5448 111.785 26.512C111.761 26.476 111.741 26.4222 111.729 26.3534C111.715 26.2816 111.706 26.2067 111.703 26.1229C111.697 26.0391 111.694 25.9493 111.694 25.8536C111.694 25.7578 111.694 25.6831 111.694 25.6352C111.694 25.5873 111.694 25.5603 111.694 25.5544C111.797 24.1449 112.202 22.3016 112.907 20.0334C113.259 18.8963 113.615 17.8429 113.973 16.8673C114.328 15.8949 114.686 15.0002 115.051 14.1833C115.35 14.2131 115.667 14.2311 116.005 14.24C116.34 14.2491 116.754 14.24 117.244 14.2132C117.488 14.2011 117.726 14.1802 117.961 14.1533C118.193 14.1294 118.422 14.0964 118.645 14.0546C118.868 14.0157 119.094 13.9647 119.323 13.899C119.553 13.8331 119.785 13.7553 120.022 13.6625C120.495 13.4769 120.909 13.2496 121.262 12.9773C121.438 12.8426 121.599 12.687 121.752 12.5105C121.902 12.3339 122.04 12.1365 122.163 11.9179C122.29 11.6995 122.389 11.4632 122.463 11.2148C122.536 10.9664 122.586 10.703 122.613 10.4278C122.624 10.353 122.621 10.2871 122.604 10.2303C122.586 10.1734 122.551 10.1255 122.501 10.0867C122.448 10.0448 122.392 10.0208 122.334 10.0118C122.275 10.0028 122.213 10.0118 122.149 10.0327C122.084 10.0536 122.028 10.0897 121.987 10.1375C121.943 10.1883 121.911 10.2511 121.89 10.332C121.873 10.5773 121.831 10.8077 121.767 11.0262C121.702 11.2446 121.614 11.4482 121.502 11.6367C121.391 11.8253 121.265 11.9957 121.13 12.1484C120.992 12.301 120.845 12.4357 120.683 12.5494C120.525 12.6631 120.354 12.7648 120.169 12.8575C119.984 12.9503 119.785 13.0341 119.576 13.109C119.153 13.2586 118.748 13.3634 118.36 13.4262C117.976 13.4859 117.57 13.522 117.147 13.531C116.939 13.5339 116.745 13.5369 116.575 13.5369C116.404 13.5339 116.255 13.5309 116.125 13.522C115.996 13.5129 115.87 13.504 115.752 13.492C115.632 13.4831 115.517 13.4711 115.412 13.4592C115.544 13.1927 115.679 12.9324 115.817 12.684C115.955 12.4357 116.093 12.1962 116.237 11.9689C116.293 11.8911 116.319 11.8072 116.313 11.7234C116.31 11.6396 116.275 11.5529 116.211 11.4601C116.146 11.3674 116.07 11.2956 115.979 11.2418C115.891 11.1878 115.791 11.152 115.676 11.1371C115.565 11.119 115.453 11.128 115.335 11.1609C115.221 11.1968 115.106 11.2596 114.989 11.3465C114.807 11.5229 114.637 11.7324 114.472 11.9779C114.31 12.2232 114.19 12.4236 114.111 12.5822C114.073 12.6601 114.023 12.7618 113.964 12.8845C113.902 13.0102 113.832 13.1568 113.75 13.3274C113.562 13.3183 113.192 13.2736 112.64 13.1958C112.364 13.1569 112.105 13.1239 111.861 13.0969C111.617 13.0701 111.388 13.0491 111.177 13.0312C110.966 13.0132 110.739 13.0042 110.496 13.0042C110.252 13.0042 109.991 13.0102 109.715 13.0221C109.165 13.0491 108.64 13.1628 108.141 13.3634C107.891 13.465 107.656 13.5848 107.433 13.7284C107.207 13.8691 106.998 14.0306 106.798 14.2162C106.763 14.2401 106.734 14.27 106.71 14.3029C106.684 14.3328 106.666 14.3687 106.652 14.4076C106.619 14.4944 106.61 14.5782 106.625 14.656C106.643 14.7338 106.684 14.8057 106.748 14.8714C106.813 14.9373 106.878 14.9703 106.945 14.9642C107.016 14.9613 107.083 14.9224 107.151 14.8475C107.277 14.7189 107.415 14.6022 107.571 14.5004C107.726 14.3957 107.897 14.3029 108.082 14.2251C108.267 14.1444 108.449 14.0786 108.628 14.0277C108.807 13.9738 108.983 13.9349 109.157 13.9079C109.5 13.8571 109.905 13.8301 110.369 13.8301C110.601 13.8301 110.813 13.8331 111.004 13.8421C111.192 13.8481 111.362 13.8601 111.512 13.8721C111.665 13.8869 111.829 13.9019 112.011 13.9229C112.19 13.9438 112.387 13.9647 112.598 13.9916C112.807 14.0186 112.98 14.0396 113.112 14.0575C113.247 14.0725 113.341 14.0844 113.397 14.0875L113.415 14.0007ZM160.065 21.8198C159.891 22.0023 159.704 22.176 159.498 22.3406C159.292 22.502 159.063 22.6668 158.814 22.8312C158.564 22.9988 158.291 23.1725 157.994 23.3459C157.874 22.8163 157.777 22.3436 157.707 21.9276C157.639 21.5117 157.592 21.1555 157.572 20.8562C157.563 20.7425 157.563 20.62 157.572 20.4882C157.574 20.4224 157.583 20.3535 157.589 20.2848C157.598 20.2129 157.61 20.1381 157.621 20.0573C157.648 19.9016 157.701 19.77 157.777 19.6653C157.856 19.5577 157.95 19.5068 158.062 19.5068C158.091 19.5068 158.115 19.5126 158.135 19.5246C158.153 19.5366 158.165 19.5545 158.174 19.5755C158.191 19.6205 158.191 19.6832 158.174 19.7611C158.165 19.8 158.156 19.8388 158.147 19.8778C158.138 19.9197 158.127 19.9586 158.115 19.9974C158.088 20.0753 158.062 20.1471 158.035 20.2069C158.024 20.2398 158.015 20.2638 158.009 20.2787C158.003 20.2967 158 20.3087 158 20.3117C157.997 20.3535 158 20.3924 158.006 20.4313C158.015 20.4702 158.027 20.5091 158.044 20.551C158.062 20.59 158.082 20.6258 158.103 20.6558C158.126 20.6886 158.153 20.7156 158.182 20.7425C158.244 20.7963 158.32 20.8053 158.414 20.7695C158.461 20.7516 158.508 20.7216 158.555 20.6767C158.605 20.6319 158.652 20.5719 158.699 20.4972L158.758 20.5421C158.867 20.3895 158.943 20.2339 158.99 20.0753C159.037 19.9167 159.055 19.7521 159.043 19.5874C159.031 19.4199 158.993 19.2733 158.934 19.1447C158.872 19.0189 158.79 18.9083 158.682 18.8155C158.552 18.7018 158.397 18.624 158.218 18.579C158.127 18.5551 158.032 18.5462 157.939 18.5462C157.845 18.5462 157.751 18.5612 157.657 18.5881C157.563 18.612 157.466 18.6479 157.375 18.6927C157.281 18.7376 157.187 18.7946 157.096 18.8574C156.917 18.989 156.761 19.1836 156.632 19.4379C156.567 19.5635 156.511 19.7012 156.464 19.8508C156.42 20.0006 156.382 20.162 156.356 20.3326C156.317 20.6169 156.338 21.0748 156.414 21.7061C156.494 22.3375 156.632 23.1425 156.831 24.1181C156.652 24.2406 156.476 24.3723 156.303 24.5129C156.127 24.6536 155.953 24.8033 155.78 24.9589C155.607 25.1175 155.437 25.291 155.272 25.4795C155.105 25.668 154.94 25.8715 154.782 26.09C154.623 26.3114 154.497 26.5209 154.403 26.7214C154.309 26.9248 154.25 27.1163 154.224 27.3019C154.203 27.4546 154.197 27.5981 154.203 27.7357C154.212 27.8734 154.235 28.0022 154.277 28.1247C154.315 28.2475 154.365 28.3582 154.423 28.454C154.485 28.5498 154.558 28.6335 154.644 28.7023C154.729 28.7741 154.823 28.8341 154.923 28.8878C155.019 28.9417 155.125 28.9866 155.237 29.0285C155.46 29.1064 155.704 29.1333 155.959 29.1064C156.088 29.0944 156.218 29.0703 156.344 29.0406C156.467 29.0106 156.594 28.9717 156.717 28.9208C156.843 28.873 156.964 28.813 157.081 28.7383C157.199 28.6635 157.313 28.5766 157.425 28.4749C157.536 28.3761 157.639 28.2655 157.736 28.1458C157.83 28.0291 157.918 27.9004 158 27.7657C158.438 26.9847 158.5 25.7578 158.182 24.0851C159.054 23.561 159.774 22.9551 160.45 22.3079C160.766 22.0051 161.073 21.7014 161.384 21.4107C162.687 20.1941 164.057 19.2064 166.403 19.4724C167.791 19.6297 169.274 20.1616 170.798 20.9508C171.587 21.3592 172.386 21.8365 173.189 22.3663C174.7 23.3634 176.351 23.6287 178.051 23.3342C179.897 23.0145 181.797 22.031 183.632 20.6102C183.781 20.4945 183.811 20.2768 183.697 20.1242C183.583 19.9718 183.37 19.942 183.22 20.0576C183.085 20.1622 182.95 20.2644 182.814 20.3637C181.193 21.5534 179.537 22.3715 177.939 22.6484C176.403 22.9144 174.915 22.6779 173.56 21.7839C173.078 21.4653 172.595 21.1652 172.116 20.8864C170.17 19.7575 168.259 18.9829 166.478 18.7811C163.077 18.3956 162.025 19.6841 160.065 21.8198ZM125.718 21.6194C125.65 21.6761 125.58 21.76 125.506 21.8677C125.433 21.9755 125.357 22.1102 125.28 22.2687C125.204 22.4243 125.13 22.5948 125.06 22.7744C124.989 22.954 124.922 23.1455 124.86 23.3459C124.731 23.7499 124.643 24.1719 124.602 24.6088C124.578 24.8272 124.57 25.0398 124.57 25.2402C124.57 25.4407 124.578 25.6292 124.602 25.8117C124.622 25.9912 124.666 26.1558 124.731 26.3024C124.796 26.4521 124.881 26.5807 124.986 26.6974C125.095 26.8111 125.221 26.8949 125.368 26.9519C125.515 27.0087 125.68 27.0326 125.865 27.0296C126.167 27.0206 126.725 26.6436 127.541 25.8984C128.361 25.1533 129.133 24.3634 129.864 23.5315C130.596 22.6965 131.027 22.128 131.157 21.8198C131.168 21.7898 131.18 21.76 131.189 21.73C131.198 21.7001 131.204 21.6732 131.206 21.6462C131.221 21.5536 131.206 21.4817 131.168 21.4338C131.127 21.386 131.063 21.359 130.966 21.356C130.869 21.3531 130.775 21.368 130.69 21.4069C130.604 21.4457 130.525 21.5056 130.452 21.5833C130.299 21.7989 130.035 22.1311 129.653 22.577C129.268 23.0228 128.772 23.5883 128.161 24.2676C127.55 24.947 127.063 25.4585 126.699 25.7997C126.334 26.1408 126.094 26.3114 125.976 26.3114C125.935 26.3114 125.897 26.3025 125.868 26.2844C125.838 26.2665 125.815 26.2367 125.797 26.1977C125.779 26.1588 125.768 26.111 125.762 26.054C125.759 25.9973 125.756 25.9315 125.762 25.8565C125.771 25.7069 125.788 25.5483 125.815 25.3807C125.838 25.2161 125.882 25.0217 125.941 24.8033C125.973 24.6926 126.003 24.5878 126.032 24.486C126.061 24.3843 126.094 24.2856 126.123 24.1898C126.152 24.0942 126.185 23.9923 126.22 23.8905C126.255 23.7887 126.291 23.684 126.329 23.5763C126.37 23.4657 126.405 23.3669 126.437 23.2772C126.472 23.1903 126.502 23.1096 126.528 23.0407L126.69 22.6098C126.716 22.541 126.737 22.4841 126.749 22.4453C126.763 22.4064 126.772 22.3825 126.778 22.3734C126.816 22.2537 126.837 22.149 126.843 22.0532C126.848 21.9574 126.837 21.8737 126.81 21.8049C126.787 21.7331 126.749 21.6732 126.702 21.6194C126.658 21.5684 126.602 21.5266 126.537 21.4966C126.472 21.4666 126.402 21.4458 126.332 21.4368C126.258 21.4278 126.185 21.4248 126.105 21.4338C126.029 21.4428 125.956 21.4608 125.885 21.4877C125.815 21.5117 125.747 21.5445 125.685 21.5833L125.718 21.6194ZM126.881 20.7875C126.892 20.7814 126.907 20.7756 126.925 20.7665C126.939 20.7605 126.957 20.7515 126.975 20.7425C127.166 20.6408 127.301 20.5242 127.386 20.3924C127.471 20.2607 127.503 20.1143 127.483 19.9525C127.465 19.8269 127.424 19.7161 127.359 19.6235C127.292 19.5307 127.204 19.4588 127.086 19.399C126.801 19.2523 126.528 19.3031 126.261 19.5576C126.17 19.6383 126.102 19.7282 126.056 19.8299C126.006 19.9316 125.982 20.0453 125.976 20.171C125.973 20.2996 125.991 20.4105 126.029 20.5091C126.07 20.6049 126.132 20.6886 126.217 20.7605C126.305 20.8294 126.402 20.8683 126.514 20.8712C126.625 20.8742 126.752 20.8414 126.89 20.7785L126.881 20.7875ZM144.484 20.3415C144.531 20.4134 144.59 20.4552 144.658 20.4643C144.728 20.4733 144.807 20.4463 144.899 20.3835C144.987 20.3236 145.051 20.2578 145.092 20.192C145.13 20.1262 145.148 20.0543 145.139 19.9795C145.13 19.8717 145.11 19.767 145.08 19.6712C145.048 19.5726 145.004 19.4798 144.948 19.3929C144.851 19.2403 144.737 19.1087 144.608 19.004C144.479 18.8963 144.335 18.8155 144.176 18.7526C144.015 18.6927 143.856 18.6538 143.697 18.6389C143.536 18.627 143.374 18.6329 143.21 18.666C143.048 18.6957 142.89 18.7437 142.734 18.8036C142.579 18.8664 142.429 18.9471 142.282 19.0428C142.088 19.1656 141.9 19.3092 141.721 19.4768C141.542 19.6413 141.372 19.8299 141.207 20.0424C140.878 20.4613 140.614 20.9101 140.405 21.3829C140.2 21.8557 140.062 22.3494 139.994 22.8582C139.924 23.3639 139.933 23.8307 140.021 24.2527C140.106 24.6716 140.294 25.0398 140.587 25.3569C140.734 25.5125 140.905 25.6441 141.098 25.7459C141.292 25.8476 141.512 25.9224 141.756 25.9703C141.9 25.9973 142.044 26.0092 142.191 26.0031C142.338 26.0002 142.487 25.9793 142.643 25.9434C142.799 25.9105 142.948 25.8626 143.095 25.8087C143.242 25.7518 143.383 25.686 143.521 25.6112C143.797 25.4646 144.088 25.2611 144.399 25.0067C144.552 24.881 144.699 24.7554 144.837 24.6327C144.975 24.5071 145.104 24.3843 145.224 24.2616C145.345 24.139 145.468 24.0072 145.597 23.8666C145.727 23.7259 145.862 23.5734 146 23.4118C146.135 23.2472 146.258 23.1005 146.367 22.9659C146.475 22.8282 146.572 22.7085 146.652 22.6039C146.734 22.4992 146.819 22.3854 146.91 22.2657C147.001 22.149 147.095 22.0204 147.195 21.8856C147.236 21.8168 147.263 21.754 147.274 21.6881C147.283 21.6223 147.277 21.5595 147.254 21.4996C147.213 21.3741 147.119 21.3052 146.972 21.2871C146.898 21.2782 146.834 21.2902 146.775 21.3231C146.719 21.353 146.669 21.4069 146.628 21.4817C146.569 21.5714 146.508 21.6703 146.434 21.7719C146.361 21.8737 146.279 21.9814 146.188 22.0951C146.097 22.2089 146 22.3285 145.891 22.4573C145.785 22.5829 145.671 22.7175 145.55 22.8582C145.43 22.9988 145.31 23.1364 145.183 23.2711C145.06 23.4058 144.931 23.5375 144.802 23.6662C144.672 23.7919 144.54 23.9175 144.405 24.0402C144.267 24.1628 144.129 24.2825 143.985 24.4023C143.844 24.5219 143.703 24.6266 143.568 24.7164C143.43 24.8092 143.298 24.8841 143.169 24.9469C143.04 25.0067 142.913 25.0575 142.787 25.0965C142.661 25.1354 142.535 25.1623 142.411 25.1743C142.161 25.2013 141.947 25.1294 141.765 24.9647C141.363 24.6386 141.233 23.9983 141.377 23.0438C141.41 22.8373 141.468 22.6068 141.559 22.3585C141.647 22.1071 141.765 21.8318 141.912 21.5326C142.132 21.0867 142.352 20.7096 142.573 20.4073C142.793 20.1052 143.013 19.8748 143.236 19.7161C143.521 19.5096 143.765 19.4617 143.968 19.5726C144.17 19.6832 144.335 19.9495 144.458 20.3745L144.484 20.3415ZM156.917 24.8542C156.92 24.8721 156.928 24.9199 156.934 24.9947C156.943 25.0695 156.955 25.1743 156.967 25.3121C156.981 25.4466 156.99 25.5574 156.999 25.6471C157.008 25.7339 157.011 25.7968 157.011 25.8356V26.2665C157.011 26.467 156.993 26.6436 156.961 26.7932C156.943 26.868 156.923 26.9429 156.899 27.0147C156.878 27.0894 156.852 27.1643 156.823 27.2391C156.799 27.3049 156.776 27.3677 156.749 27.4246C156.726 27.4814 156.696 27.5384 156.667 27.5892C156.417 28.02 156.097 28.2385 155.71 28.2475C155.557 28.2535 155.422 28.2236 155.304 28.1608C155.187 28.0978 155.09 28.0022 155.014 27.8705C154.914 27.6909 154.881 27.4934 154.911 27.278C154.94 27.0624 155.034 26.8262 155.196 26.5748C155.375 26.2844 155.61 25.9973 155.901 25.713C156.188 25.4257 156.532 25.1444 156.934 24.8631L156.917 24.8542ZM42.2187 19.2105C41.8047 19.2973 41.4347 19.5157 41.1088 19.8658C40.9443 20.0423 40.7944 20.2278 40.6624 20.4284C40.5302 20.6258 40.4157 20.8353 40.3158 21.0598C40.1044 21.5117 39.9575 21.9723 39.8784 22.4392C39.796 22.906 39.7813 23.3819 39.8343 23.8636C39.8694 24.1509 39.9341 24.4113 40.0339 24.6446C40.1337 24.881 40.2629 25.0905 40.4274 25.276C40.7534 25.6441 41.2026 25.8446 41.7696 25.8806C42.257 25.9165 42.7269 25.7848 43.1849 25.4885C43.6402 25.1893 44.0806 24.7285 44.5064 24.1C44.7561 24.1479 45.0057 24.1658 45.2554 24.1539C45.5049 24.142 45.7575 24.097 46.013 24.0223C46.5181 23.8726 46.9675 23.6542 47.3551 23.3639C47.546 23.2202 47.7251 23.0767 47.8895 22.93C48.054 22.7834 48.2068 22.6368 48.3448 22.4872C48.4799 22.3406 48.6032 22.1939 48.7119 22.0502C48.8176 21.9066 48.9116 21.766 48.9879 21.6284C49.0144 21.5714 49.0261 21.5205 49.0261 21.4757C49.0261 21.4308 49.0144 21.3919 48.9879 21.3591C48.9645 21.3231 48.9292 21.2962 48.8911 21.2782C48.8499 21.2602 48.803 21.2483 48.7472 21.2424C48.6913 21.2394 48.6414 21.2452 48.5914 21.2632C48.5445 21.2782 48.5033 21.3052 48.4652 21.341C47.8014 22.1161 47.1761 22.6756 46.5887 23.0169C45.9984 23.3579 45.4491 23.4836 44.9353 23.3909C45.2025 22.891 45.4198 22.4153 45.5813 21.9574C45.7458 21.4996 45.8603 21.0628 45.925 20.6468C46.0894 19.402 45.8222 18.5521 45.1262 18.0972C44.856 17.9268 44.577 17.828 44.2921 17.801C44.0072 17.7741 43.7136 17.819 43.414 17.9387C43.1145 18.0554 42.859 18.22 42.6535 18.4324C42.445 18.6449 42.2864 18.9022 42.1747 19.2105H42.2187ZM44.1981 23.2173C44.0365 23.1753 43.8898 23.1186 43.7518 23.0377C43.6166 22.96 43.4904 22.8612 43.3788 22.7415C43.2672 22.6248 43.1703 22.4961 43.0911 22.3615C43.0087 22.2269 42.9442 22.0862 42.8972 21.9365C42.8502 21.787 42.8091 21.6313 42.7768 21.4697C42.7444 21.3081 42.718 21.1436 42.7004 20.9729C42.6829 20.7995 42.6769 20.6349 42.6829 20.4733C42.6857 20.3117 42.7033 20.1561 42.7357 20.0064C42.7738 19.7491 42.8502 19.5187 42.9619 19.3151C43.0734 19.1147 43.2261 18.9382 43.414 18.7885C43.7929 18.4893 44.1981 18.4893 44.6269 18.7885C45.1173 19.1206 45.2965 19.7431 45.1673 20.6558C45.1027 21.0209 44.991 21.4158 44.8266 21.8468C44.6651 22.2747 44.4537 22.7326 44.1981 23.2263V23.2173ZM43.7401 23.9265C43.6548 24.0581 43.5697 24.1809 43.4816 24.2946C43.4405 24.3515 43.3877 24.4113 43.3289 24.4771C43.2702 24.5429 43.2026 24.6147 43.1292 24.6895C42.9853 24.8391 42.8472 24.9528 42.718 25.0307C42.6535 25.0695 42.5829 25.0995 42.5124 25.1204C42.439 25.1414 42.3656 25.1534 42.2864 25.1534C42.21 25.1534 42.1366 25.1354 42.069 25.0995C42.0016 25.0665 41.9398 25.0128 41.884 24.9438C41.6315 24.6536 41.4876 24.2406 41.4435 23.708C41.42 23.4387 41.4172 23.1753 41.4318 22.9181C41.4465 22.6607 41.4789 22.4064 41.5287 22.155C41.6315 21.6552 41.7696 21.2363 41.9428 20.8923C41.9634 21.2452 42.0161 21.5745 42.0984 21.8856C42.1806 22.1939 42.2951 22.4841 42.442 22.7505C42.7357 23.2862 43.1732 23.6632 43.7576 23.8816L43.7401 23.9265ZM60.4921 20.5421C60.6009 20.3895 60.6773 20.2339 60.7241 20.0753C60.7711 19.9167 60.7888 19.7521 60.7771 19.5874C60.7653 19.4199 60.7271 19.2733 60.6683 19.1447C60.6066 19.0189 60.5245 18.9083 60.4157 18.8155C60.2865 18.7018 60.131 18.624 59.9518 18.579C59.8608 18.5551 59.7668 18.5462 59.6728 18.5462C59.5788 18.5462 59.485 18.5612 59.3909 18.5881C59.2968 18.612 59.2 18.6479 59.1089 18.6927C59.015 18.7376 58.921 18.7946 58.83 18.8574C58.6508 18.989 58.4951 19.1836 58.366 19.4379C58.3014 19.5635 58.2456 19.7012 58.1986 19.8508C58.1545 20.0006 58.1163 20.162 58.0899 20.3326C58.0517 20.6169 58.0724 21.0748 58.1487 21.7061C58.2279 22.3375 58.3661 23.1425 58.5657 24.1181C58.3865 24.2406 58.2103 24.3723 58.037 24.5129C57.8608 24.6536 57.6876 24.8033 57.5144 24.9589C57.3411 25.1175 57.1708 25.291 57.0062 25.4795C56.8389 25.668 56.6745 25.8715 56.5159 26.09C56.3574 26.3114 56.2309 26.5209 56.1371 26.7214C56.043 26.9248 55.9843 27.1163 55.9579 27.3019C55.9374 27.4546 55.9315 27.5981 55.9373 27.7357C55.9462 27.8734 55.9696 28.0022 56.0107 28.1247C56.049 28.2475 56.0988 28.3582 56.1575 28.454C56.2192 28.5498 56.2927 28.6335 56.3778 28.7023C56.4629 28.7741 56.557 28.8341 56.6568 28.8878C56.7537 28.9417 56.8594 28.9866 56.971 29.0285C57.1943 29.1064 57.438 29.1333 57.6935 29.1064C57.8227 29.0944 57.9519 29.0703 58.0781 29.0406C58.2015 29.0106 58.3278 28.9717 58.4512 28.9208C58.5774 28.873 58.6977 28.813 58.8152 28.7383C58.9327 28.6635 59.0472 28.5766 59.1589 28.4749C59.2704 28.3761 59.3732 28.2655 59.4703 28.1458C59.5641 28.0291 59.6522 27.9004 59.7345 27.7657C60.172 26.9847 60.2338 25.7578 59.9166 24.0851C61.4201 23.1814 62.3834 22.3734 62.8063 21.6642C62.8651 21.5146 62.8651 21.4008 62.8063 21.3231C62.777 21.2813 62.7388 21.2513 62.6917 21.2243C62.6448 21.2004 62.5919 21.1824 62.5302 21.1734C62.4715 21.1646 62.4157 21.1646 62.3716 21.1734C62.3246 21.1824 62.2865 21.2034 62.2542 21.2333C62.122 21.4398 61.9694 21.6342 61.7989 21.8198C61.6257 22.0023 61.4378 22.176 61.2322 22.3406C61.0266 22.502 60.7975 22.6668 60.5479 22.8312C60.2984 22.9988 60.0252 23.1725 59.7286 23.3459C59.6082 22.8163 59.5113 22.3436 59.4409 21.9276C59.3732 21.5117 59.3262 21.1555 59.3058 20.8562C59.2968 20.7425 59.2968 20.62 59.3058 20.4882C59.3087 20.4224 59.3175 20.3535 59.3234 20.2848C59.3322 20.2129 59.3439 20.1381 59.3556 20.0573C59.3822 19.9016 59.4349 19.77 59.5112 19.6653C59.5905 19.5577 59.6846 19.5068 59.7962 19.5068C59.8256 19.5068 59.849 19.5126 59.8696 19.5246C59.8872 19.5366 59.899 19.5545 59.9077 19.5755C59.9254 19.6205 59.9254 19.6832 59.9077 19.7611C59.899 19.8 59.8902 19.8388 59.8813 19.8778C59.8725 19.9197 59.8607 19.9586 59.849 19.9974C59.8226 20.0753 59.7962 20.1471 59.7697 20.2069C59.7579 20.2398 59.7492 20.2638 59.7433 20.2787C59.7374 20.2967 59.7345 20.3087 59.7345 20.3117C59.7316 20.3535 59.7345 20.3924 59.7403 20.4313C59.7492 20.4702 59.761 20.5091 59.7785 20.551C59.7962 20.59 59.8166 20.6258 59.8373 20.6558C59.8608 20.6886 59.8872 20.7156 59.9166 20.7425C59.9783 20.7963 60.0546 20.8053 60.1486 20.7695C60.1955 20.7516 60.2425 20.7216 60.2895 20.6767C60.3395 20.6319 60.3864 20.5719 60.4334 20.4972L60.4921 20.5421ZM58.6508 24.8542C58.6537 24.8721 58.6626 24.9199 58.6685 24.9947C58.6773 25.0695 58.689 25.1743 58.7007 25.3121C58.7154 25.4466 58.7242 25.5574 58.7331 25.6471C58.7418 25.7339 58.7448 25.7968 58.7448 25.8356V26.2665C58.7448 26.467 58.7272 26.6436 58.6949 26.7932C58.6773 26.868 58.6567 26.9429 58.6333 27.0147C58.6126 27.0894 58.5862 27.1643 58.5569 27.2391C58.5333 27.3049 58.5099 27.3677 58.4834 27.4246C58.4599 27.4814 58.4305 27.5384 58.4012 27.5892C58.1515 28.02 57.8315 28.2385 57.4439 28.2475C57.2911 28.2535 57.1561 28.2236 57.0386 28.1608C56.9211 28.0978 56.8242 28.0022 56.7479 27.8705C56.6481 27.6909 56.6157 27.4934 56.6451 27.278C56.6745 27.0624 56.7684 26.8262 56.9299 26.5748C57.109 26.2844 57.344 25.9973 57.6348 25.713C57.9225 25.4257 58.2661 25.1444 58.6685 24.8631L58.6508 24.8542ZM73.6468 21.2752C73.6702 21.2094 73.6732 21.1495 73.6615 21.0927C73.6468 21.0388 73.6175 20.9879 73.5704 20.943C73.494 20.8623 73.3884 20.8025 73.2532 20.7725C73.1211 20.7395 72.9595 20.7337 72.7716 20.7516C72.4015 20.7875 72.1755 20.9011 72.0991 21.0927C71.8054 21.8557 71.5499 22.8103 71.3239 23.9594C71.1007 25.1084 71.0743 25.9612 71.2475 26.512C71.2679 26.5778 71.3062 26.6345 71.3561 26.6795C71.4061 26.7243 71.4707 26.7603 71.5499 26.7843C71.7027 26.8382 71.8671 26.8382 72.0375 26.7843C72.1255 26.7573 72.1989 26.7184 72.2606 26.6676C72.3194 26.6136 72.3694 26.5478 72.4075 26.47C72.4632 26.3772 72.5367 26.2455 72.6218 26.0751C72.7099 25.9045 72.8127 25.692 72.9331 25.4436C73.0536 25.1923 73.1651 24.9768 73.2621 24.7913C73.3619 24.6057 73.45 24.4532 73.5264 24.3304C73.591 24.2077 73.6791 24.0461 73.7907 23.8486C73.9052 23.6482 74.0403 23.4118 74.1989 23.1364C74.7274 22.2059 75.1739 21.4577 75.5409 20.8923C75.9051 20.3266 76.1899 19.9406 76.3926 19.7372C76.5218 19.5995 76.5952 19.5726 76.6129 19.6503C76.6304 19.7311 76.5952 19.9167 76.5042 20.2099C76.4954 20.2339 76.4278 20.4613 76.2986 20.8923C76.1694 21.3201 76.0754 21.6462 76.0137 21.8647C75.9843 21.9754 75.9462 22.1131 75.9022 22.2836C75.8581 22.4542 75.8081 22.6547 75.7465 22.8821C75.6878 23.1096 75.6379 23.319 75.5968 23.5076C75.5585 23.6961 75.5263 23.8636 75.5057 24.0133C75.4646 24.3125 75.4206 24.6446 75.3765 25.0128C75.3559 25.1982 75.3442 25.3688 75.3442 25.5274C75.3442 25.6831 75.3501 25.8297 75.3676 25.9612C75.3853 26.09 75.4089 26.2096 75.441 26.3205C75.4704 26.4281 75.5117 26.5239 75.5585 26.6076C75.5998 26.6914 75.6584 26.7543 75.7318 26.7962C75.8054 26.841 75.8934 26.862 75.9962 26.862C76.0989 26.862 76.1871 26.844 76.2634 26.8082C76.3368 26.7723 76.3955 26.7184 76.4424 26.6436C76.4571 26.6257 76.4924 26.5567 76.5542 26.44C76.6158 26.3205 76.701 26.1529 76.8125 25.9315C77.0298 25.5035 77.2002 25.1623 77.3295 24.908C78.1076 23.3848 78.7155 22.3345 79.1531 21.757C79.5907 21.1795 79.858 21.0718 79.9518 21.4338C79.9782 21.5266 79.9901 21.6493 79.9872 21.8018C79.9842 21.9574 79.9665 22.1399 79.9372 22.3555C79.9078 22.5709 79.8754 22.7893 79.8403 23.0107C79.805 23.2353 79.7699 23.4597 79.7316 23.6901C79.6524 24.1449 79.6024 24.5998 79.576 25.0576C79.5496 25.5125 79.6111 25.9075 79.758 26.2426C79.9019 26.5748 80.1516 26.7842 80.504 26.871C80.6802 26.9189 80.8594 26.9219 81.0414 26.8799C81.2206 26.8351 81.4026 26.7483 81.5877 26.6167C81.7903 26.473 82.0134 26.2755 82.2601 26.0242C82.504 25.7759 82.7711 25.4706 83.0589 25.1084C83.3466 24.7494 83.6139 24.4053 83.8576 24.0701C84.1045 23.738 84.3246 23.4208 84.5214 23.1186C84.7211 22.8163 84.8914 22.5499 85.0324 22.3225C85.1734 22.0951 85.2849 21.9037 85.3643 21.7509C85.3877 21.7061 85.4053 21.6642 85.417 21.6253C85.4288 21.5865 85.4347 21.5475 85.4347 21.5146C85.4288 21.4427 85.4053 21.3889 85.3643 21.3471C85.3202 21.3081 85.2585 21.2813 85.1763 21.2693C85.0763 21.2543 84.9825 21.2693 84.8944 21.3081C84.8033 21.3499 84.7211 21.4158 84.6417 21.5146C84.6125 21.5536 84.5566 21.6284 84.4773 21.7451C84.3951 21.8588 84.2894 22.0084 84.1602 22.1969C84.0311 22.3854 83.8989 22.5798 83.7608 22.7835C83.6228 22.9839 83.4818 23.1874 83.3349 23.3998C83.1882 23.6093 83.0384 23.8218 82.8857 24.0312C82.73 24.2437 82.5744 24.4562 82.4159 24.6716C82.2543 24.887 82.1015 25.0845 81.9577 25.2611C81.8108 25.4407 81.6758 25.6022 81.5465 25.7398C81.4173 25.8806 81.3057 25.9882 81.2176 26.0631C81.1295 26.1349 81.059 26.1768 81.012 26.1798C80.9445 26.1826 80.8888 26.1649 80.8505 26.1229C80.8094 26.0779 80.783 26.0121 80.7713 25.9254C80.7594 25.8387 80.7566 25.7339 80.7653 25.6141C80.7742 25.4944 80.7917 25.3599 80.8241 25.2073C80.8505 25.0517 80.8828 24.8961 80.9181 24.7314C80.9533 24.5699 80.9943 24.4023 81.0356 24.2317C81.0797 24.0611 81.1207 23.8816 81.1588 23.693C81.1999 23.5045 81.2382 23.3071 81.2763 23.1006C81.3527 22.6877 81.3968 22.3285 81.4055 22.0232C81.4232 21.4008 81.2763 20.952 80.9679 20.6828C80.8124 20.5452 80.642 20.4582 80.457 20.4194C80.2719 20.3805 80.0693 20.3895 79.849 20.4463C79.7522 20.4702 79.6524 20.5062 79.5525 20.551C79.4555 20.5959 79.3557 20.6498 79.2559 20.7156C79.156 20.7814 79.062 20.8562 78.9651 20.9401C78.8711 21.0239 78.7802 21.1196 78.6891 21.2243C78.598 21.3291 78.5129 21.4308 78.4365 21.5266C78.3573 21.6223 78.2839 21.7151 78.2162 21.8018C78.0783 21.9784 77.9226 22.2149 77.7522 22.5141C77.6641 22.6636 77.5908 22.7893 77.5321 22.8972C77.4704 23.0019 77.4233 23.0886 77.3911 23.1544C77.3559 23.2202 77.3118 23.3041 77.2589 23.4029C77.206 23.5045 77.1443 23.6243 77.0709 23.7589C77.2795 23.0616 77.4527 22.4183 77.5937 21.8317C77.7347 21.2452 77.8403 20.7128 77.9138 20.2339C77.9872 19.7581 77.9548 19.3901 77.811 19.1327C77.6701 18.8753 77.4233 18.7288 77.0709 18.6927C76.9975 18.6837 76.9213 18.6868 76.8419 18.6988C76.7597 18.7137 76.6774 18.7376 76.5893 18.7706C76.5042 18.8065 76.419 18.8544 76.3309 18.9141C76.2428 18.9741 76.1547 19.0489 76.0666 19.1297C75.9756 19.2134 75.8875 19.3003 75.7994 19.387C75.7143 19.4738 75.6262 19.5605 75.5409 19.6474C75.4557 19.7341 75.3648 19.8358 75.2737 19.9495C75.1827 20.0634 75.0887 20.192 74.9889 20.3326C74.7921 20.6109 74.6188 20.8562 74.4749 21.0657C74.4015 21.1704 74.3222 21.2932 74.24 21.4278C74.1608 21.5624 74.0727 21.7121 73.9846 21.8737C73.8024 22.1969 73.6644 22.4422 73.5704 22.6098C73.5234 22.6936 73.4676 22.7954 73.403 22.9121C73.3413 23.0288 73.2709 23.1634 73.1916 23.313C73.1152 23.4597 73.0536 23.5794 73.0066 23.6662C72.9595 23.7559 72.9302 23.8128 72.9155 23.8367C72.8921 23.8905 72.8304 24.0133 72.7364 24.2077C72.8127 23.8875 72.9008 23.5585 73.0007 23.2263C73.0977 22.8941 73.2033 22.5529 73.3208 22.2058L73.6468 21.2752ZM95.726 22.9091C95.7465 22.906 95.7729 22.9001 95.8082 22.8911C95.8435 22.8821 95.8846 22.8763 95.9315 22.8672C96.1077 22.8223 96.2722 22.7774 96.4307 22.7355C96.5864 22.6937 96.7333 22.6517 96.8684 22.6128C97.0063 22.5708 97.1502 22.5261 97.297 22.4722C97.4439 22.4213 97.5967 22.3615 97.7552 22.2956C97.9167 22.2297 98.0666 22.152 98.2075 22.0651C98.3514 21.9814 98.4836 21.8827 98.6098 21.7779C98.7332 21.6732 98.8448 21.5595 98.9446 21.4368C99.0444 21.3171 99.1297 21.1855 99.203 21.0507C99.3147 20.8323 99.3821 20.6228 99.4028 20.4254C99.4262 20.2278 99.4056 20.0423 99.341 19.8658C99.2706 19.6772 99.1737 19.5157 99.0503 19.381C98.9269 19.2464 98.7773 19.1387 98.6011 19.0608C98.4249 18.9801 98.2398 18.9292 98.0519 18.9022C97.864 18.8753 97.6701 18.8753 97.4732 18.9022C97.2736 18.9292 97.0857 18.9741 96.9095 19.0399C96.7333 19.1057 96.5629 19.1864 96.4043 19.2883C96.1019 19.4768 95.8229 19.7072 95.5616 19.9764C95.2973 20.2487 95.0593 20.56 94.8392 20.91C94.4016 21.6103 94.1255 22.3316 94.0138 23.0677C93.9962 23.2203 93.9845 23.3729 93.9758 23.5285C93.9668 23.681 93.9668 23.8338 93.9698 23.9894C93.9758 24.142 93.9904 24.2915 94.0198 24.4352C94.0492 24.5818 94.0902 24.7255 94.143 24.8661C94.2458 25.1444 94.375 25.3898 94.5278 25.6022C94.6072 25.7069 94.6981 25.8027 94.8068 25.8895C94.9125 25.9763 95.0329 26.051 95.1651 26.1198C95.3001 26.1827 95.4411 26.2336 95.5909 26.2635C95.7407 26.2965 95.9021 26.3114 96.0696 26.3114C96.3691 26.3114 96.6804 26.2576 96.9976 26.1529C97.1591 26.102 97.3117 26.0391 97.4645 25.9703C97.6143 25.9015 97.7611 25.8236 97.9021 25.7429C98.0459 25.6592 98.1899 25.5633 98.3367 25.4585C98.4836 25.3509 98.6332 25.2342 98.789 25.1026C99.1002 24.8391 99.3734 24.5848 99.6142 24.3395C99.8549 24.0942 100.113 23.8128 100.389 23.4987C100.527 23.34 100.651 23.1933 100.765 23.0557C100.877 22.921 100.98 22.7954 101.068 22.6817C101.159 22.5678 101.253 22.4483 101.353 22.3197C101.453 22.1908 101.555 22.0532 101.664 21.9096C101.711 21.8347 101.74 21.766 101.752 21.6972C101.767 21.6313 101.761 21.5684 101.74 21.5056C101.696 21.3829 101.602 21.3141 101.455 21.2962C101.382 21.2871 101.317 21.2991 101.256 21.329C101.197 21.359 101.147 21.4099 101.103 21.4817C100.812 21.9455 100.407 22.4722 99.8902 23.0586C99.3734 23.6452 98.789 24.1898 98.134 24.6895C97.8081 24.9408 97.5086 25.1265 97.2383 25.2551C96.9682 25.3808 96.7274 25.4436 96.516 25.4436C96.3867 25.4436 96.2692 25.4197 96.1635 25.3718C96.0549 25.324 95.9608 25.2521 95.8787 25.1534C95.7965 25.0576 95.7318 24.9528 95.6791 24.8361C95.629 24.7224 95.5909 24.5968 95.5703 24.4622C95.5469 24.3245 95.5351 24.1899 95.5292 24.0552C95.5233 23.9175 95.5263 23.7829 95.5351 23.6452C95.5526 23.3729 95.5967 23.1364 95.6644 22.936L95.726 22.9091ZM95.9315 22.1131C96.1547 21.4936 96.4132 20.997 96.7069 20.6258C97.0006 20.2518 97.3294 20.0034 97.6965 19.8748C97.7963 19.8359 97.8874 19.8149 97.9725 19.8088C98.0577 19.803 98.134 19.8149 98.2046 19.8419C98.2722 19.8658 98.3338 19.9016 98.3837 19.9436C98.4366 19.9885 98.4806 20.0364 98.513 20.0962C98.5481 20.1531 98.5687 20.2159 98.5775 20.2877C98.5864 20.3566 98.5775 20.4373 98.557 20.5242C98.5364 20.6109 98.4983 20.7006 98.4483 20.7875C98.3955 20.8742 98.3278 20.9581 98.2486 21.0418C98.1576 21.1436 98.0519 21.2363 97.9314 21.3261C97.811 21.4129 97.6788 21.4936 97.532 21.5684C97.3851 21.6433 97.2502 21.7061 97.1238 21.76C96.9976 21.8108 96.8831 21.8528 96.7743 21.8827C96.6687 21.9156 96.5425 21.9484 96.4014 21.9874C96.2575 22.0263 96.0989 22.0683 95.9227 22.1131H95.9315ZM56.418 23.9702C55.8057 23.8347 55.0557 23.7519 54.1678 23.7218V22.323H56.8828C56.9131 22.5303 56.9453 22.732 56.9791 22.9275C57.0034 23.0681 57.0317 23.2231 57.0636 23.3929C57.0047 23.4406 56.9606 23.4773 56.9296 23.5037C56.8035 23.6116 56.7109 23.6926 56.6415 23.7549L56.7665 23.8995L56.7661 23.9005L56.6399 23.7547C56.6133 23.7785 56.5879 23.8033 56.5634 23.8287C56.5184 23.8713 56.4699 23.9185 56.418 23.9702ZM106.448 10.8408C106.181 8.82042 105.724 7.26612 105.075 6.17811C104.427 5.09021 103.703 4.28394 102.902 3.7594C102.101 3.23486 101.272 2.92396 100.414 2.8268C99.5556 2.72974 98.8024 2.68103 98.1542 2.68103H92.8346V21.988C92.7691 22.2316 92.7172 22.4794 92.6791 22.7313L92.6736 22.7306C92.6669 22.7747 92.6623 22.8188 92.6597 22.8625C92.651 22.9431 92.6445 23.0087 92.6401 23.0625C92.6388 23.0794 92.6334 23.1747 92.6248 23.3282H92.6244L92.6242 23.3312L92.6211 23.3309C92.6187 23.3746 92.6182 23.4178 92.6196 23.4606C92.6185 23.5103 92.6175 23.5674 92.617 23.6311C92.6161 23.7244 92.6168 23.812 92.6185 23.8967L92.6993 23.8955L92.701 23.9004L92.6131 23.9021C92.6141 23.9558 92.618 24.0087 92.6247 24.0607C92.6288 24.1345 92.634 24.2011 92.6402 24.259L92.6407 24.2588L92.6408 24.2599L92.6377 24.2602C92.6421 24.3012 92.6483 24.3417 92.6559 24.3814C92.6668 24.4588 92.6802 24.5368 92.6962 24.6147L92.6974 24.6144L92.6975 24.6155L92.6929 24.6164C92.7024 24.6635 92.7143 24.7093 92.728 24.7542C92.7427 24.816 92.759 24.878 92.7768 24.9402C92.7975 25.0126 92.8167 25.0769 92.8346 25.1328V32.1146C92.8346 32.9307 92.8918 33.6689 93.0063 34.3295C93.1207 34.9901 93.378 35.573 93.7785 36.0781C94.1789 36.5832 94.7604 36.9718 95.523 37.2438C96.2856 37.5158 97.2961 37.6906 98.5547 37.7683V39.2837H80.4794V37.7683C81.6998 37.6906 82.6913 37.5255 83.4539 37.273C84.2166 37.0204 84.7981 36.6511 85.1984 36.1655C85.5989 35.6798 85.8658 35.0969 85.9993 34.417C86.1327 33.7369 86.1995 32.9696 86.1995 32.1146V23.1434L86.302 22.9784C86.3988 22.8219 86.4697 22.7053 86.5133 22.6306C86.5727 22.5281 86.6296 22.4252 86.6836 22.3216L86.6839 22.3217L86.6885 22.3129L86.6911 22.3143C86.7153 22.2678 86.7366 22.2203 86.7554 22.1725L86.7692 22.1401L86.7723 22.1416C86.7984 22.0796 86.8197 22.0169 86.8367 21.9537L86.8407 21.9404L86.8423 21.9409L86.8431 21.9385L86.8454 21.9392C86.8675 21.8663 86.8837 21.7932 86.8944 21.7201L86.9 21.6859C86.918 21.5741 86.9268 21.4772 86.9268 21.3993C86.9268 21.3194 86.9203 21.2409 86.9082 21.1646C86.8862 21.0131 86.8462 20.8693 86.788 20.7315L86.771 20.7389L86.7704 20.7377L86.7885 20.7297C86.7508 20.641 86.7056 20.5578 86.6537 20.4809C86.5902 20.3781 86.5186 20.2865 86.4391 20.2054L86.4392 20.2053C86.365 20.1297 86.2845 20.0642 86.1995 20.0086V2.68103H81.6808C80.8037 2.68103 79.8695 2.72974 78.8779 2.8268C77.8865 2.92396 76.9523 3.22511 76.0751 3.73024C75.1981 4.23537 74.4449 5.04161 73.8157 6.14903C73.1866 7.25646 72.7766 8.82042 72.586 10.8408H71.3848V0.699442H107.649V10.8408H106.448ZM141.454 39.2837V37.7683C142.598 37.6906 143.514 37.5158 144.2 37.2438C144.886 36.9718 145.411 36.5929 145.773 36.1073C146.135 35.6215 146.374 35.0387 146.488 34.3587C146.602 33.6787 146.66 32.9307 146.66 32.1146V24.7822L146.7 24.7379C146.889 24.5326 146.878 24.5494 146.922 24.4989C146.94 24.479 147.009 24.399 147.139 24.2459L147.142 24.2487C147.178 24.2068 147.211 24.1634 147.241 24.1187L147.305 24.041L147.308 24.0434L147.311 24.0401L147.313 24.0422C147.335 24.0154 147.356 23.988 147.376 23.9602L147.531 23.7692L147.503 23.7459L147.503 23.7457L147.535 23.7725C147.559 23.7423 147.582 23.7114 147.604 23.6798L147.636 23.639L147.639 23.6413C147.663 23.6111 147.685 23.5801 147.707 23.5485C147.756 23.486 147.802 23.4276 147.843 23.3734L147.847 23.3762C147.871 23.3437 147.894 23.3105 147.916 23.2768C147.999 23.1707 148.013 23.1516 148.026 23.1344L148.089 23.051L148.091 23.052L148.102 23.0368L148.104 23.0387C148.126 23.0099 148.147 22.9808 148.166 22.951L148.34 22.7161L148.342 22.7183L148.344 22.7167L148.345 22.7182C148.361 22.697 148.376 22.6755 148.39 22.6537L148.398 22.6436L148.397 22.6431L148.397 22.6425L148.4 22.6443C148.466 22.5544 148.521 22.4592 148.564 22.3603C148.586 22.3157 148.607 22.2693 148.626 22.2205C148.676 22.098 148.714 21.9689 148.738 21.8283L148.744 21.8294C148.76 21.7376 148.767 21.6463 148.766 21.5565C148.768 21.4785 148.765 21.4008 148.757 21.3233C148.741 21.1686 148.703 21.0129 148.642 20.8564L148.639 20.8482L148.644 20.8461C148.62 20.7848 148.592 20.7262 148.562 20.6702C148.442 20.4299 148.275 20.23 148.06 20.0695C147.81 19.8826 147.526 19.771 147.206 19.7317C147.041 19.7118 146.869 19.7175 146.692 19.7498L146.691 19.7452L146.681 19.7471L146.681 19.746L146.66 19.7502V4.95424L141.184 17.9938C141.049 18.0989 140.933 18.1963 140.837 18.2847L140.837 18.2842L140.826 18.294L140.825 18.2925C140.805 18.3113 140.785 18.3306 140.767 18.3503C140.672 18.4407 140.578 18.5433 140.483 18.6482C140.448 18.6871 140.415 18.7276 140.381 18.7668C140.305 18.8549 140.231 18.9418 140.162 19.0311L140.162 19.0316L140.157 19.0273C140.126 19.0676 140.097 19.1093 140.07 19.1517C139.904 19.3729 139.753 19.5987 139.615 19.8287C139.448 20.1096 139.303 20.3919 139.178 20.6746L139.173 20.6727C139.161 20.7006 139.15 20.7288 139.139 20.7572C139.026 21.0256 138.929 21.3057 138.848 21.5963L138.846 21.5958L138.846 21.5969L138.845 21.5966C138.839 21.6183 138.833 21.64 138.828 21.6617C138.754 21.9404 138.696 22.2353 138.655 22.5446L138.654 22.5444L138.653 22.5487L138.65 22.5482C138.646 22.582 138.642 22.6154 138.64 22.6487C138.606 22.9309 138.591 23.2131 138.597 23.4943C138.6 23.6924 138.614 23.8824 138.636 24.0641L132.245 39.2837H130.872L126.122 28.3529C126.164 28.3473 126.206 28.3397 126.247 28.3303C126.595 28.266 126.966 28.0999 127.363 27.8325C127.689 27.6126 128.085 27.2892 128.552 26.8629L128.555 26.8662L128.559 26.8628L128.56 26.8641C128.577 26.8486 128.593 26.8326 128.61 26.8164C129.002 26.4575 129.403 26.0691 129.811 25.6528C130.199 25.2571 130.592 24.8323 130.989 24.3806L130.993 24.3845C131.01 24.3657 131.026 24.3466 131.041 24.3271L131.169 24.1793L133.79 30.2496L146.259 0.699442H158.271V2.21484C157.127 2.25378 156.212 2.41881 155.525 2.71019C154.839 3.00169 154.324 3.38049 153.981 3.8468C153.638 4.3131 153.409 4.8861 153.295 5.56615C153.18 6.2462 153.123 7.01353 153.123 7.86839V26.1335C153.072 26.2534 153.03 26.3664 152.998 26.4721C152.946 26.6393 152.908 26.8078 152.884 26.9784L152.881 26.978C152.874 27.0284 152.87 27.0786 152.868 27.1283C152.861 27.2002 152.855 27.2731 152.852 27.3467C152.847 27.46 152.847 27.5722 152.852 27.6828L152.951 27.6785L152.951 27.6794L152.847 27.684C152.85 27.7365 152.855 27.7882 152.862 27.8391C152.871 27.9257 152.883 28.0103 152.899 28.0928L152.9 28.0926L152.9 28.0937L152.896 28.0945C152.905 28.1416 152.916 28.1877 152.929 28.2327C152.947 28.3063 152.966 28.3771 152.988 28.4455L152.986 28.4461L152.996 28.4776L152.996 28.4778C153.002 28.4965 153.009 28.5151 153.016 28.5334C153.042 28.6059 153.075 28.6872 153.115 28.7769L153.113 28.7781L153.115 28.7832L153.113 28.7842L153.123 28.807V32.1146C153.123 32.9307 153.171 33.6689 153.266 34.3295C153.361 34.9901 153.581 35.5632 153.924 36.049C154.267 36.5346 154.782 36.9231 155.468 37.2146C156.155 37.5061 157.089 37.6906 158.271 37.7683V39.2837H141.454ZM123.629 22.6147L120.322 15.0049C120.411 14.9732 120.502 14.9392 120.596 14.9024V14.8968L120.598 14.8962L120.6 14.9025C120.648 14.8837 120.694 14.8626 120.739 14.8393C120.994 14.734 121.224 14.6254 121.428 14.513L121.433 14.5138L121.468 14.4935C121.701 14.3628 121.938 14.2046 122.18 14.0179L122.181 14.0187L122.187 14.014L122.19 14.0184C122.228 13.9893 122.264 13.9585 122.298 13.9265C122.392 13.8502 122.478 13.7744 122.557 13.699C122.682 13.5796 122.791 13.4651 122.887 13.3543L122.888 13.3551C122.921 13.3176 122.951 13.2789 122.979 13.2392C123.058 13.1412 123.131 13.044 123.198 12.9481L123.2 12.9496C123.232 12.9035 123.261 12.856 123.287 12.8076C123.347 12.7165 123.402 12.6252 123.454 12.5338L123.455 12.5341L123.461 12.5236L123.466 12.5263C123.489 12.4848 123.51 12.4426 123.529 12.3999C123.59 12.2847 123.648 12.1636 123.702 12.0371C123.783 11.8459 123.847 11.6708 123.894 11.5133C123.942 11.3486 123.984 11.1733 124.019 10.9891C124.047 10.8448 124.07 10.68 124.089 10.4964L124.094 10.4534L124.098 10.4538C124.102 10.4136 124.104 10.3736 124.105 10.334C124.108 10.27 124.108 10.2069 124.106 10.1446H124.105L124.105 10.1408L124.11 10.1406C124.106 10.0463 124.092 9.95449 124.072 9.86617C124.059 9.803 124.043 9.74043 124.024 9.67841C123.969 9.50177 123.887 9.33808 123.781 9.18934L123.784 9.1867L123.781 9.18221L123.783 9.18095C123.739 9.12019 123.692 9.06368 123.641 9.01177C123.577 8.9432 123.507 8.87958 123.432 8.821L123.434 8.81835C123.364 8.7638 123.29 8.71674 123.214 8.67735C123.163 8.6484 123.109 8.62151 123.054 8.59681L123.055 8.59484L123.051 8.59327L123.053 8.58945C122.991 8.56201 122.927 8.53951 122.864 8.52171C122.779 8.49426 122.695 8.47463 122.613 8.46199C122.455 8.43776 122.299 8.43693 122.144 8.45553L122.144 8.45414C122.114 8.4577 122.085 8.46234 122.056 8.46774C121.964 8.48347 121.875 8.50586 121.788 8.534C121.638 8.58236 121.495 8.65032 121.364 8.73509C121.23 8.82169 121.104 8.93392 120.989 9.06646L120.986 9.06394L120.985 9.0652L120.984 9.06439C120.935 9.12171 120.891 9.18167 120.852 9.24403C120.812 9.30628 120.772 9.3745 120.735 9.44893L120.73 9.44615C120.701 9.50312 120.677 9.56111 120.656 9.61969C120.629 9.69055 120.605 9.76754 120.584 9.85069L120.58 9.84953C120.551 9.96071 120.536 10.0722 120.533 10.1824C120.528 10.2403 120.523 10.2859 120.517 10.3188C120.512 10.348 120.496 10.4058 120.471 10.4912L120.471 10.4911C120.466 10.5084 120.461 10.5258 120.457 10.5431C120.445 10.5766 120.432 10.61 120.418 10.6435C120.399 10.6871 120.377 10.7306 120.352 10.7729C120.311 10.841 120.279 10.8909 120.255 10.9235C120.229 10.9591 120.191 11.006 120.141 11.0626L120.139 11.0611C120.125 11.0768 120.112 11.0928 120.099 11.1089C120.076 11.1332 120.057 11.1523 120.042 11.1652C120.013 11.1914 119.981 11.2172 119.944 11.2429L119.942 11.2391C119.917 11.2566 119.893 11.2749 119.87 11.2936C119.835 11.3179 119.807 11.3362 119.786 11.3487C119.726 11.3846 119.668 11.4165 119.614 11.4438C119.58 11.4603 119.51 11.4914 119.408 11.5346C119.334 11.5661 119.254 11.5971 119.171 11.6271L119.172 11.6307L119.171 11.6308L119.169 11.6249C119.134 11.6377 119.099 11.652 119.065 11.6673C119.008 11.6864 118.951 11.7044 118.895 11.7213L115.6 4.13819V9.56387C115.558 9.5641 115.516 9.56571 115.475 9.56858C115.336 9.57892 115.188 9.60663 115.03 9.65073L115.057 9.75006L115.054 9.7519L115.025 9.64611C114.954 9.66586 114.887 9.69066 114.822 9.72018C114.735 9.75464 114.65 9.79394 114.569 9.83782L114.58 9.86021L114.579 9.86088L114.566 9.83553C114.545 9.84667 114.526 9.86214 114.506 9.8742C114.414 9.9275 114.318 9.98631 114.222 10.0575L114.237 10.0789L114.237 10.0791L114.22 10.0559C114.131 10.1222 114.051 10.1972 113.981 10.279C113.89 10.3736 113.797 10.4796 113.701 10.5968L113.655 10.6531V9.09239C113.655 8.00438 113.646 7.05247 113.627 6.23643C113.608 5.42039 113.455 4.72108 113.169 4.13819C112.883 3.55543 112.416 3.09877 111.768 2.76856C111.119 2.43824 110.147 2.25378 108.851 2.21484V0.699442H121.034L129.544 20.4142L129.495 20.4644L129.508 20.4765L129.507 20.4767L129.493 20.462C129.423 20.5353 129.363 20.614 129.312 20.6968C129.264 20.7593 129.191 20.8516 129.092 20.9754C128.92 21.189 128.771 21.3695 128.655 21.5058L128.652 21.5034L128.648 21.5084L128.647 21.5076C128.636 21.5205 128.625 21.5338 128.614 21.5472L128.333 21.8715L128.332 21.8583C128.331 21.7786 128.325 21.6983 128.314 21.618C128.308 21.5745 128.302 21.5317 128.294 21.4901C128.424 21.3656 128.538 21.2255 128.639 21.071C128.778 20.8562 128.874 20.6277 128.927 20.3861L128.931 20.3871C128.948 20.3108 128.959 20.2345 128.963 20.1588C128.981 19.9936 128.98 19.8257 128.958 19.6558L128.909 19.662L128.908 19.6583L128.963 19.651C128.957 19.5996 128.947 19.5489 128.936 19.4993C128.911 19.375 128.878 19.2563 128.836 19.1437C128.775 18.981 128.691 18.8226 128.585 18.6699L128.588 18.6675C128.544 18.604 128.496 18.5453 128.444 18.4913C128.369 18.406 128.288 18.3274 128.2 18.2551C128.082 18.1585 127.947 18.072 127.793 17.9932L127.794 17.9908L127.789 17.9886L127.791 17.9854C127.745 17.9624 127.699 17.9419 127.653 17.9241C127.27 17.7579 126.878 17.7122 126.473 17.7894L126.473 17.7904L126.473 17.7905L126.472 17.7859C126.403 17.799 126.336 17.817 126.272 17.8395C125.941 17.9382 125.637 18.119 125.36 18.382L125.361 18.383L125.36 18.3847L125.357 18.3812C125.324 18.4119 125.294 18.4438 125.265 18.4767C125.2 18.5436 125.14 18.6134 125.085 18.6861L125.104 18.7006L125.102 18.7031L125.08 18.6856C125.047 18.7301 125.016 18.776 124.988 18.8231C124.932 18.9101 124.882 19.0011 124.838 19.0958L124.835 19.0943C124.809 19.1507 124.787 19.208 124.768 19.2658C124.732 19.3623 124.703 19.458 124.681 19.553C124.65 19.6928 124.632 19.8372 124.625 19.9862L124.621 19.986C124.617 20.0612 124.62 20.1355 124.627 20.2081C124.631 20.2955 124.64 20.3804 124.652 20.4628C124.656 20.4861 124.66 20.5091 124.664 20.5317C124.584 20.628 124.518 20.7339 124.466 20.8456L124.411 20.9245L124.427 20.9364L124.427 20.9373L124.406 20.9218C124.38 20.9597 124.356 20.9983 124.334 21.0376C124.293 21.102 124.256 21.1615 124.226 21.2152C124.197 21.2662 124.147 21.3657 124.074 21.5168L124.069 21.5142C124.05 21.5523 124.034 21.591 124.019 21.6301C123.977 21.7162 123.949 21.7763 123.933 21.8132C123.905 21.8793 123.863 21.9836 123.809 22.1204C123.758 22.2493 123.715 22.3639 123.681 22.4608C123.664 22.5111 123.646 22.5625 123.629 22.6147ZM115.6 16.6389V19.9136C115.52 19.9422 115.441 19.9765 115.362 20.0167C115.183 20.1081 115.026 20.2221 114.894 20.357L115.052 20.5193L115.052 20.5201L114.89 20.3548C114.826 20.4202 114.769 20.4902 114.719 20.5639C114.701 20.5893 114.683 20.6151 114.666 20.6417L114.666 20.6413C114.647 20.6675 114.634 20.6929 114.56 20.8095L114.557 20.8078L114.556 20.8095L114.555 20.8088L114.535 20.8404L114.535 20.8401C114.521 20.8604 114.509 20.881 114.497 20.9018L114.349 21.1163L114.339 21.1305C114.185 21.3527 114.153 21.4048 114.089 21.4943L114.084 21.4904C114.061 21.5234 114.039 21.5572 114.018 21.5913L113.987 21.6352L113.929 21.7172C114.049 21.2891 114.183 20.8349 114.332 20.3546C114.506 19.7936 114.679 19.2571 114.852 18.7451C115.06 18.1264 115.233 17.6309 115.37 17.2567C115.449 17.0421 115.525 16.8361 115.6 16.6389ZM115.6 25.5982V30.8324C115.6 31.8816 115.629 32.8239 115.686 33.6592C115.743 34.4946 115.934 35.2039 116.258 35.7866C116.582 36.3695 117.097 36.8261 117.802 37.1563C118.508 37.4866 119.509 37.6906 120.805 37.7683V39.2837H108.851V37.7683C110.109 37.6906 111.072 37.4866 111.739 37.1563C112.407 36.8261 112.883 36.3599 113.169 35.7575C113.455 35.1553 113.608 34.446 113.627 33.6301C113.646 32.8141 113.655 31.8816 113.655 30.8324V27.6632C113.684 27.6395 113.712 27.6147 113.739 27.5891C113.829 27.5152 113.911 27.445 113.987 27.3776C114.113 27.2666 114.223 27.1656 114.32 27.0721C114.35 27.0437 114.38 27.0171 114.407 26.9869C114.492 26.9021 114.576 26.8154 114.659 26.7269C114.766 26.612 114.873 26.4912 114.98 26.3645L114.983 26.3669C115.007 26.3383 115.03 26.309 115.051 26.2792C115.214 26.0873 115.389 25.87 115.577 25.6279L115.6 25.5982Z" fill="#B38C0A"/>
</svg>
