<svg width="18" height="25" viewBox="0 0 18 25" fill="none" xmlns="http://www.w3.org/2000/svg">
<path fill-rule="evenodd" clip-rule="evenodd" d="M3.78596 1.0408C3.50412 1.17704 3.51299 1.31271 3.9895 4.15891C4.35304 6.33015 4.42358 7.00094 4.38639 7.93282C4.34644 8.93354 3.97398 10.6345 3.3813 12.5225C2.55633 15.1506 2.07716 17.5491 1.32434 22.8182C1.10262 24.3701 1.07832 24.6181 1.13384 24.7628C1.21733 24.9803 1.26102 24.9831 4.51721 24.9831C6.77912 24.9831 7.62944 24.9679 7.72166 24.9259C7.93 24.831 8.57892 23.542 9.10857 22.171L9.3427 21.5649L9.3444 23.1246C9.34537 23.9824 9.35972 24.7196 9.37625 24.7628C9.46004 24.9811 9.49281 24.9831 12.9098 24.9831C16.4782 24.9831 16.3691 24.9924 16.4663 24.6809C16.4935 24.5938 16.5731 24.1516 16.6433 23.6983C16.7134 23.2449 16.8774 22.2304 17.0076 21.4437C17.4413 18.8247 17.4638 18.6258 17.4641 17.4195C17.4643 16.2407 17.4107 15.7841 17.1773 14.9785C16.781 13.6112 15.9705 12.208 14.2064 9.83512C12.9369 8.12763 12.8177 7.85064 12.8177 6.60739C12.8177 5.68497 12.8584 5.44885 13.3956 3.25714C13.6217 2.33447 13.8067 1.49894 13.8067 1.40037C13.8067 1.27474 13.7712 1.18558 13.6877 1.10218L13.5687 0.983154L8.73015 0.986451C5.44671 0.988682 3.85767 1.00614 3.78596 1.0408ZM16.3045 4.24376C16.0819 4.66106 15.9703 4.77946 15.6072 4.98315C15.3585 5.12269 15.2615 5.20429 15.2615 5.27406C15.2615 5.34383 15.3585 5.42543 15.6072 5.56497C15.9703 5.76865 16.0819 5.88705 16.3045 6.30436C16.4816 6.63629 16.5774 6.63706 16.7522 6.30785C16.9375 5.95905 17.1749 5.71658 17.5158 5.52788C17.714 5.4182 17.8067 5.33728 17.8067 5.27406C17.8067 5.21083 17.714 5.12991 17.5158 5.02024C17.1749 4.83154 16.9375 4.58907 16.7522 4.24027C16.5774 3.91105 16.4816 3.91183 16.3045 4.24376ZM7.82387 8.81422C7.9301 8.97641 7.8947 9.40734 7.76748 9.50038C7.52913 9.67468 7.30978 9.4965 7.30978 9.1286C7.30978 8.84831 7.41441 8.69224 7.60234 8.69224C7.70009 8.69224 7.76864 8.73001 7.82387 8.81422ZM0.862228 10.9598C0.62058 11.3523 0.575828 11.3999 0.29418 11.5645C0.143489 11.6525 0.0113684 11.7511 0.000604803 11.7835C-0.0102073 11.8159 0.125259 11.933 0.301695 12.0436C0.533016 12.1886 0.658059 12.3071 0.750083 12.4685C0.896264 12.7247 1.00458 12.8619 1.06072 12.8619C1.08211 12.8619 1.15866 12.7583 1.23081 12.6316C1.41471 12.3089 1.57641 12.1442 1.84312 12.0081C2.15755 11.8477 2.14368 11.7594 1.7704 11.5443C1.52065 11.4004 1.43755 11.3178 1.29767 11.0744C1.20434 10.912 1.09995 10.7681 1.06572 10.7547C1.02911 10.7404 0.945282 10.8249 0.862228 10.9598ZM15.2045 12.268C15.4192 12.5843 15.8916 13.3974 15.8916 13.4506C15.8916 13.4699 15.8425 13.5004 15.7825 13.5184C15.5279 13.5946 14.6718 14.0571 14.1615 14.394C13.2562 14.9918 12.4285 15.684 11.4775 16.6385C10.3607 17.7594 9.79458 18.5022 9.52981 19.1942L9.42964 19.4559H9.14658C8.33238 19.4559 7.08249 18.6255 5.35439 16.9363C4.50954 16.1106 3.41602 14.9312 3.39042 14.8182C3.36933 14.725 3.72443 13.3953 3.77044 13.3953C3.78959 13.3953 3.99929 13.4849 4.23633 13.5945C5.50431 14.1806 6.85194 14.4418 7.96627 14.3172C8.9827 14.2037 9.8579 13.9284 11.8074 13.1092C13.3742 12.4508 14.6305 12.0016 14.9322 11.9919C14.9807 11.9903 15.094 12.1052 15.2045 12.268Z" fill="#E37E76"/>
</svg>
