<svg width="19" height="25" viewBox="0 0 19 25" fill="none" xmlns="http://www.w3.org/2000/svg">
<path fill-rule="evenodd" clip-rule="evenodd" d="M8.19421 1.00266C8.1556 1.01026 7.96602 1.04177 7.77292 1.07273C6.64185 1.25419 5.40153 1.889 4.4819 2.75719C3.31427 3.85952 2.38289 5.63736 2.08462 7.33313C1.98796 7.88291 1.98857 8.89917 2.08593 9.41016C2.20857 10.0539 2.1994 10.0481 2.46069 9.64987C2.75705 9.19835 3.40054 8.55219 3.83124 8.27364C4.54402 7.81279 5.2684 7.5539 6.34396 7.37562C7.98544 7.10359 9.14202 6.66005 10.0166 5.96713C10.4975 5.58615 10.7788 5.2312 11.0964 4.60469C11.3347 4.13473 11.3704 4.08877 11.5749 3.98704C11.8431 3.85375 12.1021 3.87903 12.3162 4.0595C12.5132 4.22563 12.5372 4.28416 12.7115 5.02807C12.9757 6.15478 13.2809 6.956 13.6825 7.5773C13.7959 7.75257 14.1354 8.19143 14.4371 8.55257C14.7388 8.91371 15.1137 9.39914 15.2703 9.6313C15.4268 9.86346 15.5787 10.0534 15.6077 10.0534C15.6866 10.0534 15.8575 9.39712 15.9214 8.84861C16.0204 7.9989 15.9128 6.6963 15.6139 5.12651C15.4772 4.40817 15.3359 3.96922 15.0918 3.50363C14.8855 3.11041 14.4937 2.66677 14.2006 2.49469C13.6942 2.19733 12.9891 2.11807 12.3458 2.28611L12.027 2.36941L11.962 2.24353C11.8646 2.05489 11.5119 1.72527 11.2151 1.54554C10.8709 1.33706 10.1374 1.09013 9.67706 1.02766C9.35019 0.983334 8.3764 0.966871 8.19421 1.00266ZM11.7839 4.38781C11.7331 4.40099 11.6357 4.54897 11.5416 4.7558C10.8086 6.36729 9.11459 7.40906 6.55081 7.82484C5.79085 7.94805 5.31231 8.07459 4.85231 8.27388C2.77095 9.17565 1.7665 11.2272 2.22697 13.6359C2.44347 14.7685 3.06037 16.0272 3.87304 16.9948C4.18264 17.3635 4.3564 17.4335 4.51785 17.2548C4.60305 17.1604 4.60178 17.1491 4.45756 16.7248C4.206 15.9846 4.10438 15.0616 4.19865 14.3726L4.22871 14.1527L4.40986 14.6358C4.77236 15.6022 5.21429 16.3898 5.68904 16.9153L5.91387 17.1642L5.88718 17.6188C5.83649 18.482 5.45007 19.231 4.80171 19.7228C4.43275 20.0027 4.46542 19.987 2.21625 20.9628C1.1436 21.4281 0.206697 21.8395 0.134235 21.8771C-0.0210805 21.9576 -0.0468261 22.1664 0.0843823 22.282C0.391315 22.5524 2.10517 23.4229 3.13981 23.834C5.03449 24.5867 6.62655 24.9214 8.5744 24.9763C10.9921 25.0446 13.2094 24.6035 15.6052 23.5778C16.5136 23.1889 17.9127 22.4702 18.1296 22.2812C18.2351 22.1893 18.2344 22.0251 18.1282 21.9289C18.0825 21.8873 17.1432 21.4613 16.041 20.9822C14.9389 20.5031 13.9377 20.0606 13.8161 19.9989C13.4771 19.8268 13.1265 19.5278 12.8965 19.2147L12.6879 18.9309L13.099 18.7253C14.4816 18.0337 15.5441 16.5409 15.9252 14.7545C16.0056 14.3773 16.0279 14.114 16.029 13.5241C16.0307 12.7082 15.9886 12.4103 15.7706 11.695C15.4855 10.7592 15.0852 10.0818 14.1247 8.91C13.4873 8.13228 13.1774 7.67898 12.9389 7.1754C12.7121 6.69654 12.4307 5.83576 12.2664 5.11844C12.1641 4.67124 12.1038 4.49822 12.0289 4.43697C11.9738 4.3918 11.9152 4.35733 11.8987 4.36033C11.8823 4.36333 11.8306 4.37567 11.7839 4.38781ZM11.9663 7.71331C12.1659 8.34076 12.5528 9.15089 13.0165 9.91271C13.3823 10.5136 13.5837 10.9252 13.7836 11.4805L13.9082 11.8265L13.8122 12.3939C13.6329 13.4545 13.3178 14.4842 12.9212 15.3064C12.233 16.7327 11.2263 17.6503 10.0306 17.9408C9.57871 18.0507 8.61457 18.0373 8.14066 17.9146C6.95267 17.6071 5.89172 16.6097 5.21958 15.1685C5.00374 14.7058 4.68824 13.7979 4.59027 13.3577C4.53335 13.1019 4.53512 13.092 4.69723 12.7714C5.04526 12.0834 5.64274 11.3628 6.31877 10.8159C6.51355 10.6583 7.57267 9.93222 8.67247 9.20229C10.7497 7.82363 11.2105 7.46347 11.5307 6.96819L11.6816 6.73495L11.741 6.96369C11.7737 7.08948 11.8751 7.42684 11.9663 7.71331ZM14.2179 14.1994C14.1745 15.3169 13.9898 16.0658 13.5418 16.9405C13.3087 17.3955 13.0247 17.8034 12.6951 18.1565L12.4812 18.3857L12.4176 18.2061C12.3827 18.1074 12.3419 17.832 12.327 17.5941L12.2999 17.1616L12.5105 16.9141C13.1662 16.1432 13.783 14.8943 14.0728 13.75C14.1198 13.5648 14.178 13.4254 14.2022 13.4404C14.2286 13.4568 14.2349 13.7603 14.2179 14.1994Z" fill="#E37E76"/>
</svg>
