<svg width="255" height="213" viewBox="0 0 255 213" fill="none" xmlns="http://www.w3.org/2000/svg">
<path opacity="0.1" fill-rule="evenodd" clip-rule="evenodd" d="M199.115 301.668C201.151 297.573 203.129 292.702 203.511 290.842C203.893 288.983 205.342 285.634 206.73 283.4C208.118 281.166 211.114 275.369 213.387 270.517C217.966 260.746 224.372 251.858 234.376 241.398C240.057 235.457 241.35 233.576 244.023 227.35C245.72 223.398 247.894 219.193 248.851 218.007C251.781 214.38 254.777 198.018 254.105 189.308C253.767 184.918 252.835 180.797 252.036 180.151C250.682 179.057 250.592 179.143 250.719 181.41C250.793 182.747 250.289 185.365 249.599 187.225C248.909 189.086 248.34 193.08 248.334 196.1C248.324 201.099 248.028 201.862 245.046 204.6C243.244 206.254 238.207 209.213 233.853 211.174C228.471 213.599 225.111 215.759 223.361 217.921C220.182 221.849 216.793 234.645 216.656 243.243C216.472 254.824 216.031 257.027 212.142 265.773C210.001 270.589 208.055 274.55 207.816 274.576C206.768 274.688 208.308 262.478 212.238 239.513C221.343 186.326 221.689 185.302 235.35 171.423C240.287 166.408 244.286 161.937 244.238 161.486C243.723 156.605 226.704 165.95 215.88 177.057C210.48 182.597 208.275 188.092 207.789 197.203C207.619 200.409 207.226 202.827 206.916 202.577C206.606 202.326 204.882 198.079 203.084 193.141C201.287 188.201 198.184 181.285 196.189 177.771C194.195 174.257 192.413 170.755 192.228 169.989C191.755 168.027 197.261 158.249 201.297 153.882C206.463 148.295 209.4 142.544 213.22 130.544C215.984 121.855 216.691 117.53 216.636 109.626C216.539 95.8763 217.09 91.0583 219.535 84.242C220.694 81.0097 221.314 77.8534 220.914 77.2268C220.37 76.3765 219.893 77.0969 219.026 80.0822C218.327 82.4847 216.905 84.8961 215.454 86.1381C213.703 87.6365 213.265 88.5855 213.854 89.6057C214.302 90.3779 214.299 91.4672 213.848 92.0248C212.357 93.8704 209.382 108.31 208.576 117.611C208.139 122.646 207.527 127.216 207.214 127.766C206.901 128.316 206.448 130.91 206.207 133.531C205.555 140.627 203.165 146.396 198.51 152.112L194.344 157.225L196.25 150.445C197.298 146.716 198.703 138.186 199.375 131.489C200.725 118.011 202.668 108.973 204.699 106.715L206.032 105.233L205.164 107.091C203.045 111.633 204.096 127.799 206.494 127.543C206.939 127.495 206.766 126.065 206.112 124.364C204.392 119.901 205.341 108.885 207.695 105.971C208.76 104.653 210.15 101.152 210.784 98.1921C211.417 95.2318 212.368 92.2751 212.896 91.6215C213.423 90.9686 213.484 90.1343 213.03 89.7675C212.569 89.3957 211.883 89.9213 211.48 90.9514C211.083 91.9704 209.584 94.9361 208.153 97.5423C200.177 112.055 199.815 113.227 198.191 129.799C197.063 141.313 193.522 156.559 190.918 161.12C189.193 164.141 189.052 164.188 187.727 162.188C186.965 161.038 183.373 156.294 179.744 151.648C176.116 147.002 172.82 142.677 172.419 142.036C171.893 141.195 173.555 140.125 178.419 138.17C182.118 136.684 185.928 134.499 186.885 133.315C188.802 130.941 192.468 116.479 191.886 113.582C191.641 112.358 192.783 110.182 195.341 106.999C205.065 94.9036 208.488 81.2763 206.797 61.392C205.804 49.7045 205.95 47.4063 207.921 43.7568C211.111 37.8471 211.442 31.8165 208.829 27.2159C206.224 22.6285 205.796 22.8285 206.827 28.1537C208.125 34.8592 205.777 41.8443 199.644 49.5177C193.107 57.6972 187.339 68.0361 185.913 74.1271C184.96 78.1978 184.73 78.5499 183.947 77.1415C182.021 73.6809 172.876 63.8169 167.609 59.5199C162.695 55.5106 161.708 54.1628 159.1 47.8995C157.479 44.003 155.753 39.5275 155.267 37.9543C154.167 34.3933 150.904 30.4459 148.848 30.1867C147.77 30.0501 147.957 30.805 149.462 32.6662C150.653 34.1373 151.772 36.0185 151.951 36.8463C152.131 37.674 152.903 38.4306 153.668 38.5272C154.516 38.6339 154.59 38.8658 153.86 39.1229C153.201 39.3547 152.838 40.0467 153.052 40.6605C153.268 41.2735 153.264 42.7216 153.043 43.8781C152.667 45.845 152.526 45.7914 150.846 43.0453C148.677 39.5011 136.981 29.8292 127.466 23.7117C119.84 18.808 117.437 18.6722 123.291 23.4761C127.918 27.274 131.72 33.7003 134.107 41.7547C136.01 48.1803 141.859 57.8719 145.712 60.9849C147.369 62.3233 147.769 63.569 147.288 65.9052C145.515 74.5326 149.84 89.0399 157.884 101.447C162.025 107.835 165.613 119.117 167.208 130.773C167.769 134.866 167.956 137.613 167.626 136.878C166.227 133.767 149.118 116.227 141.369 109.96C133.132 103.297 132.861 102.964 127.439 92.8351C124.399 87.1538 119.523 76.0053 116.605 68.0601C108.372 45.6454 100.204 32.9613 86.9627 22.0282C80.4045 16.6127 67.7376 9.67964 65.7069 10.3942C65.2527 10.5546 67.4148 13.0461 70.5128 15.9313C77.6975 22.6221 79.8923 26.2267 84.6477 39.1463C91.4209 57.5432 98.7351 68.6735 116.181 87.1305C119.592 90.7401 122.455 94.1026 122.544 94.6026C122.794 96.0235 109.93 84.6255 106.749 80.6093C105.183 78.6314 99.3851 70.1649 93.8645 61.794C70.4733 26.3226 53.2674 10.0455 35.1318 6.23319C32.7462 5.73052 30.5889 5.57487 30.338 5.88543C30.0865 6.19677 33.7968 9.61379 38.5826 13.4811C45.2147 18.8399 48.0904 21.7709 50.6748 25.8078L54.0658 31.1043L48.9085 27.2031C40.2542 20.6574 28.2349 13.5731 14.3731 6.84843C7.10921 3.32399 0.925442 0.467313 0.630223 0.498887C0.336392 0.530297 3.48632 3.66615 7.63125 7.46756C11.7768 11.2682 18.6367 18.2739 22.876 23.0346C35.4349 37.1398 46.9856 48.1383 58.0035 56.4845L68.3592 64.3292L63.1197 62.7626C60.2375 61.8998 54.3136 60.712 49.954 60.1212C45.5945 59.5317 40.4376 58.4388 38.4939 57.6929C33.0685 55.6127 23.9922 53.8634 24.7315 55.0417C25.0946 55.6192 27.6584 57.0247 30.4299 58.1654C33.5638 59.4555 38.4671 62.6614 43.4012 66.6473C50.495 72.3777 52.9212 73.7259 66.3211 79.3862C74.5639 82.8682 85.3101 86.8764 90.2021 88.2941C95.0942 89.7132 102.273 91.7864 106.154 92.9038C117.023 96.0315 123.174 99.895 138.976 113.515C146.647 120.126 153.51 126.583 154.228 127.863C155.339 129.843 154.888 129.681 151.211 126.78C145.427 122.215 128.783 111.924 121.389 108.341C113.79 104.657 95.6465 98.3275 86.1628 96.0508C79.2495 94.3915 78.4602 93.9586 72.2575 88.4386C65.0902 82.0587 63.8714 81.947 68.3992 88.0863C70.002 90.2591 73.9359 96.6827 77.1409 102.361C80.3458 108.04 84.3785 114.441 86.1022 116.586C87.8258 118.731 99.8954 129.364 112.924 140.215C125.952 151.067 137.672 161.123 138.968 162.564L141.324 165.184L138.118 164.546C131.108 163.152 99.6063 151.794 95.405 149.147C90.1404 145.829 85.383 140.43 72.437 123.084C64.0676 111.869 61.5505 109.144 51.5216 100.436C42.6145 92.7034 38.2639 89.5204 31.6355 85.8898C26.9691 83.3336 22.9354 81.5085 22.672 81.8346C22.4092 82.1598 24.733 84.8024 27.8364 87.7048C30.9391 90.608 34.5759 94.8296 35.9179 97.0847C37.2592 99.3406 40.8239 104.541 43.8382 108.642C46.8531 112.743 48.6239 115.535 47.7737 114.847C45.7337 113.196 11.6866 100.288 11.1067 100.946C10.8589 101.226 11.646 102.093 12.8548 102.874C14.0642 103.654 18.2179 108.302 22.0865 113.203C32.1214 125.919 43.751 135.18 55.1797 139.56C59.6951 141.291 66.0252 142.908 69.2469 143.154C75.9015 143.663 76.1608 143.748 84.7438 148.199C88.9459 150.379 90.3385 151.387 88.9179 151.219C76.2539 149.731 70.9089 149.79 58.7523 151.556C50.9734 152.685 41.5233 154.663 37.7513 155.951C33.9786 157.238 28.9256 158.636 26.5221 159.056C24.1186 159.475 22.1832 160.113 22.2212 160.473C22.2584 160.832 24.3444 161.879 26.8543 162.801C29.3648 163.722 31.8886 164.856 32.4625 165.32C33.0365 165.783 37.5665 167.049 42.5285 168.132C52.4664 170.302 55.2204 172.034 62.3677 180.608L66.443 185.497L61.3791 187.213C54.9267 189.4 54.3014 190.225 58.8888 190.5C65.5125 190.899 74.5605 194.208 79.1342 197.902C88.6273 205.571 107.576 212.815 119.561 213.357C125.402 213.621 137.761 211.823 153.568 208.408C158.569 207.328 163.055 206.493 163.539 206.555C164.021 206.616 167.686 211.038 171.681 216.382C175.677 221.727 180.619 227.81 182.665 229.903C184.711 231.994 186.118 233.735 185.793 233.769C185.468 233.804 183.125 232.948 180.585 231.866C155.203 221.056 145.853 218.246 130.457 216.804C125.152 216.307 117.227 215.351 112.848 214.68C108.067 213.948 101.934 213.989 97.4983 214.784C93.4358 215.512 90.5539 216.231 91.0941 216.382C91.6344 216.534 95.0443 217.256 98.6723 217.987C108.284 219.925 113.258 221.992 122.481 227.881C131.642 233.731 138.277 236.451 150.619 239.418C157.35 241.034 161.463 241.151 171.944 240.021C188.126 238.278 190.241 238.671 197.664 244.812C205.119 250.98 206.456 253.56 205.027 259.015C204.395 261.424 203.387 268.43 202.787 274.586C201.593 286.834 199.026 294.938 193.788 303C191.913 305.886 190.672 308.482 191.028 308.77C192.089 309.627 196.558 301.842 200.063 293.031C202.269 287.484 203.589 281.75 204.109 275.457C204.967 265.081 206.393 257.274 207.452 257.161C207.834 257.12 207.829 258.631 207.44 260.518C207.052 262.407 206.394 268.015 205.975 272.982C205.116 283.19 202.353 292.213 196.973 302.373C194.95 306.194 193.6 309.567 193.974 309.869C194.778 310.519 194.475 311.002 199.115 301.668ZM224.031 250.318C221.67 252.635 220.323 253.696 221.039 252.677C221.755 251.659 223.449 247.555 224.803 243.559C227.062 236.893 228.106 235.229 237.443 223.397C243.04 216.304 248.308 209.112 249.149 207.416C250.069 205.559 250.821 204.74 251.038 205.361C251.683 207.198 249.169 214.03 244.442 223.292C241.897 228.275 239.408 233.175 238.909 234.18C238.005 236.004 232.151 242.353 224.031 250.318ZM217.878 253.569C218.024 251.873 218.112 247.913 218.074 244.769C218.037 241.625 218.954 234.923 220.112 229.875C222.634 218.891 224.682 216.443 235.288 211.739C239.086 210.055 243.89 207.455 245.962 205.961C249.728 203.248 249.729 203.248 248.396 206.008C247.663 207.527 242.548 214.444 237.03 221.378C226.832 234.191 225.517 236.589 219.117 254.028C218.182 256.573 217.639 256.372 217.878 253.569ZM207.083 254.719C207.123 253.438 206.226 251.189 205.09 249.72L203.022 247.048L205.627 249.021C207.978 250.803 208.274 250.779 208.656 248.777C208.888 247.557 209.257 246.703 209.475 246.879C209.991 247.296 208.423 255.249 207.624 256.263C207.286 256.694 207.042 255.999 207.083 254.719ZM249.61 195.246C249.55 192.962 250.136 189.511 250.91 187.576L252.32 184.059L252.797 187.811C253.216 191.098 252.051 196.12 250.297 198.585C249.98 199.032 249.671 197.53 249.61 195.246ZM196.141 238.722C182.858 226.228 170.597 210.158 160.22 191.641C156.045 184.191 151.92 176.835 151.056 175.294C149.509 172.54 149.614 172.55 157.55 175.958C168.697 180.742 184.105 189.269 189.543 193.662C192.039 195.678 196.282 200.008 198.971 203.284C203.757 209.114 203.912 209.543 206.334 223.63C208.469 236.049 208.849 248.285 207.105 248.472C206.81 248.503 201.876 244.116 196.141 238.722ZM209.37 236.352C208.958 232.259 207.633 222.743 206.428 215.206C204.51 203.213 203.419 199.731 197.688 187.323C194.087 179.524 188.418 168.681 185.09 163.228C178.434 152.32 178.213 151.039 184.592 160.333C187.949 165.223 188.973 166.227 190.189 165.815C191.352 165.42 191.457 165.589 190.667 166.586C189.622 167.905 190.694 170.663 195.64 179.377C198.433 184.296 201.378 191.599 205.233 203.169C208.173 211.99 211.841 241.15 210.309 243.51C210.206 243.668 209.784 240.447 209.37 236.352ZM212.188 229.233C212.238 227.866 212.589 223.542 212.967 219.624C213.346 215.706 213.765 209.134 213.899 205.018C214.292 192.919 214.716 190.81 218.105 184.111C220.503 179.372 222.922 176.083 227.556 171.255L233.783 164.767L229.737 171.038C222.238 182.66 217.301 198.635 214.088 221.672C212.801 230.898 212.01 234.045 212.188 229.233ZM188.584 238.021C186.757 237.671 179.318 237.98 172.051 238.706C161.553 239.757 157.148 239.622 150.61 238.051C139.724 235.435 130.873 231.728 122.104 226.113C118.149 223.581 112.944 220.795 110.536 219.924C108.128 219.052 106.137 218.143 106.111 217.903C106.048 217.3 118.319 220.649 130.125 224.457C135.533 226.2 142.986 228.011 146.689 228.479C163.625 230.623 178.818 233.422 183.596 235.28C186.466 236.395 189.347 237.001 189.997 236.624C190.717 236.206 192.404 236.98 194.319 238.607C197.266 241.11 197.288 241.194 194.682 239.966C193.155 239.246 190.41 238.371 188.584 238.021ZM210.186 212.294C207.858 202.115 209.096 189.137 213.04 182.38C214.626 179.662 226.17 168.836 227.652 168.678C227.868 168.654 225.334 172.019 222.02 176.154C215.285 184.557 213.054 189.413 212.938 195.922C212.894 198.351 212.652 201.404 212.4 202.709C212.148 204.012 212.024 208.198 212.124 212.008C212.226 215.82 212.202 219.069 212.073 219.23C211.944 219.389 211.094 216.269 210.186 212.294ZM227.689 176.713C227.591 175.791 236.813 164.591 239.035 162.93C243.788 159.381 242.01 162.334 235.016 169.612C231.013 173.776 227.715 176.972 227.689 176.713ZM180.066 235.921C178.944 235.014 168.512 234.176 165.533 234.754L162.672 235.308L165.899 235.258C167.674 235.23 171.733 235.485 174.918 235.825C178.104 236.164 180.421 236.208 180.066 235.921ZM201.294 203.695C200.165 202.264 196.325 198.294 192.761 194.873L186.282 188.653L194.195 195.472C201.463 201.735 204.403 204.989 203.643 205.93C203.48 206.131 202.423 205.125 201.294 203.695ZM177.99 173.599C173.465 163.702 168.348 145.302 170.07 145.118C171.07 145.011 180.126 157.484 185.074 165.783C187.514 169.873 192.308 179.066 195.728 186.211L201.947 199.202L183.073 184.713L177.99 173.599ZM177.621 222.021C177.204 221.276 177.535 221.241 178.467 221.932C179.309 222.557 179.618 223.108 179.153 223.158C178.689 223.208 177.998 222.696 177.621 222.021ZM128.027 222.254C121.093 220.098 112.475 217.701 108.874 216.929C100.014 215.027 102.687 214.397 112.8 216.005C117.287 216.717 125.217 217.724 130.424 218.24C143.617 219.549 149.292 220.909 160.964 225.558C166.54 227.779 171.764 229.846 172.572 230.15C173.381 230.455 166.525 229.685 157.338 228.439C147.164 227.059 135.705 224.641 128.027 222.254ZM175.152 218.747C174.736 218.002 175.067 217.967 175.998 218.658C176.84 219.283 177.149 219.834 176.685 219.884C176.22 219.934 175.53 219.422 175.152 218.747ZM169.177 210.575C166.255 206.202 165.094 205.058 163.58 205.06C162.146 205.062 161.993 204.944 162.965 204.587C163.69 204.321 163.97 203.237 163.602 202.125C163.172 200.828 163.257 200.574 163.846 201.394C170.788 211.061 174.518 216.709 173.778 216.433C173.276 216.245 171.206 213.609 169.177 210.575ZM179.563 185.498C178.42 184.52 178.065 183.895 178.773 184.112C179.482 184.328 180.122 184.027 180.197 183.443C180.394 181.894 181.631 183.168 181.838 185.134C182.086 187.481 181.91 187.509 179.563 185.498ZM161.375 174.215L145.973 167.001L140.57 160.411C137.598 156.787 133.479 150.356 131.416 146.12C125.059 133.066 120.097 127.042 104.83 113.841L91.2832 102.127L102.425 108.905C108.554 112.632 117.339 118.135 121.948 121.133C126.556 124.131 133.031 128.221 136.335 130.222C139.64 132.223 142.892 134.284 143.561 134.801C144.229 135.318 148.633 136.275 153.347 136.927C159.398 137.764 162.775 138.797 164.829 140.443C166.537 141.81 167.439 143.146 167.01 143.677C166.609 144.173 166.665 144.538 167.136 144.489C167.607 144.438 168.942 148.909 170.103 154.424C171.264 159.939 173.944 168.218 176.058 172.823C178.87 178.947 179.483 181.228 178.34 181.314C177.481 181.377 169.846 178.183 161.375 174.215ZM153.44 205.178C144.54 206.195 135.603 205.109 126.879 201.946C123.756 200.814 120.94 199.677 120.621 199.42C119.06 198.158 124.426 196.039 130.807 195.398C134.737 195.003 139.32 194.255 140.989 193.735C146.268 192.093 164.511 200.571 162.106 203.548C161.794 203.935 157.894 204.668 153.44 205.178ZM174.071 182.011C173.712 181.366 174.29 181.542 175.354 182.402C176.417 183.261 176.71 183.788 176.005 183.573C175.299 183.358 174.429 182.655 174.071 182.011ZM203.043 147.998C206.543 142.08 208.101 135.427 209.629 119.866C210.812 107.828 214.04 92.3015 215.39 92.1571C215.812 92.1113 215.946 93.1845 215.687 94.5403C215.428 95.8975 215.297 101.169 215.397 106.255C215.603 116.754 215.138 119.548 211.054 132.339C207.464 143.584 207.149 144.258 203.257 149.066L200.124 152.934L203.043 147.998ZM175.135 173.306C173.353 169.535 170.842 161.624 169.557 155.724C168.272 149.826 166.96 145.321 166.643 145.714C165.84 146.707 169.315 161.79 172.173 169.724C174.222 175.411 177.544 181.354 178.172 180.455C178.285 180.294 176.918 177.077 175.135 173.306ZM161.302 199.005C160.664 198.49 160.414 197.73 160.748 197.317C161.081 196.905 161.713 197.19 162.154 197.95C162.594 198.711 162.843 199.471 162.708 199.638C162.573 199.805 161.94 199.521 161.302 199.005ZM151.647 192.41C137.382 184.868 132.7 182.735 123.551 179.612C111.44 175.48 102.328 174.44 93.1955 176.147C86.9191 177.322 85.6389 177.177 80.9412 174.759C77.8154 173.15 73.0536 171.814 69.1561 171.451L62.6171 170.843L73.82 169.794C82.9633 168.936 87.0709 167.872 96.1579 164.005C102.282 161.398 108.638 159.282 110.283 159.303C111.927 159.323 120.545 161.959 129.434 165.159L145.596 170.977L151.241 181.395C154.345 187.126 157.341 192.487 157.899 193.31C159.602 195.823 157.543 195.527 151.647 192.41ZM132.005 210.941C116.711 212.812 108.338 211.348 101.562 205.617L97.3425 202.048L104.238 201.513C109.174 201.129 113.444 201.719 119.253 203.586C123.718 205.022 130.175 206.436 133.602 206.728C137.029 207.02 140.351 207.678 140.985 208.191C141.619 208.702 142.985 208.798 144.021 208.403C145.057 208.009 145.61 208.07 145.25 208.543C144.89 209.014 138.93 210.094 132.005 210.941ZM124.633 186.726C111.786 185.144 96.5929 185.146 84.8863 186.732C79.7681 187.425 72.2815 188.207 68.249 188.469C62.3813 188.851 61.6616 188.729 64.6451 187.859C66.6943 187.261 71.9291 185.154 76.277 183.177C93.2313 175.468 106.148 174.971 124.168 181.335C132.721 184.356 146.266 190.52 148.032 192.195C148.304 192.454 145.389 191.604 141.553 190.308C137.716 189.011 130.103 187.399 124.633 186.726ZM177.223 151.307C176.806 150.562 177.138 150.527 178.069 151.217C178.911 151.843 179.22 152.394 178.755 152.444C178.291 152.494 177.601 151.982 177.223 151.307ZM173.981 147.409C173.564 146.664 173.896 146.628 174.827 147.319C175.669 147.944 175.978 148.496 175.513 148.545C175.049 148.595 174.359 148.084 173.981 147.409ZM129.62 194.184C125.817 194.234 122.911 194.977 121.218 196.333C117.465 199.34 101.347 201.104 93.239 199.395C86.4366 197.963 69.3788 191.648 69.2588 190.52C69.1579 189.558 93.0979 186.979 102.677 186.921C115.859 186.84 138.363 189.434 140.673 191.3C141.859 192.258 134.739 194.117 129.62 194.184ZM119.536 202.398C115.446 201.116 114.595 200.61 116.037 200.32C117.085 200.108 120.194 200.827 122.944 201.919C125.695 203.01 128.604 204.156 129.41 204.464C132.5 205.645 124.678 204.008 119.536 202.398ZM185.539 131.074C186.977 126.975 186.977 126.994 185.627 121.604C185.146 119.688 185.229 118.517 185.811 119.003C188.46 121.214 188.246 130.098 185.464 133.413C184.723 134.295 184.755 133.309 185.539 131.074ZM148.122 170.223C147.4 169.663 147.751 169.535 149.028 169.892C150.175 170.213 151.801 171.049 152.641 171.749C153.87 172.772 153.693 172.837 151.735 172.079C150.397 171.561 148.77 170.726 148.122 170.223ZM206.533 104.997C205.923 104.505 207.769 99.3403 208.586 99.2529C208.975 99.2113 208.953 100.281 208.536 101.631C207.646 104.517 207.091 105.448 206.533 104.997ZM180.111 134.684C178.546 135.373 176.426 135.948 175.4 135.962C173.882 135.984 173.71 135.587 174.477 133.843C176.109 130.136 182.836 120.411 183.435 120.895C183.75 121.149 184.426 122.858 184.938 124.694C185.743 127.584 185.476 128.937 183.35 132.729C183.133 133.116 181.675 133.996 180.111 134.684ZM171.513 144.135C171.096 143.39 171.428 143.354 172.359 144.045C173.201 144.67 173.51 145.222 173.045 145.271C172.581 145.321 171.89 144.81 171.513 144.135ZM187.908 119.389C187.426 118.245 187.346 116.92 187.731 116.443C188.117 115.966 188.618 116.769 188.847 118.227C189.075 119.685 189.154 121.011 189.024 121.173C188.893 121.335 188.391 120.532 187.908 119.389ZM169.976 139.459C169.829 139.341 169.679 137.924 169.643 136.311L169.577 133.378L170.126 136.259C170.641 138.966 170.595 139.959 169.976 139.459ZM160.413 132.431C157.048 128.563 150.713 121.997 146.337 117.841L138.381 110.285L147.096 117.693C155.205 124.589 170.32 140.88 167.699 139.901C167.057 139.661 163.779 136.3 160.413 132.431ZM187.63 113.404C187.417 112.797 188.316 110.973 189.626 109.35C194.374 103.474 200.623 90.8459 202.498 83.3426C204.262 76.2864 205.268 57.1538 203.868 57.3028C203.526 57.3401 203.219 61.4577 203.185 66.4539C203.127 75.1653 200.672 87.6793 197.875 93.5215C196.073 97.2874 196.142 96.0143 198.108 89.2321C199.86 83.1889 200.786 76.9893 201.008 69.817C201.082 67.4133 201.481 62.4615 201.894 58.8136C202.879 50.1377 204.397 51.7378 205.641 62.7617C207.219 76.7612 205.226 88.4439 199.542 98.5063C195.825 105.087 188.101 114.747 187.63 113.404ZM172.266 130.893C172.243 129.211 171.972 128.123 171.665 128.473C171.358 128.824 170.152 121.609 168.983 112.44C167.815 103.271 165.84 91.3945 164.594 86.0477C161.401 72.3553 156.159 46.344 156.506 45.9142C157.132 45.1397 159.591 52.0896 160.325 56.7093C160.752 59.3921 162.742 65.9647 164.748 71.3145C170.555 86.8062 171.457 91.7907 170.832 104.955C170.254 117.121 171.004 129.238 172.24 127.709C172.589 127.276 172.62 125.023 172.307 122.703C171.993 120.383 171.889 114 172.074 108.517C172.259 103.035 172.2 95.8887 171.944 92.6352L171.478 86.7196L174.474 92.5039C176.122 95.6858 178.444 100.742 179.634 103.741C180.824 106.74 182.136 109.21 182.55 109.23C182.964 109.251 182.934 109.361 182.485 109.474C182.036 109.587 181.767 111.012 181.888 112.643C182.068 115.061 177.219 125.992 172.764 133.215C172.516 133.619 172.291 132.574 172.266 130.893ZM138.845 166.675C138.4 166.356 138.831 166.177 139.803 166.28C140.775 166.383 142.077 166.907 142.695 167.447C143.884 168.481 140.375 167.778 138.845 166.675ZM116.138 194.326C114.026 194.199 111.727 194.296 111.029 194.542C110.331 194.787 111.488 195.092 113.599 195.219C115.712 195.346 118.011 195.249 118.709 195.004C119.407 194.758 118.25 194.453 116.138 194.326ZM186.502 108.958C186.912 108.05 186.773 107.246 186.19 107.173C185.608 107.1 185.778 106.664 186.57 106.205C188.082 105.329 189.201 99.2026 187.822 99.3508C187.383 99.3977 187.016 98.4308 187.008 97.2033C186.999 95.8557 186.852 95.6181 186.638 96.6047C186.443 97.5036 186.079 95.1934 185.829 91.4721C185.025 79.4878 188.59 66.9605 195.468 57.6053C198.975 52.8349 201.717 51.965 200.943 55.8693C200.66 57.2992 200.189 62.8842 199.896 68.2788C199.195 81.2003 196.505 93.0312 192.275 101.798C191.124 104.183 185.517 111.138 186.502 108.958ZM186.146 103.322C186.19 101.991 186.534 100.541 186.912 100.102C187.29 99.6609 187.563 100.391 187.521 101.722C187.477 103.054 187.133 104.503 186.755 104.943C186.377 105.384 186.104 104.654 186.146 103.322ZM178.396 97.0092C175.721 91.6913 172.956 86.8643 172.251 86.2831C171.149 85.375 164.796 68.9525 164.323 65.7873C164.232 65.1806 164.873 65.456 165.746 66.3985C173.915 75.2142 177.278 79.5026 180.752 85.5303C184.377 91.8179 184.767 93.2945 184.473 99.5702C184.292 103.427 183.946 106.605 183.702 106.631C183.459 106.657 181.072 102.327 178.396 97.0092ZM150.914 135.119C147.617 134.414 142.821 132.519 140.256 130.908C137.69 129.297 131.779 125.578 127.119 122.643C111.501 112.805 91.3778 100.458 89.5146 99.5698C87.8413 98.7723 87.859 98.7124 89.7091 98.9334C93.3883 99.3727 127.592 116.778 141.118 125.093C148.398 129.571 155.534 133.888 156.975 134.688C160.422 136.604 158.497 136.741 150.914 135.119ZM87.2003 201.332L82.647 198.266L87.3751 199.606C92.0757 200.94 95.2815 202.756 98.732 206.046C101.478 208.661 92.8479 205.134 87.2003 201.332ZM167.047 119.398C166.811 117.676 166.371 116.069 166.07 115.826C165.769 115.583 164.92 113.476 164.182 111.145C163.445 108.813 160.799 103.532 158.303 99.4099C148.365 82.9994 146.622 74.4813 150.204 59.8557C151.469 54.6946 153.019 49.2341 153.651 47.721C154.769 45.0443 154.811 45.0398 155.202 47.5459C155.424 48.9613 155.098 50.2989 154.478 50.5165C153.858 50.735 153.915 50.9843 154.603 51.0706C155.292 51.1576 156.332 53.8837 156.912 57.1288C157.494 60.3745 159.118 67.8517 160.523 73.7462C165.24 93.5488 169.435 120.104 168.106 121.749C167.76 122.178 167.283 121.119 167.047 119.398ZM121.021 111.995C114.806 108.809 108.255 105.565 106.464 104.786C104.671 104.008 103.182 103.14 103.152 102.858C103.078 102.157 117.989 108.23 124.026 111.358C130.383 114.653 150.179 127.29 153.587 130.228C155.038 131.479 150.846 129.191 144.272 125.145C137.699 121.098 127.235 115.181 121.021 111.995ZM183.529 88.0204C182.765 84.6181 175.837 75.0271 169.364 68.4109C164.352 63.2885 162.426 60.6819 162.172 58.6798C161.828 55.9705 161.859 55.9785 165.368 59.4708C167.316 61.4107 171.185 65.1666 173.964 67.8178C181.564 75.0656 183.776 78.606 184.112 84.0544C184.417 89.0066 184.154 90.7994 183.529 88.0204ZM96.076 124.626C87.9227 116.649 82.4835 109.925 79.6697 104.347L78.04 101.115L80.4538 103.666C81.7814 105.068 89.8774 112.136 98.4453 119.37C112.958 131.624 129.31 148.201 131.475 152.854C132.618 155.31 104.617 132.981 96.076 124.626ZM126.032 142.868C123.096 139.148 114.949 131.548 101.299 119.794C83.1305 104.151 73.2359 94.2563 72.9374 91.4311C72.8062 90.1899 99.4968 110.32 107.169 117.249C111.241 120.926 116.644 126.506 119.177 129.65C123.429 134.927 131.719 148.276 130.807 148.374C130.588 148.397 128.44 145.919 126.032 142.868ZM198.807 59.4926C200.545 54.3546 199.817 53.7864 197.966 58.8347C197.037 61.366 196.42 63.5511 196.592 63.6905C197.063 64.0704 197.611 63.0303 198.807 59.4926ZM206.113 42.3588C206.993 40.1306 207.99 36.3284 208.326 33.908L208.938 29.508L209.494 33.0868C210.066 36.7637 208.779 41.0223 206.056 44.4579C204.956 45.8441 204.973 45.2367 206.113 42.3588ZM98.5221 158.834C98.153 159.291 99.1371 159.606 100.708 159.534C102.815 159.438 101.278 160.407 94.8465 163.23C88.249 166.126 83.2386 167.371 74.2473 168.347C67.7125 169.058 62.2227 169.997 62.0468 170.435C61.8703 170.873 61.5449 170.713 61.3221 170.077C61.1001 169.442 57.4657 168.718 53.2468 168.469C47.0303 168.101 33.8446 165.156 32.0981 163.745C31.5891 163.334 36.1567 163.028 39.4645 163.252C46.5702 163.733 62.4742 162.16 72.8828 159.947C79.3224 158.577 87.9361 157.293 92.0244 157.091C96.1122 156.89 99.1024 156.439 98.6692 156.089C97.1153 154.834 86.8824 155.811 73.4009 158.503C55.2309 162.131 34.0159 163.175 32.3857 160.522C31.056 158.356 44.6972 154.752 61.5813 152.806C76.6557 151.069 80.0464 151.081 88.9288 152.896C94.5059 154.035 99.2389 155.455 99.4475 156.05C99.6561 156.644 101.257 157.338 103.006 157.591L106.185 158.051L102.689 158.028C100.766 158.016 98.8906 158.378 98.5221 158.834ZM77.1222 176.526C71.251 173.474 70.0649 172.198 74.4183 173.621C79.6788 175.339 84.4605 178.03 83.4295 178.69C82.9007 179.028 80.062 178.055 77.1222 176.526ZM70.3149 177.497L64.685 173.106L69.2283 174.565C71.7276 175.367 75.2193 176.863 76.9895 177.888C80.0441 179.659 80.0993 179.808 78.0755 180.821C76.1927 181.762 75.2879 181.374 70.3149 177.497ZM94.853 151.509C93.6243 150.485 93.8014 150.421 95.7591 151.178C99.0887 152.467 101.122 154.109 98.4663 153.365C97.3195 153.044 95.6939 152.208 94.853 151.509ZM65.2725 182.167C63.7538 180.449 61.624 177.614 60.5382 175.868L58.5663 172.693L63.3795 175.119C66.0278 176.454 69.578 178.664 71.2696 180.03L74.345 182.515L71.1893 183.904C68.2141 185.213 67.8761 185.114 65.2725 182.167ZM131.177 103.872C130.76 103.127 131.092 103.091 132.023 103.782C132.865 104.407 133.174 104.959 132.709 105.008C132.245 105.058 131.555 104.547 131.177 103.872ZM125.876 100.842C125.517 100.198 126.094 100.374 127.158 101.233C128.222 102.092 128.514 102.619 127.809 102.404C127.103 102.19 126.233 101.487 125.876 100.842ZM70.5523 135.161L65.9135 130.368L71.744 134.227C74.951 136.349 79.6648 139.771 82.2199 141.83L86.8653 145.573L81.0276 142.764C76.7662 140.713 73.9372 138.66 70.5523 135.161ZM145.616 58.9999C140.029 52.2868 137.23 47.3148 134.955 40.0593L132.474 32.1487L136.327 36.0826C138.445 38.2469 142.611 42.6015 145.583 45.7599L150.988 51.5025L149.857 55.8618C148.338 61.7237 148.056 61.9322 145.616 58.9999ZM62.321 125.321C52.712 117.761 46.7626 111.063 38.5562 98.5658L33.1105 90.2746L42.3341 98.4384C50.8771 106 63.2917 118.693 76.3726 133.24L81.7575 139.228L76.3373 135.657C73.3565 133.693 67.0489 129.042 62.321 125.321ZM141.34 38.9753C131.961 28.8546 131.788 28.5958 136.562 31.8353C141.358 35.0902 149.385 42.6327 151.564 45.9332C152.151 46.8215 152.28 47.9815 151.851 48.5121C151.253 49.2525 148.808 47.0345 141.34 38.9753ZM63.6872 135.498C52.4123 129.145 46.7743 125.32 30.2446 112.811C23.3309 107.579 21.5269 105.913 23.6541 106.728C25.2651 107.344 30.2407 109.018 34.7114 110.446C42.2068 112.84 43.5952 113.647 52.5414 120.813C61.4844 127.975 77.8143 143.033 75.6172 142.091C75.0948 141.868 69.7263 138.9 63.6872 135.498ZM115.826 75.4533C113.22 70.5469 109.013 62.4282 106.475 57.4113C99.9436 44.4991 91.3237 32.6083 81.3355 22.7312C71.8567 13.3578 73.3368 13.1713 84.9346 22.2777C99.0442 33.357 108.389 47.8682 116.273 70.9429C118.12 76.35 120.145 81.5519 120.772 82.5016C121.4 83.4513 121.609 84.2611 121.238 84.3007C120.866 84.3405 118.431 80.359 115.826 75.4533ZM111.495 80.0394C101.349 68.6069 95.3886 60.2633 91.1874 51.6104C86.4968 41.9493 81.4794 27.702 82.7205 27.5693C86.6332 27.1516 100.111 46.6888 109.992 67.1004C111.967 71.1819 114.731 76.6622 116.132 79.2789C117.98 82.7302 118.123 83.4225 116.652 81.8003C115.535 80.571 114.165 78.769 113.605 77.7958C112.922 76.6093 112.534 76.4478 112.425 77.3057C112.336 78.0094 113.827 80.5563 115.739 82.9663C121.267 89.9305 118.707 88.1651 111.495 80.0394ZM113.823 90.4174C113.683 89.0398 113.844 89.0234 114.607 90.3336C115.134 91.2409 115.214 92.0206 114.783 92.0667C114.353 92.1134 113.92 91.3714 113.823 90.4174ZM106.198 84.8237C106.009 83.0339 108 84.0339 110.263 86.8655L112.676 89.8863L109.479 87.7517C107.721 86.5769 106.245 85.2603 106.198 84.8237ZM54.8425 137.842C48.2145 135.019 44.381 132.712 38.7221 128.141C31.7699 122.524 21.0816 111.052 19.7867 107.816C19.4702 107.024 26.1153 111.607 34.5539 118C44.8405 125.793 53.1098 131.353 59.6458 134.872C71.684 141.352 71.843 141.491 67.261 141.52C65.2122 141.534 59.6244 139.878 54.8425 137.842ZM89.1498 81.2482C73.6669 73.3561 65.8738 69.8918 52.3841 64.9076C40.1444 60.3841 38.2931 59.5491 42.0349 60.2385C43.2587 60.4643 47.6043 61.1373 51.6916 61.7347C63.8188 63.5064 71.8414 66.6851 85.9952 75.3236C93.0941 79.6568 100.949 84.5849 103.449 86.276L107.996 89.3502L104.067 88.0998C101.907 87.4117 95.1931 84.3293 89.1498 81.2482ZM103.459 90.8451C103.039 90.5058 99.1339 89.3519 94.7817 88.2819C81.7757 85.0836 55.9748 74.1628 47.5405 68.2863C43.5403 65.4989 40.4385 63.006 40.6474 62.7474C41.477 61.7204 71.6946 74.1331 84.4095 80.7235C91.8305 84.5694 99.8054 88.3893 102.133 89.2123C104.459 90.0355 105.881 90.8783 105.292 91.0849C104.704 91.2929 103.879 91.1844 103.459 90.8451ZM72.0155 126.473C71.5986 125.728 71.9302 125.692 72.8614 126.383C73.7035 127.008 74.0123 127.56 73.5478 127.609C73.0833 127.659 72.3932 127.148 72.0155 126.473ZM59.4956 112.917C53.42 106.605 44.9909 98.5817 40.7637 95.0863C34.5954 89.9857 33.7912 89.098 36.6904 90.5901C41.7134 93.1747 50.0504 99.9581 57.4456 107.477C63.5569 113.691 72.0616 124.231 71.0514 124.339C70.7716 124.368 65.5719 119.229 59.4956 112.917ZM74.6428 64.9704C61.8899 59.6534 45.5091 46.1431 28.6045 26.9992C25.1214 23.0541 20.1856 17.7807 17.6362 15.2797C11.8578 9.61091 76.7986 60.7733 92.2342 74.05L103.547 83.7812L92.6813 75.8702C85.2516 70.4622 79.5465 67.0145 74.6428 64.9704ZM87.6593 67.5117C85.1058 65.1994 87.195 66.6798 92.3014 70.8022C97.4077 74.9246 99.4966 76.8168 96.9432 75.0075C94.3897 73.1982 90.2122 69.8249 87.6593 67.5117ZM82.8666 71.405L80.5742 69.4957L83.3721 70.7793C84.9111 71.485 87.7344 73.3305 89.6469 74.8793L93.1233 77.6965L89.1414 75.5051C86.9517 74.2994 84.1278 72.4546 82.8666 71.405ZM83.7342 60.4412C69.5317 48.0621 60.264 37.9671 53.128 27.1035C50.2075 22.6582 47.1058 18.4452 46.2348 17.7416C45.3639 17.038 45.0627 16.3174 45.5655 16.1412C47.0867 15.6064 61.4775 28.6227 70.0174 38.2578C84.63 54.745 91.686 63.7535 89.4863 63.1156C87.8624 62.6446 87.9324 62.8791 89.8532 64.3386C94.1649 67.6156 96.3566 69.738 95.9493 70.2422C95.7285 70.5156 90.2323 66.1052 83.7342 60.4412ZM87.3015 56.1851C86.0117 54.4303 80.5061 47.8224 75.067 41.5011C66.8657 31.972 62.8949 28.1513 51.8152 19.1331C39.2121 8.87403 38.6938 8.34786 42.6838 9.86626C48.8388 12.2095 64.9283 25.3873 71.782 33.6998C78.7654 42.1683 91.0715 59.2242 90.2614 59.3109C89.9229 59.3471 88.5906 57.9407 87.3015 56.1851ZM77.9195 68.5286C77.5026 67.7835 77.8342 67.7481 78.7653 68.4388C79.6075 69.0641 79.9162 69.6156 79.4517 69.6652C78.9872 69.7149 78.2971 69.2036 77.9195 68.5286ZM13.3273 8.23957C12.9151 7.37161 27.6592 15.1276 35.5924 19.9517C48.7635 27.9602 54.9586 33.2871 67.2742 47.1919L78.3045 59.6464L45.8915 34.1026C28.0644 20.0535 13.4103 8.41538 13.3273 8.23957ZM79.5229 23.7217C79.164 23.0773 79.7415 23.2533 80.8051 24.1125C81.8687 24.9716 82.1613 25.4986 81.4567 25.2839C80.7506 25.0693 79.8804 24.3663 79.5229 23.7217ZM27.601 23.5149C25.6866 21.9684 24.781 21.4865 25.5891 22.4451C26.3978 23.403 27.9634 24.6677 29.0699 25.257C30.177 25.8454 29.5154 25.0614 27.601 23.5149Z" fill="#4D4B50"/>
</svg>
