<svg width="159" height="260" viewBox="0 0 159 260" fill="none" xmlns="http://www.w3.org/2000/svg">
<path opacity="0.1" fill-rule="evenodd" clip-rule="evenodd" d="M14.2101 4.39091C13.2952 5.69978 10.6048 14.0524 6.5192 28.2692C1.65594 45.192 0.319108 50.6253 0.606736 52.3042C0.864223 53.8058 3.30894 59.1691 8.54807 69.7246L16.1176 84.9751L11.9385 87.2539C5.8161 90.5918 5.81329 90.1106 12.0168 102.609C16.5072 111.656 17.099 112.644 18.3822 113.231C20.348 114.132 23.1877 112.722 23.6594 110.612C23.9594 109.271 23.5674 108.224 20.302 101.645L16.6052 94.1972L41.9181 81.6333L67.2309 69.0695L81.3175 97.4503L95.4044 125.832L97.1262 126.411C99.23 127.119 100.862 126.386 101.86 124.284L102.614 122.7L87.1839 91.6133C68.9477 54.8722 71.3416 58.0897 64.5226 61.1541L60.1807 63.1047L53.4879 49.6205C47.0694 36.6889 46.7303 36.1058 45.2105 35.3838C42.9725 34.3201 40.1599 35.7161 39.6539 38.1418C39.3099 39.7889 39.569 40.411 46.011 53.39L52.7269 66.9206L38.1954 74.1332L23.664 81.3458L16.0578 65.9873L8.45166 50.6287L14.3949 30.1517C17.6632 18.8896 20.548 9.36195 20.8045 8.98052C21.0612 8.59839 21.7944 8.30167 22.4332 8.3211C23.5226 8.35471 23.9169 8.98332 28.7599 18.4039C33.8581 28.3212 33.9446 28.4554 35.4758 28.7966C37.4566 29.2385 39.4479 28.2501 40.2937 26.4053C40.9457 24.9833 40.8828 24.8072 36.2578 15.1171C31.186 4.49144 30.0033 2.76663 26.6325 1.08268C22.587 -0.93768 16.8713 0.584132 14.2101 4.39091ZM23.1617 122.173L22.5819 123.895L36.0871 151.104L49.5921 178.313L48.123 179.042C44.2604 180.96 41.5108 185.41 41.6523 189.516C41.7275 191.705 42.6017 193.606 55.3403 219.278C69.9995 248.822 70.5686 249.791 75.5141 253.634C80.6129 257.596 87.8918 260.043 93.8752 259.807C99.8445 259.571 101.233 259.013 124.122 247.652C138.136 240.697 146.585 236.274 148.025 235.143C156.299 228.637 161.377 214.331 156.223 212.046C153.362 210.777 150.803 212.642 150.28 216.377C149.836 219.555 147.658 223.945 145.097 226.829C142.946 229.25 142.885 229.283 120.675 240.307C98.5673 251.28 98.3864 251.361 95.2274 251.603C88.659 252.106 81.8393 249.433 77.8205 244.781C75.0766 241.603 49.5134 190.075 49.8894 188.48C50.126 187.479 53.1923 185.874 85.6589 169.76C118.11 153.653 121.258 152.173 122.198 152.59C123.031 152.958 125.689 157.897 136.24 178.677C148.776 203.367 149.299 204.317 150.494 204.522C152.553 204.876 154.717 203.47 155.126 201.512C155.479 199.821 155.286 199.394 142.651 173.964C130.671 149.85 129.697 148.035 128.004 146.656C124.819 144.06 119.612 143.559 115.75 145.476L114.28 146.206L111.24 140.081C109.569 136.712 107.802 133.673 107.316 133.327C105.226 131.839 100.914 134.156 101.149 136.64C101.198 137.16 102.59 140.31 104.244 143.64L107.249 149.696L81.9363 162.259L56.6234 174.823L43.1184 147.614L29.6132 120.405L27.8915 119.826C26.9445 119.507 25.6234 119.517 24.9554 119.849C24.2874 120.18 23.4804 121.226 23.1617 122.173ZM75.2865 190.06C71.8167 193.338 69.7634 198.383 69.9394 203.197C70.0819 207.108 72.7325 212.264 75.8875 214.767C78.7009 216.998 109.89 230.414 112.359 230.455C114.429 230.489 116.626 229.403 117.842 227.744C118.92 226.276 122.11 214.368 122.116 211.798C122.118 210.379 121.917 209.951 120.857 209.123C119.191 207.822 116.821 207.855 115.579 209.197C115.061 209.757 113.962 212.737 113.136 215.819C112.311 218.902 111.502 221.491 111.339 221.572C110.854 221.812 82.7742 209.772 81.3036 208.693C77.1513 205.648 77.216 198.593 81.4247 195.537C84.9484 192.979 87.6203 193.105 95.1868 196.189C96.4844 196.718 97.3512 196.674 98.6881 196.01C100.025 195.346 100.584 194.683 100.948 193.33C102.545 187.383 103.325 185.611 104.993 184.136C109.545 180.113 115.882 181.213 118.496 186.481C119.487 188.477 119.513 190.447 118.598 194.265C117.778 197.686 118.612 199.875 121.014 200.601C124.377 201.617 126.323 199.014 127.181 192.352C128.286 183.774 123.417 176.409 115.115 174.097C110.748 172.881 107.303 173.405 102.834 175.963C98.8942 178.218 96.5333 180.764 95.0652 184.339L94.091 186.713L91.2953 186.008C87.3919 185.022 83.2526 185.548 79.4072 187.519C77.688 188.4 75.8334 189.543 75.2865 190.06Z" fill="black"/>
</svg>
