<svg width="233" height="184" viewBox="0 0 233 184" fill="none" xmlns="http://www.w3.org/2000/svg">
<path opacity="0.1" fill-rule="evenodd" clip-rule="evenodd" d="M66.6046 -95.9104C64.1468 -92.5428 61.6653 -88.4963 61.0886 -86.9173C60.512 -85.3382 58.7174 -82.5644 57.1007 -80.7525C55.484 -78.9407 51.8925 -74.1841 49.1197 -70.1818C43.5333 -62.1204 36.2239 -54.9956 25.1694 -46.8366C18.8925 -42.2033 17.4083 -40.6889 14.0922 -35.5307C11.9863 -32.2554 9.38062 -28.8053 8.30281 -27.8643C5.00599 -24.9857 0.297606 -11.056 0.0451671 -3.4319C-0.0828397 0.411172 0.407721 4.07515 1.13404 4.70932C2.36518 5.78426 2.46303 5.71848 2.57703 3.73794C2.64471 2.57014 3.42232 0.344132 4.30498 -1.20744C5.18765 -2.759 6.1758 -6.17438 6.50132 -8.79635C7.03986 -13.1354 7.41461 -13.7708 10.6694 -15.8722C12.636 -17.1424 17.9578 -19.2462 22.4952 -20.5473C28.103 -22.1555 31.6726 -23.7214 33.6409 -25.4364C37.2179 -28.5534 41.9402 -39.3509 42.9855 -46.8028C44.3928 -56.8411 45.0646 -58.7132 49.8561 -65.9479C52.4938 -69.9318 54.8481 -73.1906 55.088 -73.1914C56.1419 -73.1919 53.3202 -62.7327 46.9839 -43.1567C32.3082 2.18159 31.8552 3.03876 16.804 13.8278C11.3649 17.726 6.91518 21.2391 6.9149 21.6347C6.91181 25.92 24.8234 19.3778 36.7605 10.7331C42.7156 6.42121 45.4895 1.85429 46.9354 -6.01125C47.4439 -8.77952 48.0906 -10.8421 48.3718 -10.5965C48.6537 -10.3503 49.9195 -6.50371 51.1848 -2.05019C52.4501 2.40456 54.8039 8.69604 56.4162 11.9306C58.0278 15.1658 59.4298 18.3704 59.5327 19.0528C59.7953 20.8003 53.2873 28.7811 48.8116 32.2002C43.0844 36.5746 39.5554 41.2962 34.4889 51.3629C30.8217 58.6522 29.6617 62.3417 28.8807 69.2092C27.5234 81.1561 26.4665 85.2883 23.3147 90.9808C21.8205 93.6802 20.8695 96.3634 21.2012 96.9443C21.6523 97.7328 22.2029 97.1514 23.381 94.6395C24.3295 92.618 25.999 90.6556 27.5728 89.7112C29.4725 88.5719 30.0085 87.7884 29.53 86.8482C29.1668 86.1364 29.285 85.191 29.7919 84.7484C31.4695 83.2836 35.9551 71.0218 37.7394 63.0203C38.7064 58.689 39.7983 54.7779 40.1673 54.3292C40.5363 53.8806 41.2611 51.67 41.7778 49.4165C43.1766 43.3158 46.1631 38.5276 51.3966 33.995L56.0788 29.9399L53.4674 35.6506C52.0313 38.7916 49.7317 46.0679 48.3564 51.8203C45.5887 63.3974 42.7014 71.0654 40.4431 72.8382L38.9606 74.0025L40.0198 72.4687C42.6074 68.7213 43.2712 54.588 40.8594 54.5893C40.412 54.5895 40.4328 55.847 40.9038 57.3843C42.142 61.4182 40.0336 70.8948 37.3845 73.2079C36.1863 74.254 34.4345 77.1649 33.4913 79.6766C32.5481 82.1884 31.2905 84.6677 30.6963 85.1865C30.1029 85.7047 29.9546 86.4235 30.3673 86.7838C30.7857 87.1491 31.524 86.7562 32.0333 85.8989C32.5362 85.0509 34.3398 82.6143 36.039 80.4836C45.504 68.6196 45.9874 67.6352 49.355 53.3966C51.6937 43.504 56.8263 30.5938 59.8978 26.8744C61.9322 24.4106 62.0778 24.3828 63.1839 26.2411C63.8198 27.3102 66.8905 31.7603 70.0076 36.1292C73.1247 40.4982 75.9451 44.5577 76.2754 45.1509C76.7096 45.9296 74.9445 46.7058 69.9012 47.9537C66.0655 48.9025 62.0457 50.4478 60.9693 51.3876C58.8115 53.2716 53.6379 65.4896 53.9098 68.059C54.0244 69.1438 52.6589 70.9278 49.7781 73.4554C38.8302 83.0597 33.9857 94.5753 33.5651 111.996C33.3171 122.235 32.9287 124.217 30.5837 127.203C26.7867 132.04 25.8198 137.245 27.9323 141.481C30.0378 145.704 30.484 145.57 30.0216 140.851C29.4398 134.91 32.5137 129.062 39.4227 122.965C46.788 116.467 53.6171 108.023 55.6787 102.866C57.0567 99.4198 57.3221 99.1353 57.9523 100.43C59.502 103.613 67.553 113.021 72.3363 117.238C76.7989 121.173 77.638 122.434 79.5687 128.113C80.7692 131.645 82.0116 135.69 82.3293 137.101C83.0467 140.295 85.8737 144.023 87.8905 144.438C88.9485 144.656 88.8427 143.983 87.5424 142.228C86.5141 140.841 85.5994 139.104 85.5091 138.369C85.4175 137.634 84.73 136.906 83.9801 136.751C83.1479 136.58 83.0981 136.372 83.8517 136.216C84.5314 136.076 84.966 135.509 84.8172 134.956C84.6677 134.404 84.8248 133.147 85.1668 132.163C85.7484 130.49 85.8827 130.55 87.2634 133.089C89.0459 136.367 99.6536 145.843 108.469 152.033C115.534 156.995 117.908 157.334 112.596 152.623C108.396 148.898 105.294 142.968 103.772 135.755C102.559 130 97.7677 121.046 94.2648 117.987C92.7587 116.672 92.4929 115.554 93.2183 113.57C95.8935 106.243 93.126 93.2479 86.4386 81.733C82.9961 75.8052 80.6212 65.6781 80.2669 55.4111C80.1422 51.8059 80.246 49.4033 80.4966 50.0721C81.5591 52.9016 96.7177 69.7094 103.761 75.8663C111.247 82.4117 111.482 82.7261 115.802 92.0204C118.225 97.2338 121.895 107.363 123.957 114.531C129.774 134.752 136.556 146.519 148.567 157.233C154.516 162.54 166.379 169.729 168.474 169.296C168.942 169.199 167.056 166.836 164.28 164.045C157.843 157.573 156.042 154.241 152.679 142.584C147.888 125.987 141.792 115.648 126.395 98.0125C123.384 94.5637 120.892 91.38 120.858 90.9377C120.758 89.6809 132.346 100.764 135.085 104.545C136.433 106.407 141.303 114.293 145.908 122.07C165.418 155.027 180.807 170.747 198.438 175.731C200.757 176.388 202.886 176.722 203.168 176.475C203.451 176.228 200.123 172.919 195.773 169.12C189.744 163.855 187.194 161.045 185.051 157.301L182.239 152.389L186.955 156.253C194.869 162.735 206.072 169.995 219.145 177.113C225.996 180.843 231.843 183.894 232.14 183.894C232.435 183.894 229.635 180.881 225.915 177.198C222.194 173.515 216.113 166.799 212.401 162.275C201.404 148.869 191.08 138.254 181.006 129.99L171.538 122.223L176.583 124.067C179.357 125.082 185.122 126.66 189.395 127.576C193.668 128.49 198.68 129.915 200.534 130.742C205.709 133.049 214.55 135.405 213.939 134.314C213.639 133.779 211.239 132.322 208.603 131.076C205.623 129.666 201.086 126.43 196.601 122.514C190.153 116.884 187.883 115.49 175.156 109.338C167.328 105.554 157.066 101.082 152.351 99.4C147.636 97.7164 140.717 95.2538 136.975 93.9253C126.498 90.2067 120.79 86.2845 106.517 73.0009C99.5877 66.5529 93.4452 60.3132 92.8663 59.1353C91.9713 57.3138 92.4025 57.496 95.7521 60.3543C101.021 64.8517 116.484 75.3224 123.458 79.1161C130.625 83.016 147.998 90.1862 157.187 93.0383C163.887 95.117 164.626 95.5657 170.21 100.931C176.663 107.132 177.863 107.341 174.01 101.593C172.645 99.5585 169.413 93.6182 166.826 88.392C164.239 83.1658 160.906 77.2361 159.419 75.2146C157.931 73.1932 147.053 62.8472 135.245 52.2234C123.437 41.599 112.846 31.786 111.71 30.4156L109.644 27.9233L112.764 28.773C119.587 30.6305 149.712 43.3992 153.61 46.0858C158.494 49.4519 162.654 54.5789 173.694 70.8343C180.831 81.3439 183.046 83.9418 192.098 92.4281C200.138 99.9641 204.128 103.129 210.335 106.893C214.705 109.543 218.523 111.5 218.82 111.241C219.115 110.983 217.084 108.474 214.305 105.668C211.526 102.861 208.356 98.86 207.26 96.7782C206.165 94.6958 203.17 89.8519 200.606 86.0127C198.042 82.1742 196.576 79.5864 197.348 80.2623C199.203 81.8836 231.694 96.2334 232.341 95.7159C232.617 95.4958 231.926 94.6699 230.806 93.8806C229.686 93.0918 226.047 88.6728 222.718 84.06C214.083 72.0941 203.498 62.9796 192.596 58.1216C188.289 56.2025 182.166 54.2144 178.988 53.7032C172.425 52.6465 172.176 52.5496 164.111 47.8922C160.163 45.6116 158.885 44.6086 160.28 44.8848C172.715 47.3462 178.037 47.7881 190.312 47.3765C198.167 47.1142 207.773 46.2692 211.66 45.4992C215.548 44.7298 220.72 43.983 223.154 43.8404C225.589 43.6978 227.581 43.3226 227.581 43.0069C227.582 42.6917 225.618 41.5895 223.22 40.5576C220.821 39.5263 218.431 38.3089 217.909 37.8534C217.388 37.3979 213.017 35.8805 208.197 34.4826C198.544 31.6812 195.989 29.9233 189.788 21.8193L186.252 17.1981L191.469 16.1755C198.117 14.8726 198.826 14.2143 194.293 13.5515C187.749 12.5938 179.101 8.88638 174.944 5.25637C166.314 -2.27806 148.238 -10.3166 136.377 -11.8937C130.597 -12.6621 118.117 -12.2412 102.038 -10.7353C96.9505 -10.2595 92.4011 -9.94864 91.927 -10.0467C91.4536 -10.1441 88.2765 -14.322 84.8686 -19.3308C81.4607 -24.3397 77.1893 -30.0779 75.3756 -32.0832C73.5626 -34.0879 72.3473 -35.7292 72.6745 -35.7288C73.0009 -35.7289 75.2404 -34.7694 77.6513 -33.5962C101.749 -21.8673 110.749 -18.5649 125.906 -15.8919C131.13 -14.9702 138.908 -13.4093 143.192 -12.4226C147.869 -11.3453 153.972 -10.8154 158.467 -11.0956C162.584 -11.3528 165.525 -11.7113 165.004 -11.8922C164.483 -12.0744 161.169 -13.0161 157.638 -13.9854C148.285 -16.5547 143.557 -18.809 135.009 -24.7727C126.518 -30.6978 120.207 -33.6718 108.248 -37.3866C101.726 -39.4114 97.648 -39.8926 87.1066 -39.8788C70.8306 -39.8588 68.7696 -40.3958 62.0374 -46.4128C55.2757 -52.4555 54.2185 -54.8193 56.2171 -59.4239C57.1002 -61.4571 58.8429 -67.4467 60.0899 -72.7358C62.5726 -83.26 65.9813 -90.0596 72.0422 -96.5756C74.2115 -98.908 75.7208 -101.047 75.3966 -101.33C74.432 -102.172 69.1655 -95.8258 64.7483 -88.4992C61.9687 -83.8869 60.0495 -79.0299 58.8671 -73.6142C56.9175 -64.6851 54.6739 -58.0384 53.6088 -58.0379C53.2253 -58.037 53.3902 -59.3487 53.976 -60.9517C54.5611 -62.5553 55.8092 -67.364 56.7501 -71.6381C58.6834 -80.4217 62.3854 -88.0004 68.8092 -96.3251C71.2246 -99.4556 72.9236 -102.26 72.584 -102.557C71.8528 -103.195 72.2055 -103.587 66.6046 -95.9104ZM36.4002 -53.627C38.9927 -55.4203 40.444 -56.2173 39.6244 -55.3986C38.8042 -54.5805 36.6861 -51.1743 34.9171 -47.8298C31.9666 -42.2504 30.7527 -40.902 20.2173 -31.4908C13.9016 -25.8488 7.9025 -20.0914 6.88767 -18.6958C5.77566 -17.1687 4.94148 -16.5275 4.79133 -17.0865C4.34436 -18.7405 7.56652 -24.4404 13.2462 -32.0454C16.3032 -36.1376 19.2969 -40.1622 19.8991 -40.9888C20.9914 -42.4889 27.4831 -47.4608 36.4002 -53.627ZM42.8619 -55.8814C42.5379 -54.4222 42.0316 -50.9918 41.7363 -48.2586C41.4417 -45.5261 39.8207 -39.7914 38.1355 -35.5157C34.4668 -26.2115 32.1718 -24.2752 21.1273 -21.17C17.1725 -20.0584 12.1211 -18.2447 9.90269 -17.139C5.87128 -15.1305 5.86987 -15.1306 7.48687 -17.4043C8.37707 -18.6555 14.1945 -24.1892 20.4144 -29.6997C31.9094 -39.8835 33.4712 -41.844 41.6788 -56.3942C42.8771 -58.5173 43.3962 -58.2927 42.8619 -55.8814ZM53.7184 -55.883C53.5424 -54.7753 54.1966 -52.7399 55.1715 -51.3589L56.9454 -48.8487L54.5632 -50.8021C52.4137 -52.5657 52.1175 -52.5723 51.526 -50.8698C51.1657 -49.8321 50.7086 -49.1248 50.511 -49.2973C50.0414 -49.7074 52.4411 -56.4671 53.343 -57.2742C53.7252 -57.6165 53.8944 -56.9907 53.7184 -55.883ZM5.14232 -8.1721C4.96007 -6.18354 4.01307 -3.24117 3.0389 -1.63304L1.26525 1.29072L1.18672 -2.01104C1.11774 -4.90369 2.80723 -9.15612 4.81167 -11.1346C5.17497 -11.4936 5.32316 -10.1607 5.14232 -8.1721ZM62.9073 -40.9841C74.795 -28.9107 85.2889 -13.8264 93.6503 3.20814C97.0147 10.0624 100.338 16.8294 101.035 18.2468C102.282 20.7813 102.179 20.7623 94.6471 17.0715C84.0687 11.8884 69.648 3.06283 64.7051 -1.25291C62.4362 -3.23397 58.6751 -7.38449 56.3472 -10.4768C52.2044 -15.981 52.0956 -16.3673 51.1766 -28.8215C50.3663 -39.8015 51.2823 -50.4605 53.0355 -50.4615C53.3324 -50.4617 57.7751 -46.1966 62.9073 -40.9841ZM49.5019 -40.1481C49.4796 -36.5557 49.7909 -28.1715 50.1927 -21.5165C50.8317 -10.9271 51.5484 -7.80321 55.9354 3.49914C58.6924 10.6025 63.1831 20.5398 65.9163 25.5817C71.382 35.6671 71.4656 36.7998 66.1051 28.1413C63.2836 23.5854 62.3718 22.6197 61.1186 22.8655C59.921 23.1008 59.8345 22.9442 60.7258 22.1513C61.9043 21.1026 61.1294 18.609 57.1319 10.5874C54.8747 6.05824 52.7181 -0.554002 50.1077 -10.9556C48.1175 -18.8856 47.552 -44.5417 49.3249 -46.4494C49.4439 -46.5766 49.5235 -43.7411 49.5019 -40.1481ZM45.9475 -34.2269C45.7532 -33.0443 44.947 -29.3224 44.1566 -25.9557C43.3655 -22.5896 42.254 -16.9215 41.6865 -13.3602C40.0165 -2.89239 39.3714 -1.10016 35.2932 4.40305C32.4079 8.29616 29.6551 10.9293 24.5369 14.6934L17.6581 19.7516L22.3446 14.6799C31.0304 5.28137 37.6289 -8.1328 43.2588 -27.8374C45.5138 -35.7292 46.6329 -38.3884 45.9475 -34.2269ZM70.3479 -39.678C72.1275 -39.206 79.5581 -38.7874 86.861 -38.7472C97.4114 -38.6903 101.777 -38.1669 108.113 -36.1991C118.661 -32.9234 127.07 -28.8878 135.197 -23.2033C138.862 -20.6395 143.743 -17.7409 146.046 -16.7617C148.348 -15.7826 150.232 -14.8094 150.232 -14.5987C150.231 -14.0697 138.383 -18.1096 127.045 -22.5059C121.853 -24.5186 114.632 -26.7783 111 -27.5269C94.3848 -30.9511 79.5735 -34.7835 75.0188 -36.8376C72.2821 -38.0714 69.4819 -38.8629 68.7957 -38.5953C68.035 -38.2995 66.4399 -39.1266 64.7068 -40.7161C62.0414 -43.1613 62.0288 -43.2363 64.4896 -41.9298C65.9327 -41.164 68.5689 -40.1506 70.3479 -39.678ZM46.1478 -19.3354C47.3866 -10.2826 44.7832 0.871195 40.1477 6.37348C38.2831 8.58718 25.6588 16.9208 24.1687 16.9216C23.9513 16.9224 26.8273 14.2345 30.5599 10.9509C38.1448 4.27678 40.8767 0.265807 41.6807 -5.37442C41.9806 -7.47914 42.5446 -10.108 42.9331 -11.217C43.3208 -12.3254 43.887 -15.9482 44.1898 -19.2661C44.4919 -22.5847 44.8591 -25.4038 45.0048 -25.5311C45.1498 -25.6577 45.6649 -22.8697 46.1478 -19.3354ZM24.9814 9.94161C24.9808 10.7512 14.6266 19.6248 12.2413 20.8615C7.14079 23.5039 9.22011 21.1039 16.945 15.431C21.3657 12.1852 24.9823 9.71494 24.9814 9.94161ZM78.5965 -37.0687C79.6167 -36.1779 89.9008 -34.4875 92.9248 -34.714L95.8285 -34.9312L92.6142 -35.1856C90.8456 -35.3247 86.8364 -35.9214 83.7053 -36.51C80.5728 -37.0987 78.2738 -37.3505 78.5965 -37.0687ZM54.0808 -11.0481C55.0521 -9.70207 58.451 -5.90087 61.6329 -2.60143L67.4189 3.39701L60.2706 -3.25366C53.7052 -9.36224 51.1262 -12.4587 51.9815 -13.2055C52.1645 -13.3653 53.1094 -12.394 54.0808 -11.0481ZM74.0722 17.2327C77.5265 26.243 80.6694 42.6908 78.9373 42.6917C77.9319 42.6929 70.2448 31.0268 66.2021 23.3652C64.2081 19.5884 60.4129 11.1642 57.7673 4.64502L52.9565 -7.20812L70.1931 7.11377L74.0722 17.2327ZM79.5586 -24.7749C79.8944 -24.0895 79.5609 -24.0893 78.708 -24.775C77.9366 -25.3956 77.6879 -25.9029 78.1551 -25.9031C78.6222 -25.9034 79.2544 -25.3957 79.5586 -24.7749ZM128.899 -20.3993C135.566 -17.8875 143.883 -15.011 147.382 -14.008C155.991 -11.539 153.266 -11.2389 143.38 -13.5684C138.994 -14.6011 131.214 -16.2069 126.091 -17.1359C113.11 -19.4895 107.611 -21.1942 96.4963 -26.3082C91.1863 -28.7514 86.2103 -31.0283 85.438 -31.3669C84.6664 -31.7062 91.402 -30.4046 100.406 -28.4745C110.377 -26.338 121.517 -23.1805 128.899 -20.3993ZM81.667 -21.7046C82.0028 -21.0192 81.6694 -21.019 80.8164 -21.7047C80.0451 -22.3253 79.7964 -22.8326 80.2635 -22.8328C80.7307 -22.8331 81.3628 -22.3255 81.667 -21.7046ZM86.7447 -14.0576C89.1887 -9.99112 90.2222 -8.89089 91.7277 -8.75289C93.1537 -8.6216 93.2936 -8.50556 92.2888 -8.2851C91.5401 -8.12129 91.1468 -7.20578 91.3959 -6.20647C91.6863 -5.04071 91.575 -4.82807 91.076 -5.59442C85.1944 -14.628 82.0822 -19.8767 82.7891 -19.568C83.268 -19.3588 85.0484 -16.8787 86.7447 -14.0576ZM73.7667 6.75614C74.7995 7.7108 75.0869 8.28621 74.4053 8.03289C73.723 7.78017 73.0545 7.98203 72.9191 8.48214C72.5586 9.80859 71.4641 8.58861 71.4653 6.86244C71.4668 4.80211 71.6448 4.79404 73.7667 6.75614ZM90.6592 18.2316L105.213 25.917L109.889 32.1366C112.461 35.5573 115.877 41.5215 117.481 45.39C122.422 57.31 126.72 62.999 140.506 75.8694L152.738 87.2897L142.375 80.3767C136.675 76.5749 128.521 70.9863 124.255 67.9583C119.989 64.9298 113.983 60.7811 110.909 58.7384C107.833 56.6964 104.818 54.607 104.208 54.0962C103.597 53.5855 99.3193 52.3482 94.7005 51.347C88.7726 50.0621 85.5237 48.8531 83.6548 47.2348C82.1009 45.8904 81.3455 44.6469 81.8278 44.2258C82.279 43.8318 82.2617 43.5093 81.7882 43.509C81.3147 43.5099 80.4599 39.5045 79.8887 34.6096C79.3167 29.714 77.5273 22.2778 75.9114 18.0849C73.7626 12.5084 73.3947 10.471 74.54 10.5023C75.4012 10.5264 82.6551 14.0042 90.6592 18.2316ZM101.824 -7.91868C110.781 -7.98074 119.553 -6.21267 127.894 -2.66114C130.879 -1.39058 133.56 -0.143233 133.849 0.109694C135.269 1.34917 129.708 2.69381 123.296 2.6611C119.346 2.64115 114.71 2.86793 112.995 3.16496C107.572 4.10412 90.3276 -4.94103 93.0338 -7.30385C93.3851 -7.61057 97.34 -7.88736 101.824 -7.91868ZM78.8586 10.291C79.1473 10.8837 78.5917 10.6776 77.6249 9.83346C76.6581 8.98934 76.4228 8.50479 77.1008 8.75628C77.7803 9.00776 78.5713 9.69841 78.8586 10.291ZM46.4532 37.1484C42.3481 41.963 40.0955 47.596 36.9304 60.9653C34.4816 71.3076 29.6302 84.4905 28.2724 84.4912C27.8481 84.492 27.8284 83.5479 28.2296 82.3947C28.6307 81.2402 29.3179 76.6757 29.7559 72.2501C30.6609 63.1157 31.4189 60.7325 36.8321 50.0046C41.5907 40.5727 41.9752 40.0159 46.354 36.2012L49.8782 33.1315L46.4532 37.1484ZM76.8805 17.7508C78.2541 21.1889 79.9143 28.2898 80.5691 33.5305C81.2231 38.7707 82.0511 42.803 82.4087 42.4908C83.3113 41.7027 81.4509 28.2864 79.4474 21.1341C78.0109 16.0075 75.3357 10.5405 74.6162 11.2633C74.4873 11.393 75.5061 14.3122 76.8805 17.7508ZM93.3531 -3.28534C93.9332 -2.77887 94.1009 -2.09651 93.7256 -1.76888C93.3511 -1.44188 92.7519 -1.74745 92.3943 -2.44817C92.0374 -3.14949 91.8697 -3.83186 92.0218 -3.96463C92.1739 -4.0974 92.7731 -3.79181 93.3531 -3.28534ZM102.257 3.33179C115.644 11.1972 120.075 13.4811 128.843 17.0367C140.449 21.7426 149.4 23.4865 158.661 22.8469C165.027 22.4066 166.285 22.6504 170.7 25.1831C173.639 26.8684 178.232 28.4685 182.07 29.1427L188.508 30.2744L177.257 30.1516C168.074 30.0522 163.877 30.597 154.432 33.1158C148.066 34.8135 141.522 36.0641 139.889 35.8942C138.256 35.725 129.966 32.6415 121.464 29.0422L106.008 22.4992L101.496 12.9329C99.0152 7.67106 96.6027 2.73965 96.1347 1.97326C94.7075 -0.365781 96.7236 0.0815382 102.257 3.33179ZM123.747 -10.9444C139.153 -11.1575 147.325 -9.11329 153.457 -3.51188L157.276 -0.0241986L150.362 -0.195469C145.413 -0.318076 141.23 -1.22431 135.65 -3.3817C131.362 -5.04039 125.091 -6.86384 121.714 -7.43389C118.338 -8.00393 115.103 -8.88181 114.527 -9.38521C113.951 -9.888 112.602 -10.0967 111.531 -9.84981C110.459 -9.6029 109.915 -9.70763 110.323 -10.0844C110.731 -10.4606 116.771 -10.8478 123.747 -10.9444ZM128.518 10.7601C141.127 13.3197 156.234 14.7199 168.043 14.4235C173.206 14.2941 180.733 14.3066 184.771 14.4512C190.646 14.6611 191.349 14.8333 188.29 15.3135C186.189 15.6439 180.761 16.9898 176.228 18.305C158.554 23.433 145.657 22.6722 128.41 15.484C120.225 12.0718 107.407 5.46978 105.829 3.85199C105.585 3.60211 108.394 4.60922 112.071 6.08887C115.75 7.56852 123.151 9.67085 128.518 10.7601ZM72.4788 36.658C72.8146 37.3433 72.4811 37.3436 71.6282 36.6579C70.8568 36.0372 70.6081 35.53 71.0753 35.5297C71.5424 35.5294 72.1746 36.0371 72.4788 36.658ZM75.2903 40.3422C75.6261 41.0275 75.2927 41.0277 74.4397 40.342C73.6684 39.7214 73.4197 39.2142 73.8868 39.2139C74.354 39.2136 74.9861 39.7213 75.2903 40.3422ZM124.348 3.82458C128.135 4.13272 131.103 3.75515 132.93 2.73442C136.98 0.470384 153.193 0.426457 161.076 2.65814C167.689 4.52994 183.983 11.5865 183.983 12.5774C183.982 13.422 159.904 13.4513 150.372 12.618C137.255 11.4709 115.152 7.14192 113.052 5.3088C111.973 4.36707 119.25 3.41088 124.348 3.82458ZM135.243 -2.37589C139.175 -0.885328 139.968 -0.367893 138.503 -0.24915C137.438 -0.161945 134.424 -1.07314 131.804 -2.2751C129.184 -3.47581 126.412 -4.73913 125.643 -5.08087C122.696 -6.39198 130.301 -4.2486 135.243 -2.37589ZM62.0703 53.4578C60.2069 56.8835 60.2097 56.8675 60.9823 61.6714C61.2575 63.3796 61.0514 64.3884 60.524 63.9132C58.1237 61.7486 59.2753 54.0552 62.3925 51.4341C63.2225 50.7365 63.0861 51.5898 62.0703 53.4578ZM103.416 22.9209C104.075 23.474 103.713 23.5522 102.48 23.1241C101.374 22.7395 99.8457 21.8638 99.0835 21.1786C97.9698 20.1767 98.1528 20.1373 100.019 20.9754C101.296 21.5491 102.825 22.4242 103.416 22.9209ZM38.4377 74.1607C38.9918 74.6444 36.6107 78.958 35.7889 78.9585C35.3978 78.9587 35.5321 78.0323 36.0894 76.8986C37.2802 74.4752 37.9301 73.7174 38.4377 74.1607ZM67.8497 50.8242C69.4788 50.3706 71.6473 50.0672 72.6695 50.1495C74.1814 50.271 74.3106 50.6309 73.3633 52.0744C71.3489 55.142 63.6309 62.9649 63.0867 62.4897C62.8005 62.2399 62.3092 60.6934 61.9938 59.0522C61.4989 56.4688 61.9071 55.3192 64.4224 52.223C64.6787 51.9071 66.2214 51.2772 67.8497 50.8242ZM77.3988 43.4125C77.7346 44.0978 77.4011 44.098 76.5482 43.4123C75.7768 42.7917 75.5281 42.2844 75.9953 42.2842C76.4625 42.2839 77.0946 42.7916 77.3988 43.4125ZM58.4792 63.3842C58.838 64.4216 58.7773 65.5795 58.3437 65.9582C57.91 66.3368 57.4961 65.5931 57.4232 64.3062C57.3502 63.0193 57.4116 61.8608 57.5587 61.7323C57.7059 61.6038 58.1204 62.3469 58.4792 63.3842ZM78.4328 47.6137C78.5664 47.7303 78.5655 48.9736 78.4308 50.378L78.1862 52.9305L77.9453 50.3782C77.7191 47.9802 77.8703 47.1225 78.4328 47.6137ZM87.1997 54.5982C90.1365 58.2676 95.7413 64.553 99.6537 68.5652L106.767 75.8603L98.884 68.6234C91.5487 61.8881 78.2409 46.3483 80.7434 47.4404C81.3567 47.7079 84.2615 50.9288 87.1997 54.5982ZM58.1236 68.6059C58.271 69.1525 57.1843 70.6538 55.7095 71.9416C50.3675 76.6057 42.818 86.9926 40.1603 93.3341C37.6612 99.2978 34.6381 115.817 36.0459 115.816C36.3899 115.816 37.1305 112.269 37.6923 107.934C38.6707 100.376 42.4346 89.7375 45.8335 84.9232C48.0237 81.8199 47.8211 82.919 45.1491 88.6259C42.7674 93.7111 41.1918 99.0084 40.2129 105.215C39.885 107.295 38.9645 111.558 38.1679 114.687C36.2721 122.129 34.9315 120.599 34.8597 110.913C34.7701 98.6126 37.9869 88.6532 44.7033 80.4414C49.0945 75.0713 57.7974 67.3965 58.1236 68.6059ZM75.2496 54.8401C75.0952 56.3022 75.25 57.272 75.5921 56.9967C75.9342 56.72 76.3708 63.0955 76.564 71.1641C76.7559 79.2327 77.4646 89.7268 78.1387 94.4841C79.8663 106.667 82.329 129.735 81.9382 130.076C81.2342 130.69 79.5235 124.429 79.2816 120.351C79.1412 117.982 77.8565 112.092 76.4276 107.262C72.2909 93.2753 71.9205 88.8643 73.9338 77.4927C75.7946 66.9824 76.3299 56.393 74.9395 57.607C74.546 57.9506 74.2779 59.9036 74.344 61.9467C74.41 63.9897 73.8389 69.542 73.0757 74.2847C72.3124 79.0275 71.615 85.2377 71.5264 88.0862L71.3643 93.2654L68.9958 87.9666C67.6935 85.0519 65.9189 80.4476 65.0527 77.7341C64.1865 75.0206 63.1433 72.7551 62.7339 72.6988C62.3245 72.6425 62.3653 72.5504 62.8241 72.4936C63.2829 72.4368 63.7002 71.224 63.7526 69.797C63.8294 67.6807 69.8063 58.6375 74.9999 52.778C75.29 52.4498 75.4026 53.378 75.2496 54.8401ZM112.267 26.8573C112.675 27.1759 112.227 27.291 111.272 27.1121C110.317 26.9333 109.077 26.3578 108.519 25.8322C107.446 24.8242 110.862 25.7585 112.267 26.8573ZM137.769 4.94566C139.856 5.25104 142.152 5.37878 142.872 5.23035C143.593 5.08129 142.474 4.70965 140.388 4.40488C138.301 4.0995 136.004 3.97177 135.285 4.12021C134.564 4.26926 135.682 4.64088 137.769 4.94566ZM58.7751 72.5701C58.2708 73.3211 58.3245 74.0318 58.8964 74.1488C59.4676 74.2664 59.252 74.629 58.4167 74.9544C56.8206 75.5757 55.06 80.7914 56.4467 80.79C56.8886 80.7897 57.1511 81.6631 57.0293 82.7296C56.8962 83.9005 57.0171 84.1204 57.3342 83.2835C57.6226 82.521 57.7407 84.5604 57.5955 87.8144C57.1286 98.2938 52.2594 108.841 44.4305 116.329C40.4386 120.147 37.6205 120.649 38.8027 117.331C39.2356 116.116 40.2944 111.31 41.1561 106.653C43.2185 95.4991 47.1445 85.4754 52.2779 78.254C53.6738 76.29 59.9851 70.7684 58.7751 72.5701ZM58.533 77.4963C58.3486 78.6482 57.8531 79.8752 57.4307 80.2219C57.0083 80.5698 56.8139 79.9107 56.997 78.7588C57.1814 77.6069 57.6769 76.38 58.0993 76.0333C58.5217 75.6854 58.7161 76.3444 58.533 77.4963ZM65.5726 83.693C67.6699 88.5571 69.9096 93.0033 70.5494 93.573C71.5492 94.4632 76.1299 109.308 76.2665 112.1C76.2921 112.635 75.6845 112.337 74.9154 111.438C67.7241 103.03 64.8333 98.996 62.0161 93.4419C59.0766 87.6483 58.844 86.3302 59.7998 80.9086C60.3876 77.5763 61.0685 74.8491 61.3133 74.849C61.5581 74.8488 63.4738 78.829 65.5726 83.693ZM96.9287 53.1413C100.133 54.0579 104.702 56.1458 107.083 57.7816C109.464 59.4168 114.949 63.1916 119.272 66.1698C133.762 76.1526 152.468 88.7304 154.227 89.6736C155.806 90.5204 155.782 90.5708 153.966 90.2082C150.354 89.4871 118.181 71.218 105.611 62.7502C98.8444 58.191 92.2046 53.784 90.8565 52.9561C87.6314 50.9749 89.5598 51.0334 96.9287 53.1413ZM167.285 1.53368L171.489 4.61631L166.929 3.01616C162.396 1.42456 159.4 -0.448621 156.317 -3.62281C153.863 -6.14742 162.071 -2.28863 167.285 1.53368ZM79.2242 65.3017C79.2773 66.8183 79.545 68.2544 79.8185 68.4932C80.092 68.732 80.714 70.6397 81.2008 72.7317C81.6875 74.8249 83.7602 79.6539 85.8069 83.4632C93.9537 98.6286 94.7869 106.185 89.6793 118.553C87.8758 122.917 85.7569 127.515 84.9687 128.771C83.5741 130.991 83.5319 130.991 83.4075 128.779C83.3367 127.53 83.8025 126.399 84.4414 126.267C85.081 126.135 85.051 125.913 84.3757 125.774C83.6996 125.635 82.9542 123.172 82.7199 120.301C82.4849 117.43 81.6602 110.788 80.8865 105.54C78.2891 87.9118 76.9242 64.4688 78.4202 63.1626C78.8095 62.8227 79.1718 63.7856 79.2242 65.3017ZM124.21 75.9779C130.054 79.317 136.225 82.7383 137.924 83.5802C139.624 84.4214 141.013 85.3126 141.013 85.5596C141.013 86.1751 126.827 79.5265 121.154 76.2529C115.182 72.8058 96.8323 60.0067 93.7535 57.1415C92.4437 55.9216 96.3699 58.2949 102.479 62.4147C108.588 66.535 118.367 72.6382 124.21 75.9779ZM59.5181 91.0236C59.9184 94.0482 65.7936 103.015 71.5307 109.357C75.973 114.267 77.6126 116.708 77.6535 118.469C77.7088 120.853 77.6793 120.844 74.5593 117.488C72.8271 115.624 69.3774 112.005 66.8935 109.447C60.1023 102.453 58.2768 99.1747 58.5187 94.4132C58.7393 90.0854 59.1906 88.5531 59.5181 91.0236ZM150.351 67.3131C157.615 74.9921 162.313 81.3314 164.521 86.4349L165.8 89.3908L163.669 86.9538C162.498 85.6135 155.194 78.7301 147.439 71.6577C134.303 59.6796 119.795 43.7774 118.134 39.5379C117.257 37.2993 142.741 59.2713 150.351 67.3131ZM122.491 48.7099C125.017 52.2112 132.315 59.5615 144.646 71.0266C161.059 86.2851 169.852 95.7895 169.85 98.27C169.85 99.3597 145.437 79.4185 138.54 72.6946C134.88 69.1264 130.096 63.7823 127.91 60.8195C124.24 55.8452 117.407 43.49 118.325 43.4889C118.545 43.4888 120.419 45.8386 122.491 48.7099ZM41.3095 114.382C39.0388 118.683 39.7019 119.243 42.0766 115.031C43.2678 112.919 44.1127 111.079 43.9559 110.942C43.5284 110.569 42.8728 111.421 41.3095 114.382ZM32.234 128.584C31.1224 130.437 29.7292 133.646 29.1395 135.717L28.066 139.481L27.891 136.322C27.7111 133.077 29.4416 129.498 32.5125 126.767C33.7522 125.665 33.6717 126.191 32.234 128.584ZM151.534 37.3867C151.95 37.0241 151.004 36.6597 149.435 36.5776C147.329 36.4664 148.96 35.767 155.654 33.91C162.521 32.0044 167.635 31.3861 176.679 31.3682C183.252 31.3542 188.81 31.0452 189.032 30.6814C189.254 30.317 189.56 30.4864 189.715 31.0588C189.868 31.6307 193.406 32.595 197.574 33.2008C203.717 34.0943 216.518 37.8676 218.105 39.2538C218.568 39.6578 213.994 39.5018 210.728 39.0023C203.713 37.9287 187.732 37.8263 177.148 38.7873C170.599 39.3825 161.898 39.7024 157.811 39.5001C153.725 39.2972 150.704 39.4131 151.098 39.7569C152.51 40.9902 162.789 41.0865 176.48 39.9929C194.932 38.5202 216.138 39.5719 217.479 42.0259C218.572 44.0291 204.626 45.8993 187.631 46.0302C172.457 46.1473 169.087 45.8242 160.446 43.4283C155.021 41.9244 150.464 40.2548 150.32 39.7192C150.175 39.1837 148.656 38.4338 146.944 38.0527L143.831 37.3597L147.306 37.7023C149.217 37.8905 151.12 37.7488 151.534 37.3867ZM174.685 24.0016C180.2 27.1935 181.245 28.4104 177.066 26.7731C172.017 24.7961 167.546 22.0188 168.642 21.5403C169.203 21.2955 171.923 22.4029 174.685 24.0016ZM181.556 23.7871L186.691 28.1187L182.327 26.433C179.926 25.5061 176.612 23.885 174.961 22.8312C172.11 21.0114 172.071 20.8775 174.191 20.1846C176.163 19.541 177.021 19.9613 181.556 23.7871ZM154.409 44.0858C155.522 45.0877 155.339 45.1272 153.473 44.2891C150.298 42.8632 148.449 41.2492 151.012 42.1404C152.118 42.525 153.646 43.4007 154.409 44.0858ZM187.064 20.1972C188.393 21.8293 190.211 24.4875 191.106 26.1038L192.731 29.0423L188.202 26.4912C185.709 25.0883 182.413 22.8418 180.875 21.4992L178.079 19.0584L181.364 18.1437C184.461 17.2814 184.787 17.3985 187.064 20.1972ZM113.252 82.093C113.588 82.7784 113.254 82.7786 112.402 82.0929C111.63 81.4723 111.381 80.965 111.849 80.9647C112.316 80.9645 112.948 81.4721 113.252 82.093ZM118.204 85.2128C118.492 85.8054 117.937 85.5993 116.97 84.7552C116.003 83.9111 115.768 83.4265 116.446 83.678C117.125 83.9295 117.916 84.6201 118.204 85.2128ZM176.845 60.5223L180.951 65.1119L175.561 61.2233C172.597 59.0848 168.271 55.6791 165.948 53.6556L161.724 49.9765L167.232 52.954C171.253 55.1283 173.849 57.1724 176.845 60.5223ZM94.151 119.72C98.9967 126.064 101.255 130.639 102.75 137.148L104.381 144.246L100.965 140.474C99.0877 138.4 95.4055 134.235 92.7841 131.218L88.0159 125.733L89.6015 122.053C91.7319 117.103 92.0346 116.948 94.151 119.72ZM183.99 69.8255C192.746 77.2763 197.954 83.6406 204.793 95.2487L209.332 102.95L201.023 95.0106C193.327 87.6569 182.324 75.4902 170.854 61.6534L166.132 55.9573L171.145 59.5579C173.901 61.5381 179.682 66.1587 183.99 69.8255ZM96.2861 137.5C104.542 147.153 104.687 147.394 100.282 144.14C95.8573 140.872 88.673 133.582 86.8544 130.515C86.3653 129.69 86.3597 128.671 86.8419 128.25C87.515 127.662 89.7113 129.814 96.2861 137.5ZM183.707 60.8638C194.247 67.4198 199.449 71.2612 214.564 83.6481C220.886 88.8286 222.504 90.4414 220.475 89.5377C218.938 88.8536 214.167 86.9415 209.872 85.2889C202.672 82.5181 201.377 81.6896 193.238 74.6426C185.102 67.5981 170.456 53.0174 172.541 54.0378C173.037 54.2802 178.062 57.3519 183.707 60.8638ZM125.513 108.184C127.585 112.684 130.911 120.121 132.904 124.711C138.034 136.525 145.349 147.645 154.237 157.142C162.672 166.155 161.18 166.181 150.61 157.204C137.751 146.282 129.992 132.82 124.592 112.059C123.327 107.193 121.863 102.49 121.339 101.608C120.816 100.725 120.694 100.003 121.067 100.003C121.441 100.002 123.442 103.684 125.513 108.184ZM130.305 104.602C139.185 115.464 144.23 123.259 147.493 131.159C151.136 139.98 154.619 152.813 153.371 152.814C149.436 152.815 138.099 134.608 130.432 115.975C128.899 112.248 126.73 107.235 125.613 104.834C124.14 101.667 124.072 101.053 125.363 102.597C126.343 103.767 127.515 105.458 127.969 106.355C128.523 107.448 128.892 107.624 129.091 106.889C129.254 106.287 128.041 103.938 126.394 101.669C121.633 95.112 123.992 96.8811 130.305 104.602ZM129.087 95.3763C129.08 96.5852 128.919 96.5847 128.299 95.3768C127.87 94.5403 127.873 93.856 128.307 93.8558C128.739 93.8549 129.091 94.539 129.087 95.3763ZM136.077 100.937C136.076 102.508 134.203 101.456 132.252 98.7888L130.171 95.9433L133.124 98.0917C134.749 99.274 136.078 100.553 136.077 100.937ZM192.75 59.645C199.043 62.7074 202.611 65.0643 207.755 69.5557C214.074 75.0734 223.49 86.021 224.435 88.95C224.666 89.6668 218.543 85.0741 210.828 78.7444C201.422 71.0292 193.787 65.4384 187.66 61.78C176.374 55.0425 176.231 54.9074 180.79 55.3048C182.829 55.4818 188.21 57.4354 192.75 59.645ZM152.652 105.615C167.214 113.896 174.598 117.623 187.485 123.196C199.178 128.253 200.93 129.149 197.282 128.205C196.089 127.896 191.839 126.91 187.838 126.014C175.966 123.357 168.324 119.856 155.163 111.05C148.562 106.632 141.273 101.629 138.965 99.9295L134.768 96.8408L138.543 98.289C140.619 99.0858 146.969 102.382 152.652 105.615ZM139.438 95.9616C139.82 96.2949 143.581 97.6572 147.796 98.9879C160.391 102.965 184.893 114.828 192.658 120.709C196.342 123.498 199.162 125.949 198.927 126.154C197.994 126.969 169.258 113.403 157.311 106.508C150.338 102.484 142.811 98.431 140.584 97.5016C138.358 96.5722 137.033 95.7092 137.64 95.5842C138.248 95.4579 139.056 95.6282 139.438 95.9616ZM174.471 67.9307C174.807 68.6161 174.474 68.6163 173.621 67.9306C172.85 67.31 172.601 66.8027 173.068 66.8024C173.535 66.8022 174.167 67.3098 174.471 67.9307ZM185.488 80.8555C190.863 86.8965 198.396 94.641 202.23 98.066C207.825 103.064 208.531 103.909 205.805 102.346C201.084 99.638 193.511 92.979 186.952 85.7684C181.532 79.8091 174.189 69.8733 175.205 69.8727C175.486 69.8726 180.113 74.8151 185.488 80.8555ZM165.357 121.087C177.477 126.88 192.338 140.122 207.124 158.304C210.17 162.05 214.521 167.085 216.792 169.491C221.938 174.946 162.77 124.532 148.824 111.58L138.604 102.087L148.572 109.958C155.389 115.339 160.697 118.859 165.357 121.087ZM152.682 117.679C154.977 119.922 153.056 118.444 148.414 114.393C143.772 110.343 141.895 108.507 144.243 110.314C146.591 112.12 150.388 115.435 152.682 117.679ZM157.86 114.741L159.938 116.61L157.291 115.237C155.835 114.483 153.223 112.62 151.485 111.098L148.326 108.332L152.054 110.602C154.104 111.851 156.717 113.713 157.86 114.741ZM155.838 124.18C168.652 136.239 176.801 145.859 182.749 155.95C185.183 160.079 187.822 164.023 188.614 164.714C189.405 165.405 189.628 166.059 189.11 166.165C187.541 166.489 174.607 153.86 167.133 144.706C154.345 129.043 148.281 120.57 150.401 121.327C151.966 121.886 151.921 121.676 150.165 120.231C146.224 116.988 144.269 114.943 144.728 114.543C144.976 114.326 149.975 118.662 155.838 124.18ZM151.841 127.546C152.938 129.188 157.714 135.434 162.455 141.424C169.603 150.455 173.147 154.138 183.211 162.991C194.659 173.061 195.119 173.566 191.312 171.88C185.439 169.277 170.833 156.351 164.896 148.501C158.847 140.504 148.413 124.559 149.228 124.559C149.568 124.559 150.745 125.903 151.841 127.546ZM162.475 117.695C162.811 118.38 162.478 118.38 161.625 117.695C160.853 117.074 160.605 116.567 161.072 116.566C161.539 116.566 162.171 117.074 162.475 117.695ZM220.332 176.001C220.65 176.793 206.809 168.698 199.43 163.778C187.179 155.609 181.582 150.412 170.805 137.203L161.153 125.371L190.684 150.541C206.927 164.384 220.268 175.841 220.332 176.001ZM156.144 156.45C156.433 157.042 155.877 156.836 154.91 155.992C153.944 155.148 153.708 154.663 154.386 154.915C155.066 155.166 155.857 155.857 156.144 156.45ZM207.753 161.421C209.493 162.941 210.343 163.443 209.641 162.536C208.938 161.63 207.515 160.387 206.477 159.773C205.438 159.16 206.013 159.902 207.753 161.421Z" fill="black"/>
</svg>
