<svg width="258" height="219" viewBox="0 0 258 219" fill="none" xmlns="http://www.w3.org/2000/svg">
<path opacity="0.1" fill-rule="evenodd" clip-rule="evenodd" d="M174.351 217.937C195.924 214.571 214.085 205.409 229.257 190.237C244.332 175.161 253.592 156.851 257.021 135.331C257.919 129.696 257.919 112.763 257.021 107.127C253.592 85.6081 244.332 67.2973 229.257 52.222C213.918 36.8827 195.749 27.7865 173.848 24.4811C170.385 23.9584 165.473 23.5292 162.932 23.5272C158.443 23.5237 158.269 23.5675 156.763 25.0734C154.62 27.2159 154.603 29.8867 156.717 32.0009C158.093 33.3769 158.597 33.53 162.635 33.8019C177.265 34.786 188.147 37.4855 198.653 42.7375C221.67 54.243 238.082 74.2762 244.801 99.0693C248.427 112.449 248.427 130.009 244.801 143.389C235.614 177.286 208.212 202.005 173.596 207.621C167.518 208.607 154.266 208.74 148.162 207.875C128.498 205.089 111.091 196.152 97.1333 181.673C86.7946 170.949 80.1003 159.07 75.6446 143.541C74.4152 139.258 73.0166 137.849 69.9918 137.849C68.4492 137.849 67.6635 138.193 66.4668 139.389C65.0436 140.812 64.9479 141.127 65.2017 143.544C65.9209 150.393 72.6505 166.024 78.882 175.319C93.1596 196.617 114.573 211.283 139.349 216.734C150.015 219.08 163.954 219.559 174.351 217.937ZM171.523 193.99C185.549 191.635 197.784 185.918 208.349 176.784C224.565 162.765 233.763 142.657 233.763 121.229C233.763 99.8016 224.565 79.6939 208.349 65.6746C195.387 54.4682 178.04 47.7079 162.226 47.7003L157.907 47.6983L155.3 44.4851C151.295 39.5484 144.873 34.4597 138.845 31.4469C137.46 30.7544 127.601 26.9756 116.937 23.0498L97.5468 15.9113L71.8613 -9.69517C54.3025 -27.2001 45.4777 -35.6501 43.9694 -36.403C36.9814 -39.8907 29.244 -39.7543 22.7567 -36.0288C19.9625 -34.4242 7.29551 -22.1159 4.30946 -18.1044C-0.621144 -11.4795 -1.25725 -2.81397 2.61723 4.94909C3.37066 6.45798 11.8147 15.2741 29.3332 32.841L54.9471 58.5265L61.302 77.4129C64.9564 88.2728 68.7035 98.4397 70.1192 101.336C73.1043 107.442 77.8878 113.557 82.9635 117.755L86.7186 120.861L86.7206 124.193C86.7216 126.025 87.0631 129.623 87.4791 132.188C92.7134 164.463 117.016 188.766 149.29 194C154.945 194.917 166.033 194.912 171.523 193.99ZM147.541 183.126C127.701 179.192 110.541 165.324 102.321 146.58C100.087 141.485 98.0686 134.251 97.5135 129.348L97.1645 126.264L99.3382 127.031C106.061 129.403 115.443 130.334 122.514 129.331C144.635 126.192 161.838 110.116 166.32 88.3937C168.027 80.1245 167.404 69.1522 164.8 61.5951C164.236 59.9593 163.775 58.5426 163.775 58.4474C163.775 58.0213 168.049 58.3422 171.766 59.0472C193.352 63.1423 211.165 77.8833 219.121 98.2363C224.628 112.324 224.822 128.908 219.644 142.992C213.283 160.296 199.335 174.238 182.002 180.622C171.21 184.596 159.316 185.46 147.541 183.126ZM173.289 169.379C176.162 167.787 176.717 163.808 174.39 161.481C171.214 158.306 165.775 160.459 165.801 164.881C165.824 168.84 169.873 171.272 173.289 169.379ZM194.442 160.314C197.314 158.722 197.869 154.742 195.543 152.416C192.367 149.24 186.928 151.393 186.953 155.816C186.977 159.774 191.026 162.207 194.442 160.314ZM171.274 147.219C174.147 145.627 174.702 141.648 172.376 139.321C169.2 136.146 163.76 138.299 163.786 142.721C163.809 146.68 167.859 149.112 171.274 147.219ZM208.347 140.395C210.787 139.397 211.982 136.693 211.128 134.105C210.418 131.955 208.692 130.798 206.192 130.798C201.174 130.798 199.57 137.79 204.056 140.111C205.673 140.947 206.814 141.022 208.347 140.395ZM187.407 136.3C189.569 134.138 189.569 131.488 187.407 129.326C186.214 128.133 185.412 127.777 183.921 127.777C182.429 127.777 181.627 128.133 180.434 129.326C178.272 131.488 178.272 134.138 180.434 136.3C181.627 137.493 182.429 137.849 183.921 137.849C185.412 137.849 186.214 137.493 187.407 136.3ZM69.3995 126.295C71.1879 125.54 72.6168 123.277 72.6168 121.2C72.6168 118.507 70.2895 116.193 67.5804 116.193C64.8416 116.193 62.544 118.504 62.544 121.26C62.544 124.771 66.3636 127.576 69.3995 126.295ZM103.541 117.459C93.1339 113.984 84.4598 106.75 79.7392 97.6092C78.0868 94.4081 65.5658 58.7733 65.5658 57.2699C65.5658 57.0045 66.1455 56.4072 66.8536 55.9433L68.1414 55.0993L76.045 62.9469C80.3919 67.2636 84.6114 71.0469 85.4212 71.3546C88.6576 72.585 92.2586 70.0039 92.2586 66.4537C92.2586 64.7786 91.6109 63.9854 83.9486 56.2752C79.3781 51.6755 75.6386 47.6923 75.6386 47.4233C75.6386 47.1539 80.2615 42.3149 85.9113 36.6702L96.1834 26.407L112.982 32.5872C132.203 39.6587 134.824 40.7677 138.96 43.576C150.257 51.2484 156.882 63.8404 156.893 77.6647C156.902 89.0897 153.176 98.7666 145.669 106.813C141.247 111.552 132.59 116.628 126.254 118.197C119.438 119.886 109.88 119.575 103.541 117.459ZM102.65 83.0677C107.652 79.016 102.385 71.4423 96.9364 74.8514C92.7194 77.4904 94.5496 83.9758 99.5039 83.9491C100.702 83.9425 102.029 83.5709 102.65 83.0677ZM61.9069 22.9017L75.8793 8.92227L81.8051 14.8325L87.7304 20.7426L73.7575 34.7221L59.7851 48.7016L53.8593 42.7914L47.934 36.8812L61.9069 22.9017ZM11.7104 -0.147211C10.2398 -3.0124 10.0197 -5.42783 10.9388 -8.61033C11.7028 -11.2534 12.3671 -12.0834 19.3788 -19.157C27.6994 -27.5501 29.4344 -28.6551 34.1162 -28.5408C35.5163 -28.5065 37.4427 -28.0875 38.3971 -27.61C39.3515 -27.1326 46.5344 -20.3632 54.3599 -12.5664L68.5876 1.60896L54.6152 15.5879L40.6423 29.5674L26.6286 15.5914C18.9215 7.90493 12.208 0.822287 11.7104 -0.147211Z" fill="black"/>
</svg>
