<svg width="184" height="41" viewBox="0 0 184 41" fill="none" xmlns="http://www.w3.org/2000/svg">
<path d="M69.9355 24.3241C69.4368 24.4184 68.9857 24.5274 68.582 24.6508C68.01 24.8257 67.5238 25.0977 67.1234 25.4668C66.7231 25.8359 66.4275 26.3216 66.2369 26.924C66.0462 27.5261 65.9508 28.3324 65.9508 29.3427V37.8522C64.9594 37.891 63.8249 37.9784 62.5474 38.1144C61.27 38.2504 59.6018 38.5517 57.5426 39.0179C55.7884 39.4453 54.2153 39.7854 52.8235 40.0379C51.4316 40.2904 49.8778 40.4167 48.1619 40.4167C44.9205 40.4167 42.0986 39.8145 39.6962 38.61C37.2938 37.4054 35.2919 35.8511 33.6903 33.9471C32.0886 32.0432 30.897 29.9061 30.1152 27.5359C29.9365 26.9939 29.7782 26.453 29.6404 25.913L29.7395 25.819L29.7246 25.8028L29.7251 25.8022L29.7449 25.8239C29.7721 25.798 29.798 25.7713 29.8226 25.7438C29.8654 25.7018 29.9112 25.6561 29.9602 25.6062L29.9436 25.5893L29.9451 25.5872L29.9648 25.6073L29.969 25.6029L29.9699 25.602L29.9734 25.5984L29.9745 25.5972C29.9883 25.5828 30.002 25.5683 30.0151 25.5535L30.1655 25.3928C30.2248 25.33 30.189 25.3648 30.3665 25.1715C30.5551 24.9661 30.5441 24.9832 30.5888 24.9325C30.6063 24.9126 30.6749 24.8327 30.8056 24.6795L30.8088 24.6823C30.8447 24.6404 30.8776 24.597 30.9077 24.5523L30.9719 24.4746L30.9747 24.477L30.9773 24.4737L30.9797 24.4758C31.0019 24.449 31.0227 24.4216 31.0427 24.3938L31.1971 24.2028L31.1693 24.1795L31.1695 24.1793L31.2013 24.2061C31.2257 24.1759 31.2487 24.145 31.2703 24.1134L31.3025 24.0726L31.3053 24.0749C31.3295 24.0447 31.3519 24.0137 31.3732 23.9821C31.4225 23.9196 31.4683 23.8612 31.5094 23.807L31.513 23.8098C31.5375 23.7775 31.5605 23.7444 31.5818 23.7108C31.6651 23.6044 31.6796 23.5851 31.6926 23.568L31.756 23.4846L31.7571 23.4856L31.7687 23.4704L31.7708 23.4722C31.7927 23.4435 31.8132 23.4144 31.8325 23.3846L32.0062 23.1497L32.0089 23.1519L32.0101 23.1503L32.0118 23.1518C32.0275 23.1306 32.0425 23.1091 32.0568 23.0873L32.0643 23.0772L32.0636 23.0767L32.0639 23.0761L32.0662 23.0779C32.1333 22.9874 32.1884 22.8915 32.2317 22.7919C32.253 22.748 32.2733 22.7022 32.293 22.6541C32.3438 22.5287 32.3811 22.4012 32.4051 22.2672L32.3526 22.2574V22.2571L32.4097 22.2678C32.4272 22.17 32.4347 22.0728 32.4329 21.9771C32.4341 21.9036 32.4312 21.8302 32.4235 21.7569L32.4123 21.7581L32.4122 21.7571L32.4266 21.7555C32.4172 21.6663 32.4002 21.5798 32.376 21.4966C32.3578 21.4277 32.335 21.3579 32.3075 21.2874L32.3055 21.2818L32.3108 21.2797C32.2865 21.2181 32.2588 21.1594 32.2277 21.1032C32.1079 20.8631 31.9408 20.6632 31.7266 20.5031C31.476 20.3159 31.1911 20.2045 30.8728 20.1653C30.7069 20.1454 30.5357 20.1511 30.358 20.1834L30.3572 20.1788L30.3473 20.1807L30.3471 20.1796C30.329 20.1831 30.3108 20.1868 30.2929 20.191L30.292 20.1787H30.2923L30.2871 20.1246L30.2877 20.1245L30.2844 20.0982C30.2759 20.0254 30.2638 19.9486 30.2488 19.8688L30.2354 19.8714L30.2345 19.8688L30.2507 19.8657C30.2444 19.8326 30.2371 19.8003 30.2287 19.7682C30.2131 19.6995 30.1941 19.6294 30.1723 19.5586L30.159 19.563L30.1576 19.5596L30.1736 19.5546C30.1535 19.489 30.1289 19.426 30.1007 19.3656C30.0798 19.3115 30.0585 19.2618 30.0373 19.2168C29.9838 19.1043 29.929 19.0041 29.8733 18.9174L29.8708 18.9191L29.8702 18.9183L29.8741 18.9158C29.8491 18.8768 29.8224 18.8397 29.7945 18.804C29.7256 18.704 29.656 18.6136 29.5861 18.5338C29.4781 18.4104 29.3581 18.295 29.2274 18.1887L29.229 18.1867C29.1926 18.1572 29.1551 18.1298 29.1169 18.1045L29.0671 18.0681C29.2736 16.1076 29.7373 14.2607 30.4585 12.5277C31.469 10.0991 32.8514 7.98144 34.6055 6.17467C36.3596 4.36791 38.3996 2.95936 40.7259 1.94899C43.0519 0.938737 45.5496 0.433594 48.2189 0.433594C48.829 0.433594 49.5631 0.472511 50.4211 0.550152C51.2791 0.627909 52.2324 0.841655 53.2811 1.19127C54.3298 1.541 55.4833 2.06553 56.7417 2.76499C58.0001 3.46445 59.3347 4.4358 60.7457 5.67932C61.2414 4.74671 61.5941 3.97924 61.8039 3.37695C62.0137 2.77477 62.1758 2.20152 62.2901 1.65768H63.4913L63.72 13.0231H62.6332C62.2519 11.7019 61.8039 10.5557 61.2891 9.58422C60.7743 8.6129 60.2023 7.77746 59.5732 7.07811C58.9439 6.37865 58.286 5.78613 57.5996 5.3003C56.9133 4.8147 56.2269 4.39696 55.5405 4.04723C54.816 3.65868 54.1295 3.36721 53.4813 3.17299C52.8331 2.97866 52.242 2.84263 51.7081 2.76499C51.1743 2.68735 50.7357 2.64843 50.3925 2.64843C50.0494 2.64843 49.8206 2.64843 49.7061 2.64843C48.2952 2.64843 46.8176 2.89123 45.2732 3.37695C43.7287 3.86278 42.3179 4.76609 41.0403 6.08714C39.7629 7.40831 38.7047 9.19567 37.8659 11.4493C37.0269 13.7031 36.6074 16.6172 36.6074 20.192C36.6074 21.824 36.7314 23.6891 36.9792 25.7872C37.2271 27.8855 37.7896 29.8867 38.6667 31.7907C39.5437 33.6946 40.8402 35.2974 42.5562 36.5991C44.2721 37.9007 46.5792 38.5516 49.4774 38.5516C51.7273 38.5516 53.5099 38.2602 54.8256 37.6774C56.1411 37.0945 57.1326 36.366 57.7998 35.4917C58.4672 34.6173 58.8962 33.646 59.0869 32.5774C59.2194 31.8343 59.306 31.1243 59.3463 30.4469C59.4637 30.3878 59.5594 30.3345 59.6342 30.287C59.7071 30.2406 59.7979 30.1758 59.9083 30.0916C59.9898 30.0291 60.0722 29.961 60.1548 29.8865L60.1557 29.8875L60.173 29.8723L60.1758 29.8754C60.2052 29.8485 60.2332 29.8209 60.2599 29.7922C60.3134 29.7415 60.3639 29.6907 60.4115 29.6401C60.4799 29.5674 60.5546 29.4807 60.6339 29.3826C60.6918 29.3109 60.7585 29.2199 60.8313 29.1149L60.8372 29.1192C60.8573 29.0901 60.8764 29.0605 60.8943 29.0304C60.9345 28.97 60.973 28.9094 61.0095 28.8497L61.0115 28.851C61.0457 28.7949 61.0757 28.7374 61.1016 28.6787C61.3913 28.1134 61.5561 27.4352 61.5952 26.6449C61.618 26.1822 61.5979 25.6765 61.5345 25.128C61.9865 24.8261 62.3867 24.5293 62.7347 24.2377C63.329 23.7401 63.7749 23.2459 64.0715 22.7566H70.2711C70.1678 23.1688 70.0762 23.5803 69.995 23.9924L69.9947 23.9923C69.9901 24.0156 69.9862 24.0392 69.9827 24.0624C69.9659 24.1508 69.9502 24.238 69.9355 24.3241ZM25.2642 20.0286C22.9623 21.8446 20.6563 23.5367 15.7638 20.4609C15.6697 20.4018 15.576 20.3436 15.4823 20.2865C12.7499 18.6187 10.2301 17.817 7.76408 17.8643C5.2079 17.9133 2.72716 18.8718 0.144898 20.7202C-0.00923625 20.8306 -0.0462075 21.0477 0.0620997 21.2047C0.170522 21.3617 0.383443 21.3995 0.537577 21.289C0.688839 21.1808 0.839647 21.0757 0.990105 20.9738C3.29649 19.4119 5.51203 18.6015 7.77476 18.5582C9.83214 18.5188 11.9418 19.1115 14.2069 20.347C14.6018 20.5623 15.0011 20.7971 15.406 21.0515C19.6026 23.6899 22.0374 23.0828 24.1065 21.7393L24.0718 21.8165C23.8662 22.2893 23.7282 22.783 23.6607 23.2918C23.5901 23.7975 23.599 24.2643 23.6871 24.6862C23.7723 25.1052 23.9602 25.4733 24.2539 25.7905C24.4007 25.9461 24.5711 26.0777 24.7647 26.1795C24.9586 26.2812 25.1789 26.356 25.4228 26.4039C25.5665 26.4309 25.7105 26.4428 25.8574 26.4367C26.0041 26.4338 26.1539 26.4129 26.3095 26.377C26.4653 26.3441 26.615 26.2962 26.7618 26.2423C26.9087 26.1854 27.0497 26.1196 27.1877 26.0448C27.4637 25.8982 27.7544 25.6947 28.0658 25.4403C28.2184 25.3146 28.3652 25.189 28.5032 25.0663C28.6414 24.9406 28.7705 24.8179 28.891 24.6952C29.0112 24.5726 29.1347 24.4408 29.2639 24.3002C29.393 24.1595 29.5282 24.007 29.6662 23.8454C29.8013 23.6808 29.9247 23.5341 30.0333 23.3995C30.142 23.2618 30.2389 23.1421 30.3182 23.0375C30.4004 22.9328 30.4855 22.819 30.5766 22.6993C30.6677 22.5826 30.7616 22.4539 30.8614 22.3192C30.9027 22.2504 30.9291 22.1876 30.9408 22.1217C30.9495 22.0559 30.9436 21.993 30.9201 21.9332C30.8791 21.8077 30.7852 21.7388 30.6383 21.7207C30.5649 21.7118 30.5002 21.7238 30.4415 21.7567C30.3857 21.7866 30.3357 21.8405 30.2947 21.9153C30.2359 22.005 30.1742 22.1039 30.1008 22.2055C30.0275 22.3073 29.9452 22.415 29.8542 22.5287C29.7631 22.6424 29.6663 22.7621 29.5575 22.8908C29.4518 23.0165 29.3373 23.1511 29.2168 23.2918C29.0966 23.4324 28.9761 23.57 28.8497 23.7047C28.7265 23.8394 28.5973 23.9711 28.468 24.0998C28.3388 24.2255 28.2067 24.3511 28.0715 24.4738C27.9336 24.5964 27.7955 24.7161 27.6516 24.8359C27.5107 24.9555 27.3698 25.0602 27.2346 25.15C27.0966 25.2428 26.9644 25.3177 26.8353 25.3805C26.706 25.4403 26.5798 25.4911 26.4534 25.5301C26.3272 25.569 26.201 25.5959 26.0775 25.6079C25.828 25.6348 25.6136 25.563 25.4315 25.3983C25.0291 25.0722 24.8999 24.4318 25.0438 23.4774C25.0761 23.2709 25.1348 23.0404 25.2259 22.7921C25.314 22.5407 25.4315 22.2654 25.5783 21.9662C25.7985 21.5203 26.0188 21.1432 26.2391 20.8409C26.4593 20.5387 26.6796 20.3084 26.9028 20.1497C27.1877 19.9432 27.4314 19.8953 27.634 20.0062C28.0438 20.2299 27.9796 20.8516 28.3242 20.8979C28.3946 20.9069 28.474 20.8799 28.565 20.8171C28.6531 20.7572 28.7177 20.6914 28.7588 20.6256C28.7969 20.5598 28.8146 20.4879 28.8058 20.4131C28.7969 20.3053 28.7764 20.2006 28.747 20.1048C28.7148 20.0062 28.6707 19.9134 28.6149 19.8265C28.5179 19.6739 28.4034 19.5423 28.2742 19.4376C28.145 19.3299 28.0011 19.2491 27.8425 19.1862C27.681 19.1263 27.5225 19.0874 27.3639 19.0725C27.2024 19.0606 27.0408 19.0665 26.8763 19.0995C26.7148 19.1293 26.5562 19.1773 26.4006 19.2371C26.245 19.3 26.0952 19.3807 25.9483 19.4764C25.7902 19.5766 25.6396 19.6891 25.4975 19.8115L25.2642 20.0286ZM113.415 14.4343C113.362 14.5599 113.297 14.7275 113.215 14.934C113.136 15.1405 113.039 15.3888 112.933 15.6792C112.824 15.9694 112.704 16.3044 112.572 16.6906C112.44 17.0766 112.296 17.5074 112.14 17.9833C111.988 18.4621 111.841 18.9378 111.703 19.4107C111.562 19.8834 111.433 20.3503 111.306 20.8171C111.183 21.2808 111.071 21.7507 110.977 22.2234C110.88 22.6933 110.798 23.169 110.731 23.6479C110.593 24.6025 110.566 25.3745 110.654 25.961C110.678 26.1376 110.713 26.3051 110.757 26.4607C110.798 26.6194 110.86 26.7869 110.936 26.9605C111.016 27.137 111.118 27.2776 111.248 27.3824C111.312 27.4363 111.38 27.4782 111.453 27.508C111.527 27.5379 111.603 27.553 111.685 27.559C111.952 27.5679 112.287 27.4093 112.692 27.0831C112.895 26.9217 113.089 26.748 113.28 26.5655C113.471 26.38 113.656 26.1824 113.835 25.97C114.196 25.5511 114.584 25.0513 114.998 24.4708C115.203 24.1836 115.382 23.9262 115.535 23.7017C115.685 23.4803 115.811 23.2888 115.908 23.1301C116.008 22.9746 116.105 22.819 116.199 22.6694C116.296 22.5198 116.387 22.3731 116.478 22.2264C116.504 22.1845 116.522 22.1427 116.531 22.1039C116.539 22.0649 116.542 22.032 116.537 21.9991C116.528 21.9332 116.498 21.8854 116.443 21.8555C116.387 21.8225 116.31 21.8077 116.211 21.8077C116.099 21.8016 116.005 21.8196 115.929 21.8584C115.852 21.8974 115.794 21.9572 115.755 22.035C115.741 22.0559 115.708 22.1067 115.658 22.1845C115.606 22.2624 115.535 22.3671 115.444 22.4987C115.353 22.6305 115.262 22.7621 115.168 22.8939C115.074 23.0285 114.98 23.1601 114.886 23.2977C114.695 23.57 114.472 23.8842 114.214 24.2432C114.084 24.423 113.961 24.5964 113.841 24.764C113.717 24.9287 113.6 25.0902 113.482 25.2428C113.368 25.3955 113.253 25.545 113.139 25.6917C113.027 25.8353 112.916 25.976 112.804 26.1106C112.692 26.2483 112.59 26.371 112.493 26.4787C112.399 26.5865 112.308 26.6822 112.228 26.7599C112.146 26.8378 112.076 26.8976 112.014 26.9366C111.955 26.9784 111.908 26.9964 111.873 26.9964C111.841 26.9964 111.811 26.9784 111.785 26.9455C111.761 26.9096 111.741 26.8557 111.729 26.787C111.715 26.7152 111.706 26.6403 111.703 26.5565C111.697 26.4727 111.694 26.3829 111.694 26.2872C111.694 26.1914 111.694 26.1166 111.694 26.0688C111.694 26.0209 111.694 25.9939 111.694 25.988C111.797 24.5785 112.202 22.7352 112.907 20.467C113.259 19.3299 113.615 18.2765 113.973 17.3009C114.328 16.3284 114.686 15.4338 115.051 14.6169C115.35 14.6467 115.667 14.6647 116.005 14.6736C116.34 14.6827 116.754 14.6736 117.244 14.6468C117.488 14.6347 117.726 14.6138 117.961 14.5869C118.193 14.563 118.422 14.53 118.645 14.4882C118.868 14.4493 119.094 14.3983 119.323 14.3326C119.553 14.2667 119.785 14.1889 120.022 14.0961C120.495 13.9105 120.909 13.6832 121.262 13.4109C121.438 13.2762 121.599 13.1206 121.752 12.9441C121.902 12.7675 122.04 12.5701 122.163 12.3515C122.29 12.1331 122.389 11.8968 122.463 11.6484C122.536 11.4 122.586 11.1366 122.613 10.8614C122.624 10.7865 122.621 10.7207 122.604 10.6638C122.586 10.607 122.551 10.5591 122.501 10.5203C122.448 10.4784 122.392 10.4544 122.334 10.4454C122.275 10.4364 122.213 10.4454 122.149 10.4663C122.084 10.4872 122.028 10.5233 121.987 10.5711C121.943 10.6219 121.911 10.6847 121.89 10.7656C121.873 11.0109 121.831 11.2413 121.767 11.4598C121.702 11.6782 121.614 11.8818 121.502 12.0703C121.391 12.2589 121.265 12.4293 121.13 12.582C120.992 12.7346 120.845 12.8693 120.683 12.983C120.525 13.0967 120.354 13.1984 120.169 13.2911C119.984 13.3839 119.785 13.4677 119.576 13.5425C119.153 13.6922 118.748 13.797 118.36 13.8598C117.976 13.9195 117.57 13.9556 117.147 13.9645C116.939 13.9675 116.745 13.9705 116.575 13.9705C116.404 13.9675 116.255 13.9645 116.125 13.9556C115.996 13.9465 115.87 13.9375 115.752 13.9256C115.632 13.9166 115.517 13.9047 115.412 13.8928C115.544 13.6263 115.679 13.366 115.817 13.1176C115.955 12.8693 116.093 12.6298 116.237 12.4025C116.293 12.3247 116.319 12.2408 116.313 12.1569C116.31 12.0732 116.275 11.9865 116.211 11.8937C116.146 11.801 116.07 11.7292 115.979 11.6754C115.891 11.6214 115.791 11.5856 115.676 11.5707C115.565 11.5526 115.453 11.5616 115.335 11.5945C115.221 11.6304 115.106 11.6932 114.989 11.7801C114.807 11.9565 114.637 12.166 114.472 12.4115C114.31 12.6568 114.19 12.8572 114.111 13.0158C114.073 13.0937 114.023 13.1954 113.964 13.3181C113.902 13.4438 113.832 13.5904 113.75 13.761C113.562 13.7519 113.192 13.7072 112.64 13.6294C112.364 13.5905 112.105 13.5575 111.861 13.5305C111.617 13.5037 111.388 13.4827 111.177 13.4648C110.966 13.4468 110.739 13.4378 110.496 13.4378C110.252 13.4378 109.991 13.4438 109.715 13.4557C109.165 13.4827 108.64 13.5964 108.141 13.797C107.891 13.8986 107.656 14.0184 107.433 14.162C107.207 14.3026 106.998 14.4642 106.798 14.6498C106.763 14.6737 106.734 14.7036 106.71 14.7364C106.684 14.7664 106.666 14.8023 106.652 14.8412C106.619 14.928 106.61 15.0118 106.625 15.0896C106.643 15.1674 106.684 15.2393 106.748 15.305C106.813 15.3709 106.878 15.4039 106.945 15.3978C107.016 15.3949 107.083 15.356 107.151 15.2811C107.277 15.1525 107.415 15.0358 107.571 14.934C107.726 14.8293 107.897 14.7365 108.082 14.6587C108.267 14.578 108.449 14.5122 108.628 14.4613C108.807 14.4074 108.983 14.3685 109.157 14.3415C109.5 14.2907 109.905 14.2637 110.369 14.2637C110.601 14.2637 110.813 14.2667 111.004 14.2757C111.192 14.2817 111.362 14.2937 111.512 14.3057C111.665 14.3205 111.829 14.3355 112.011 14.3565C112.19 14.3774 112.387 14.3983 112.598 14.4252C112.807 14.4522 112.98 14.4732 113.112 14.4911C113.247 14.5061 113.341 14.518 113.397 14.5211L113.415 14.4343ZM160.065 22.2534C159.891 22.4359 159.704 22.6096 159.498 22.7742C159.292 22.9356 159.063 23.1004 158.814 23.2648C158.564 23.4324 158.291 23.6061 157.994 23.7795C157.874 23.2499 157.777 22.7772 157.707 22.3612C157.639 21.9453 157.592 21.5891 157.572 21.2898C157.563 21.1761 157.563 21.0536 157.572 20.9218C157.574 20.856 157.583 20.7871 157.589 20.7184C157.598 20.6465 157.61 20.5717 157.621 20.4908C157.648 20.3352 157.701 20.2036 157.777 20.0989C157.856 19.9912 157.95 19.9404 158.062 19.9404C158.091 19.9404 158.115 19.9462 158.135 19.9582C158.153 19.9702 158.165 19.9881 158.174 20.009C158.191 20.0541 158.191 20.1168 158.174 20.1947C158.165 20.2336 158.156 20.2724 158.147 20.3113C158.138 20.3533 158.127 20.3922 158.115 20.431C158.088 20.5089 158.062 20.5807 158.035 20.6405C158.024 20.6734 158.015 20.6974 158.009 20.7123C158.003 20.7303 158 20.7423 158 20.7453C157.997 20.7871 158 20.826 158.006 20.8649C158.015 20.9038 158.027 20.9427 158.044 20.9846C158.062 21.0236 158.082 21.0594 158.103 21.0894C158.126 21.1222 158.153 21.1492 158.182 21.1761C158.244 21.2299 158.32 21.2389 158.414 21.2031C158.461 21.1852 158.508 21.1552 158.555 21.1103C158.605 21.0655 158.652 21.0055 158.699 20.9307L158.758 20.9757C158.867 20.8231 158.943 20.6675 158.99 20.5089C159.037 20.3503 159.055 20.1857 159.043 20.021C159.031 19.8535 158.993 19.7069 158.934 19.5783C158.872 19.4525 158.79 19.3419 158.682 19.2491C158.552 19.1354 158.397 19.0576 158.218 19.0126C158.127 18.9887 158.032 18.9798 157.939 18.9798C157.845 18.9798 157.751 18.9948 157.657 19.0217C157.563 19.0456 157.466 19.0815 157.375 19.1263C157.281 19.1712 157.187 19.2282 157.096 19.291C156.917 19.4226 156.761 19.6172 156.632 19.8714C156.567 19.9971 156.511 20.1348 156.464 20.2844C156.42 20.4342 156.382 20.5956 156.356 20.7662C156.317 21.0504 156.338 21.5084 156.414 22.1397C156.494 22.7711 156.632 23.5761 156.831 24.5517C156.652 24.6742 156.476 24.8059 156.303 24.9465C156.127 25.0872 155.953 25.2369 155.78 25.3925C155.607 25.5511 155.437 25.7246 155.272 25.9131C155.105 26.1016 154.94 26.3051 154.782 26.5235C154.623 26.745 154.497 26.9545 154.403 27.155C154.309 27.3584 154.25 27.5499 154.224 27.7355C154.203 27.8882 154.197 28.0317 154.203 28.1693C154.212 28.307 154.235 28.4358 154.277 28.5583C154.315 28.6811 154.365 28.7918 154.423 28.8876C154.485 28.9834 154.558 29.0671 154.644 29.1359C154.729 29.2077 154.823 29.2677 154.923 29.3214C155.019 29.3753 155.125 29.4202 155.237 29.4621C155.46 29.54 155.704 29.5669 155.959 29.54C156.088 29.528 156.218 29.5039 156.344 29.4742C156.467 29.4442 156.594 29.4053 156.717 29.3544C156.843 29.3066 156.964 29.2466 157.081 29.1719C157.199 29.0971 157.313 29.0102 157.425 28.9085C157.536 28.8097 157.639 28.6991 157.736 28.5793C157.83 28.4627 157.918 28.334 158 28.1993C158.438 27.4183 158.5 26.1914 158.182 24.5187C159.054 23.9946 159.774 23.3886 160.45 22.7414C160.766 22.4387 161.073 22.135 161.384 21.8443C162.687 20.6277 164.057 19.64 166.403 19.906C167.791 20.0633 169.274 20.5951 170.798 21.3844C171.587 21.7928 172.386 22.2701 173.189 22.7999C174.7 23.797 176.351 24.0623 178.051 23.7678C179.897 23.4481 181.797 22.4646 183.632 21.0438C183.781 20.9281 183.811 20.7104 183.697 20.5578C183.583 20.4054 183.37 20.3755 183.22 20.4912C183.085 20.5958 182.95 20.698 182.814 20.7973C181.193 21.987 179.537 22.8051 177.939 23.082C176.403 23.348 174.915 23.1115 173.56 22.2175C173.078 21.8989 172.595 21.5987 172.116 21.32C170.17 20.1911 168.259 19.4165 166.478 19.2147C163.077 18.8292 162.025 20.1177 160.065 22.2534ZM125.718 22.053C125.65 22.1097 125.58 22.1936 125.506 22.3013C125.433 22.4091 125.357 22.5438 125.28 22.7023C125.204 22.8579 125.13 23.0284 125.06 23.208C124.989 23.3876 124.922 23.5791 124.86 23.7795C124.731 24.1835 124.643 24.6055 124.602 25.0424C124.578 25.2608 124.57 25.4733 124.57 25.6738C124.57 25.8743 124.578 26.0628 124.602 26.2453C124.622 26.4248 124.666 26.5894 124.731 26.736C124.796 26.8857 124.881 27.0143 124.986 27.131C125.095 27.2447 125.221 27.3285 125.368 27.3854C125.515 27.4423 125.68 27.4662 125.865 27.4632C126.167 27.4542 126.725 27.0771 127.541 26.332C128.361 25.5869 129.133 24.797 129.864 23.9651C130.596 23.1301 131.027 22.5616 131.157 22.2534C131.168 22.2234 131.18 22.1936 131.189 22.1636C131.198 22.1337 131.204 22.1068 131.206 22.0798C131.221 21.9872 131.206 21.9153 131.168 21.8674C131.127 21.8196 131.063 21.7926 130.966 21.7896C130.869 21.7867 130.775 21.8016 130.69 21.8405C130.604 21.8793 130.525 21.9392 130.452 22.0169C130.299 22.2325 130.035 22.5647 129.653 23.0105C129.268 23.4564 128.772 24.0219 128.161 24.7012C127.55 25.3805 127.063 25.8921 126.699 26.2333C126.334 26.5744 126.094 26.745 125.976 26.745C125.935 26.745 125.897 26.7361 125.868 26.718C125.838 26.7001 125.815 26.6702 125.797 26.6313C125.779 26.5924 125.768 26.5446 125.762 26.4876C125.759 26.4309 125.756 26.3651 125.762 26.2901C125.771 26.1405 125.788 25.9819 125.815 25.8143C125.838 25.6497 125.882 25.4553 125.941 25.2369C125.973 25.1262 126.003 25.0214 126.032 24.9196C126.061 24.8179 126.094 24.7192 126.123 24.6234C126.152 24.5278 126.185 24.4259 126.22 24.3241C126.255 24.2223 126.291 24.1176 126.329 24.0099C126.37 23.8993 126.405 23.8005 126.437 23.7108C126.472 23.6239 126.502 23.5432 126.528 23.4743L126.69 23.0434C126.716 22.9746 126.737 22.9177 126.749 22.8789C126.763 22.84 126.772 22.8161 126.778 22.807C126.816 22.6873 126.837 22.5826 126.843 22.4868C126.848 22.391 126.837 22.3073 126.81 22.2385C126.787 22.1667 126.749 22.1067 126.702 22.053C126.658 22.002 126.602 21.9602 126.537 21.9302C126.472 21.9002 126.402 21.8794 126.332 21.8704C126.258 21.8614 126.185 21.8584 126.105 21.8674C126.029 21.8763 125.956 21.8944 125.885 21.9213C125.815 21.9453 125.747 21.9781 125.685 22.0169L125.718 22.053ZM126.881 21.2211C126.892 21.215 126.907 21.2091 126.925 21.2001C126.939 21.1941 126.957 21.1851 126.975 21.1761C127.166 21.0744 127.301 20.9578 127.386 20.826C127.471 20.6943 127.503 20.5478 127.483 20.3861C127.465 20.2605 127.424 20.1497 127.359 20.0571C127.292 19.9642 127.204 19.8924 127.086 19.8325C126.801 19.6859 126.528 19.7367 126.261 19.9912C126.17 20.0719 126.102 20.1618 126.056 20.2635C126.006 20.3652 125.982 20.4789 125.976 20.6046C125.973 20.7332 125.991 20.8441 126.029 20.9427C126.07 21.0385 126.132 21.1222 126.217 21.1941C126.305 21.263 126.402 21.3018 126.514 21.3048C126.625 21.3078 126.752 21.275 126.89 21.2121L126.881 21.2211ZM144.484 20.7751C144.531 20.847 144.59 20.8888 144.658 20.8979C144.728 20.9069 144.807 20.8799 144.899 20.8171C144.987 20.7572 145.051 20.6914 145.092 20.6256C145.13 20.5598 145.148 20.4879 145.139 20.4131C145.13 20.3053 145.11 20.2006 145.08 20.1048C145.048 20.0062 145.004 19.9134 144.948 19.8265C144.851 19.6739 144.737 19.5423 144.608 19.4376C144.479 19.3299 144.335 19.2491 144.176 19.1862C144.015 19.1263 143.856 19.0874 143.697 19.0725C143.536 19.0606 143.374 19.0665 143.21 19.0995C143.048 19.1293 142.89 19.1773 142.734 19.2371C142.579 19.3 142.429 19.3807 142.282 19.4764C142.088 19.5991 141.9 19.7428 141.721 19.9104C141.542 20.0749 141.372 20.2635 141.207 20.476C140.878 20.8949 140.614 21.3437 140.405 21.8165C140.2 22.2893 140.062 22.783 139.994 23.2918C139.924 23.7975 139.933 24.2643 140.021 24.6862C140.106 25.1052 140.294 25.4733 140.587 25.7905C140.734 25.9461 140.905 26.0777 141.098 26.1795C141.292 26.2812 141.512 26.356 141.756 26.4039C141.9 26.4309 142.044 26.4428 142.191 26.4367C142.338 26.4338 142.487 26.4129 142.643 26.377C142.799 26.3441 142.948 26.2962 143.095 26.2423C143.242 26.1854 143.383 26.1196 143.521 26.0448C143.797 25.8982 144.088 25.6947 144.399 25.4403C144.552 25.3146 144.699 25.189 144.837 25.0663C144.975 24.9406 145.104 24.8179 145.224 24.6952C145.345 24.5726 145.468 24.4408 145.597 24.3002C145.727 24.1595 145.862 24.007 146 23.8454C146.135 23.6808 146.258 23.5341 146.367 23.3995C146.475 23.2618 146.572 23.1421 146.652 23.0375C146.734 22.9328 146.819 22.819 146.91 22.6993C147.001 22.5826 147.095 22.4539 147.195 22.3192C147.236 22.2504 147.263 22.1876 147.274 22.1217C147.283 22.0559 147.277 21.993 147.254 21.9332C147.213 21.8077 147.119 21.7388 146.972 21.7207C146.898 21.7118 146.834 21.7238 146.775 21.7567C146.719 21.7866 146.669 21.8405 146.628 21.9153C146.569 22.005 146.508 22.1039 146.434 22.2055C146.361 22.3073 146.279 22.415 146.188 22.5287C146.097 22.6424 146 22.7621 145.891 22.8908C145.785 23.0165 145.671 23.1511 145.55 23.2918C145.43 23.4324 145.31 23.57 145.183 23.7047C145.06 23.8394 144.931 23.9711 144.802 24.0998C144.672 24.2255 144.54 24.3511 144.405 24.4738C144.267 24.5964 144.129 24.7161 143.985 24.8359C143.844 24.9555 143.703 25.0602 143.568 25.15C143.43 25.2428 143.298 25.3177 143.169 25.3805C143.04 25.4403 142.913 25.4911 142.787 25.5301C142.661 25.569 142.535 25.5959 142.411 25.6079C142.161 25.6348 141.947 25.563 141.765 25.3983C141.363 25.0722 141.233 24.4318 141.377 23.4774C141.41 23.2709 141.468 23.0404 141.559 22.7921C141.647 22.5407 141.765 22.2654 141.912 21.9662C142.132 21.5203 142.352 21.1432 142.573 20.8409C142.793 20.5387 143.013 20.3084 143.236 20.1497C143.521 19.9432 143.765 19.8953 143.968 20.0062C144.17 20.1168 144.335 20.3831 144.458 20.8081L144.484 20.7751ZM156.917 25.2877C156.92 25.3057 156.928 25.3535 156.934 25.4283C156.943 25.5031 156.955 25.6079 156.967 25.7457C156.981 25.8802 156.99 25.991 156.999 26.0807C157.008 26.1675 157.011 26.2303 157.011 26.2692V26.7001C157.011 26.9006 156.993 27.0772 156.961 27.2268C156.943 27.3016 156.923 27.3765 156.899 27.4483C156.878 27.523 156.852 27.5979 156.823 27.6727C156.799 27.7385 156.776 27.8013 156.749 27.8582C156.726 27.915 156.696 27.972 156.667 28.0228C156.417 28.4536 156.097 28.6721 155.71 28.6811C155.557 28.6871 155.422 28.6572 155.304 28.5944C155.187 28.5314 155.09 28.4358 155.014 28.3041C154.914 28.1245 154.881 27.927 154.911 27.7116C154.94 27.496 155.034 27.2598 155.196 27.0084C155.375 26.718 155.61 26.4309 155.901 26.1466C156.188 25.8593 156.532 25.578 156.934 25.2967L156.917 25.2877ZM42.2187 19.6441C41.8047 19.7309 41.4347 19.9493 41.1088 20.2994C40.9443 20.4759 40.7944 20.6614 40.6624 20.862C40.5302 21.0594 40.4157 21.2689 40.3158 21.4934C40.1044 21.9453 39.9575 22.4059 39.8784 22.8728C39.796 23.3396 39.7813 23.8155 39.8343 24.2972C39.8694 24.5845 39.9341 24.8448 40.0339 25.0782C40.1337 25.3146 40.2629 25.5241 40.4274 25.7096C40.7534 26.0777 41.2026 26.2781 41.7696 26.3142C42.257 26.35 42.7269 26.2184 43.1849 25.9221C43.6402 25.6229 44.0806 25.1621 44.5064 24.5336C44.7561 24.5815 45.0057 24.5994 45.2554 24.5875C45.5049 24.5756 45.7575 24.5306 46.013 24.4559C46.5181 24.3062 46.9675 24.0878 47.3551 23.7975C47.546 23.6538 47.7251 23.5103 47.8895 23.3636C48.054 23.217 48.2068 23.0704 48.3448 22.9208C48.4799 22.7741 48.6032 22.6275 48.7119 22.4838C48.8176 22.3402 48.9116 22.1996 48.9879 22.062C49.0144 22.005 49.0261 21.9541 49.0261 21.9093C49.0261 21.8644 49.0144 21.8255 48.9879 21.7926C48.9645 21.7567 48.9292 21.7298 48.8911 21.7118C48.8499 21.6938 48.803 21.6819 48.7472 21.676C48.6913 21.673 48.6414 21.6788 48.5914 21.6968C48.5445 21.7117 48.5033 21.7388 48.4652 21.7746C47.8014 22.5496 47.1761 23.1092 46.5887 23.4504C45.9984 23.7914 45.4491 23.9172 44.9353 23.8245C45.2025 23.3246 45.4198 22.8489 45.5813 22.391C45.7458 21.9332 45.8603 21.4964 45.925 21.0804C46.0894 19.8356 45.8222 18.9857 45.1262 18.5308C44.856 18.3604 44.577 18.2615 44.2921 18.2346C44.0072 18.2077 43.7136 18.2526 43.414 18.3723C43.1145 18.489 42.859 18.6535 42.6535 18.866C42.445 19.0785 42.2864 19.3358 42.1747 19.6441H42.2187ZM44.1981 23.6509C44.0365 23.6089 43.8898 23.5522 43.7518 23.4713C43.6166 23.3936 43.4904 23.2948 43.3788 23.1751C43.2672 23.0584 43.1703 22.9297 43.0911 22.7951C43.0087 22.6605 42.9442 22.5198 42.8972 22.3701C42.8502 22.2206 42.8091 22.0649 42.7768 21.9033C42.7444 21.7417 42.718 21.5772 42.7004 21.4065C42.6829 21.2331 42.6769 21.0685 42.6829 20.9069C42.6857 20.7453 42.7033 20.5897 42.7357 20.44C42.7738 20.1827 42.8502 19.9523 42.9619 19.7487C43.0734 19.5483 43.2261 19.3718 43.414 19.2221C43.7929 18.9229 44.1981 18.9229 44.6269 19.2221C45.1173 19.5542 45.2965 20.1766 45.1673 21.0894C45.1027 21.4545 44.991 21.8494 44.8266 22.2804C44.6651 22.7082 44.4537 23.1662 44.1981 23.6599V23.6509ZM43.7401 24.3601C43.6548 24.4917 43.5697 24.6145 43.4816 24.7282C43.4405 24.785 43.3877 24.8448 43.3289 24.9107C43.2702 24.9765 43.2026 25.0483 43.1292 25.1231C42.9853 25.2727 42.8472 25.3864 42.718 25.4643C42.6535 25.5031 42.5829 25.5331 42.5124 25.554C42.439 25.575 42.3656 25.587 42.2864 25.587C42.21 25.587 42.1366 25.569 42.069 25.5331C42.0016 25.5001 41.9398 25.4463 41.884 25.3774C41.6315 25.0872 41.4876 24.6742 41.4435 24.1416C41.42 23.8723 41.4172 23.6089 41.4318 23.3517C41.4465 23.0943 41.4789 22.84 41.5287 22.5885C41.6315 22.0888 41.7696 21.6699 41.9428 21.3259C41.9634 21.6788 42.0161 22.0081 42.0984 22.3192C42.1806 22.6275 42.2951 22.9177 42.442 23.1841C42.7357 23.7198 43.1732 24.0968 43.7576 24.3152L43.7401 24.3601ZM60.4921 20.9757C60.6009 20.8231 60.6773 20.6675 60.7241 20.5089C60.7711 20.3503 60.7888 20.1857 60.7771 20.021C60.7653 19.8535 60.7271 19.7069 60.6683 19.5783C60.6066 19.4525 60.5245 19.3419 60.4157 19.2491C60.2865 19.1354 60.131 19.0576 59.9518 19.0126C59.8608 18.9887 59.7668 18.9798 59.6728 18.9798C59.5788 18.9798 59.485 18.9948 59.3909 19.0217C59.2968 19.0456 59.2 19.0815 59.1089 19.1263C59.015 19.1712 58.921 19.2282 58.83 19.291C58.6508 19.4226 58.4951 19.6172 58.366 19.8714C58.3014 19.9971 58.2456 20.1348 58.1986 20.2844C58.1545 20.4342 58.1163 20.5956 58.0899 20.7662C58.0517 21.0504 58.0724 21.5084 58.1487 22.1397C58.2279 22.7711 58.3661 23.5761 58.5657 24.5517C58.3865 24.6742 58.2103 24.8059 58.037 24.9465C57.8608 25.0872 57.6876 25.2369 57.5144 25.3925C57.3411 25.5511 57.1708 25.7246 57.0062 25.9131C56.8389 26.1016 56.6745 26.3051 56.5159 26.5235C56.3574 26.745 56.2309 26.9545 56.1371 27.155C56.043 27.3584 55.9843 27.5499 55.9579 27.7355C55.9374 27.8882 55.9315 28.0317 55.9373 28.1693C55.9462 28.307 55.9696 28.4358 56.0107 28.5583C56.049 28.6811 56.0988 28.7918 56.1575 28.8876C56.2192 28.9834 56.2927 29.0671 56.3778 29.1359C56.4629 29.2077 56.557 29.2677 56.6568 29.3214C56.7537 29.3753 56.8594 29.4202 56.971 29.4621C57.1943 29.54 57.438 29.5669 57.6935 29.54C57.8227 29.528 57.9519 29.5039 58.0781 29.4742C58.2015 29.4442 58.3278 29.4053 58.4512 29.3544C58.5774 29.3066 58.6977 29.2466 58.8152 29.1719C58.9327 29.0971 59.0472 29.0102 59.1589 28.9085C59.2704 28.8097 59.3732 28.6991 59.4703 28.5793C59.5641 28.4627 59.6522 28.334 59.7345 28.1993C60.172 27.4183 60.2338 26.1914 59.9166 24.5187C61.4201 23.615 62.3834 22.807 62.8063 22.0978C62.8651 21.9482 62.8651 21.8344 62.8063 21.7567C62.777 21.7149 62.7388 21.6849 62.6917 21.6579C62.6448 21.634 62.5919 21.616 62.5302 21.607C62.4715 21.5982 62.4157 21.5982 62.3716 21.607C62.3246 21.616 62.2865 21.637 62.2542 21.6668C62.122 21.8734 61.9694 22.0678 61.7989 22.2534C61.6257 22.4359 61.4378 22.6096 61.2322 22.7742C61.0266 22.9356 60.7975 23.1004 60.5479 23.2648C60.2984 23.4324 60.0252 23.6061 59.7286 23.7795C59.6082 23.2499 59.5113 22.7772 59.4409 22.3612C59.3732 21.9453 59.3262 21.5891 59.3058 21.2898C59.2968 21.1761 59.2968 21.0536 59.3058 20.9218C59.3087 20.856 59.3175 20.7871 59.3234 20.7184C59.3322 20.6465 59.3439 20.5717 59.3556 20.4908C59.3822 20.3352 59.4349 20.2036 59.5112 20.0989C59.5905 19.9912 59.6846 19.9404 59.7962 19.9404C59.8256 19.9404 59.849 19.9462 59.8696 19.9582C59.8872 19.9702 59.899 19.9881 59.9077 20.009C59.9254 20.0541 59.9254 20.1168 59.9077 20.1947C59.899 20.2336 59.8902 20.2724 59.8813 20.3113C59.8725 20.3533 59.8607 20.3922 59.849 20.431C59.8226 20.5089 59.7962 20.5807 59.7697 20.6405C59.7579 20.6734 59.7492 20.6974 59.7433 20.7123C59.7374 20.7303 59.7345 20.7423 59.7345 20.7453C59.7316 20.7871 59.7345 20.826 59.7403 20.8649C59.7492 20.9038 59.761 20.9427 59.7785 20.9846C59.7962 21.0236 59.8166 21.0594 59.8373 21.0894C59.8608 21.1222 59.8872 21.1492 59.9166 21.1761C59.9783 21.2299 60.0546 21.2389 60.1486 21.2031C60.1955 21.1852 60.2425 21.1552 60.2895 21.1103C60.3395 21.0655 60.3864 21.0055 60.4334 20.9307L60.4921 20.9757ZM58.6508 25.2877C58.6537 25.3057 58.6626 25.3535 58.6685 25.4283C58.6773 25.5031 58.689 25.6079 58.7007 25.7457C58.7154 25.8802 58.7242 25.991 58.7331 26.0807C58.7418 26.1675 58.7448 26.2303 58.7448 26.2692V26.7001C58.7448 26.9006 58.7272 27.0772 58.6949 27.2268C58.6773 27.3016 58.6567 27.3765 58.6333 27.4483C58.6126 27.523 58.5862 27.5979 58.5569 27.6727C58.5333 27.7385 58.5099 27.8013 58.4834 27.8582C58.4599 27.915 58.4305 27.972 58.4012 28.0228C58.1515 28.4536 57.8315 28.6721 57.4439 28.6811C57.2911 28.6871 57.1561 28.6572 57.0386 28.5944C56.9211 28.5314 56.8242 28.4358 56.7479 28.3041C56.6481 28.1245 56.6157 27.927 56.6451 27.7116C56.6745 27.496 56.7684 27.2598 56.9299 27.0084C57.109 26.718 57.344 26.4309 57.6348 26.1466C57.9225 25.8593 58.2661 25.578 58.6685 25.2967L58.6508 25.2877ZM73.6468 21.7088C73.6702 21.643 73.6732 21.5831 73.6615 21.5263C73.6468 21.4724 73.6175 21.4215 73.5704 21.3766C73.494 21.2959 73.3884 21.2361 73.2532 21.2061C73.1211 21.1731 72.9595 21.1673 72.7716 21.1852C72.4015 21.2211 72.1755 21.3347 72.0991 21.5263C71.8054 22.2893 71.5499 23.2439 71.3239 24.393C71.1007 25.542 71.0743 26.3948 71.2475 26.9455C71.2679 27.0114 71.3062 27.0681 71.3561 27.1131C71.4061 27.1579 71.4707 27.1939 71.5499 27.2179C71.7027 27.2717 71.8671 27.2717 72.0375 27.2179C72.1255 27.1909 72.1989 27.1519 72.2606 27.1012C72.3194 27.0472 72.3694 26.9814 72.4075 26.9036C72.4632 26.8108 72.5367 26.6791 72.6218 26.5087C72.7099 26.3381 72.8127 26.1256 72.9331 25.8772C73.0536 25.6259 73.1651 25.4104 73.2621 25.2249C73.3619 25.0393 73.45 24.8868 73.5264 24.764C73.591 24.6413 73.6791 24.4797 73.7907 24.2822C73.9052 24.0818 74.0403 23.8454 74.1989 23.57C74.7274 22.6395 75.1739 21.8913 75.5409 21.3259C75.9051 20.7602 76.1899 20.3742 76.3926 20.1708C76.5218 20.0331 76.5952 20.0062 76.6129 20.0839C76.6304 20.1647 76.5952 20.3503 76.5042 20.6435C76.4954 20.6675 76.4278 20.8949 76.2986 21.3259C76.1694 21.7537 76.0754 22.0798 76.0137 22.2983C75.9843 22.409 75.9462 22.5467 75.9022 22.7172C75.8581 22.8878 75.8081 23.0883 75.7465 23.3157C75.6878 23.5432 75.6379 23.7526 75.5968 23.9412C75.5585 24.1297 75.5263 24.2972 75.5057 24.4469C75.4646 24.7461 75.4206 25.0782 75.3765 25.4463C75.3559 25.6318 75.3442 25.8024 75.3442 25.961C75.3442 26.1167 75.3501 26.2633 75.3676 26.3948C75.3853 26.5236 75.4089 26.6432 75.441 26.7541C75.4704 26.8617 75.5117 26.9575 75.5585 27.0412C75.5998 27.125 75.6584 27.1879 75.7318 27.2298C75.8054 27.2746 75.8934 27.2956 75.9962 27.2956C76.0989 27.2956 76.1871 27.2776 76.2634 27.2417C76.3368 27.2059 76.3955 27.152 76.4424 27.0772C76.4571 27.0593 76.4924 26.9903 76.5542 26.8736C76.6158 26.7541 76.701 26.5865 76.8125 26.3651C77.0298 25.9371 77.2002 25.5959 77.3295 25.3416C78.1076 23.8184 78.7155 22.7681 79.1531 22.1906C79.5907 21.6131 79.858 21.5054 79.9518 21.8674C79.9782 21.9602 79.9901 22.0828 79.9872 22.2354C79.9842 22.391 79.9665 22.5735 79.9372 22.7891C79.9078 23.0044 79.8754 23.2229 79.8403 23.4443C79.805 23.6689 79.7699 23.8933 79.7316 24.1237C79.6524 24.5785 79.6024 25.0334 79.576 25.4912C79.5496 25.9461 79.6111 26.3411 79.758 26.6762C79.9019 27.0084 80.1516 27.2178 80.504 27.3046C80.6802 27.3524 80.8594 27.3554 81.0414 27.3135C81.2206 27.2687 81.4026 27.1819 81.5877 27.0503C81.7903 26.9066 82.0134 26.7091 82.2601 26.4578C82.504 26.2095 82.7711 25.9042 83.0589 25.542C83.3466 25.183 83.6139 24.8389 83.8576 24.5036C84.1045 24.1716 84.3246 23.8544 84.5214 23.5522C84.7211 23.2499 84.8914 22.9835 85.0324 22.7561C85.1734 22.5287 85.2849 22.3373 85.3643 22.1845C85.3877 22.1397 85.4053 22.0978 85.417 22.0589C85.4288 22.0201 85.4347 21.9811 85.4347 21.9482C85.4288 21.8763 85.4053 21.8225 85.3643 21.7807C85.3202 21.7417 85.2585 21.7149 85.1763 21.7029C85.0763 21.6879 84.9825 21.7029 84.8944 21.7417C84.8033 21.7835 84.7211 21.8493 84.6417 21.9482C84.6125 21.9872 84.5566 22.062 84.4773 22.1787C84.3951 22.2924 84.2894 22.442 84.1602 22.6305C84.0311 22.819 83.8989 23.0134 83.7608 23.2171C83.6228 23.4175 83.4818 23.621 83.3349 23.8334C83.1882 24.0429 83.0384 24.2554 82.8857 24.4648C82.73 24.6773 82.5744 24.8898 82.4159 25.1052C82.2543 25.3206 82.1015 25.5181 81.9577 25.6947C81.8108 25.8743 81.6758 26.0358 81.5465 26.1734C81.4173 26.3142 81.3057 26.4218 81.2176 26.4967C81.1295 26.5685 81.059 26.6104 81.012 26.6134C80.9445 26.6162 80.8888 26.5984 80.8505 26.5565C80.8094 26.5115 80.783 26.4457 80.7713 26.359C80.7594 26.2723 80.7566 26.1675 80.7653 26.0477C80.7742 25.928 80.7917 25.7934 80.8241 25.6409C80.8505 25.4853 80.8828 25.3297 80.9181 25.165C80.9533 25.0035 80.9943 24.8359 81.0356 24.6653C81.0797 24.4947 81.1207 24.3151 81.1588 24.1266C81.1999 23.9381 81.2382 23.7407 81.2763 23.5342C81.3527 23.1213 81.3968 22.7621 81.4055 22.4568C81.4232 21.8344 81.2763 21.3856 80.9679 21.1164C80.8124 20.9788 80.642 20.8918 80.457 20.853C80.2719 20.8141 80.0693 20.8231 79.849 20.8799C79.7522 20.9038 79.6524 20.9398 79.5525 20.9846C79.4555 21.0295 79.3557 21.0834 79.2559 21.1492C79.156 21.215 79.062 21.2898 78.9651 21.3737C78.8711 21.4575 78.7802 21.5532 78.6891 21.6579C78.598 21.7627 78.5129 21.8644 78.4365 21.9602C78.3573 22.0559 78.2839 22.1487 78.2162 22.2354C78.0783 22.412 77.9226 22.6485 77.7522 22.9477C77.6641 23.0972 77.5908 23.2229 77.5321 23.3307C77.4704 23.4355 77.4233 23.5222 77.3911 23.588C77.3559 23.6538 77.3118 23.7377 77.2589 23.8365C77.206 23.9381 77.1443 24.0579 77.0709 24.1925C77.2795 23.4952 77.4527 22.8519 77.5937 22.2653C77.7347 21.6788 77.8403 21.1464 77.9138 20.6675C77.9872 20.1917 77.9548 19.8237 77.811 19.5663C77.6701 19.3089 77.4233 19.1623 77.0709 19.1263C76.9975 19.1173 76.9213 19.1204 76.8419 19.1324C76.7597 19.1473 76.6774 19.1712 76.5893 19.2042C76.5042 19.2401 76.419 19.288 76.3309 19.3477C76.2428 19.4077 76.1547 19.4825 76.0666 19.5633C75.9756 19.647 75.8875 19.7339 75.7994 19.8206C75.7143 19.9074 75.6262 19.9941 75.5409 20.081C75.4557 20.1677 75.3648 20.2694 75.2737 20.3831C75.1827 20.4969 75.0887 20.6256 74.9889 20.7662C74.7921 21.0445 74.6188 21.2898 74.4749 21.4993C74.4015 21.604 74.3222 21.7268 74.24 21.8614C74.1608 21.996 74.0727 22.1457 73.9846 22.3073C73.8024 22.6305 73.6644 22.8758 73.5704 23.0434C73.5234 23.1272 73.4676 23.229 73.403 23.3457C73.3413 23.4624 73.2709 23.597 73.1916 23.7466C73.1152 23.8933 73.0536 24.013 73.0066 24.0998C72.9595 24.1895 72.9302 24.2464 72.9155 24.2703C72.8921 24.3241 72.8304 24.4469 72.7364 24.6413C72.8127 24.3211 72.9008 23.9921 73.0007 23.6599C73.0977 23.3276 73.2033 22.9865 73.3208 22.6394L73.6468 21.7088ZM95.726 23.3427C95.7465 23.3396 95.7729 23.3337 95.8082 23.3246C95.8435 23.3157 95.8846 23.3098 95.9315 23.3008C96.1077 23.2559 96.2722 23.211 96.4307 23.1691C96.5864 23.1272 96.7333 23.0853 96.8684 23.0463C97.0063 23.0044 97.1502 22.9597 97.297 22.9058C97.4439 22.8549 97.5967 22.7951 97.7552 22.7292C97.9167 22.6633 98.0666 22.5856 98.2075 22.4987C98.3514 22.415 98.4836 22.3162 98.6098 22.2115C98.7332 22.1068 98.8448 21.9931 98.9446 21.8704C99.0444 21.7507 99.1297 21.6191 99.203 21.4843C99.3147 21.2659 99.3821 21.0564 99.4028 20.859C99.4262 20.6614 99.4056 20.4759 99.341 20.2994C99.2706 20.1108 99.1737 19.9493 99.0503 19.8146C98.9269 19.68 98.7773 19.5723 98.6011 19.4944C98.4249 19.4137 98.2398 19.3628 98.0519 19.3358C97.864 19.3089 97.6701 19.3089 97.4732 19.3358C97.2736 19.3628 97.0857 19.4077 96.9095 19.4735C96.7333 19.5393 96.5629 19.62 96.4043 19.7219C96.1019 19.9104 95.8229 20.1408 95.5616 20.41C95.2973 20.6823 95.0593 20.9936 94.8392 21.3436C94.4016 22.0439 94.1255 22.7652 94.0138 23.5013C93.9962 23.6538 93.9845 23.8065 93.9758 23.9621C93.9668 24.1146 93.9668 24.2674 93.9698 24.423C93.9758 24.5756 93.9904 24.7251 94.0198 24.8688C94.0492 25.0154 94.0902 25.1591 94.143 25.2997C94.2458 25.578 94.375 25.8234 94.5278 26.0358C94.6072 26.1405 94.6981 26.2363 94.8068 26.3231C94.9125 26.4099 95.0329 26.4846 95.1651 26.5534C95.3001 26.6163 95.4411 26.6672 95.5909 26.6971C95.7407 26.7301 95.9021 26.745 96.0696 26.745C96.3691 26.745 96.6804 26.6912 96.9976 26.5865C97.1591 26.5356 97.3117 26.4727 97.4645 26.4039C97.6143 26.3351 97.7611 26.2572 97.9021 26.1765C98.0459 26.0927 98.1899 25.9969 98.3367 25.8921C98.4836 25.7845 98.6332 25.6678 98.789 25.5362C99.1002 25.2727 99.3734 25.0184 99.6142 24.7731C99.8549 24.5278 100.113 24.2464 100.389 23.9322C100.527 23.7736 100.651 23.6269 100.765 23.4893C100.877 23.3546 100.98 23.229 101.068 23.1153C101.159 23.0014 101.253 22.8819 101.353 22.7532C101.453 22.6244 101.555 22.4868 101.664 22.3432C101.711 22.2683 101.74 22.1995 101.752 22.1307C101.767 22.0649 101.761 22.002 101.74 21.9392C101.696 21.8165 101.602 21.7477 101.455 21.7298C101.382 21.7207 101.317 21.7327 101.256 21.7626C101.197 21.7926 101.147 21.8435 101.103 21.9153C100.812 22.3791 100.407 22.9058 99.8902 23.4922C99.3734 24.0788 98.789 24.6234 98.134 25.1231C97.8081 25.3744 97.5086 25.5601 97.2383 25.6887C96.9682 25.8144 96.7274 25.8772 96.516 25.8772C96.3867 25.8772 96.2692 25.8533 96.1635 25.8054C96.0549 25.7576 95.9608 25.6857 95.8787 25.587C95.7965 25.4912 95.7318 25.3864 95.6791 25.2697C95.629 25.156 95.5909 25.0304 95.5703 24.8958C95.5469 24.7581 95.5351 24.6234 95.5292 24.4888C95.5233 24.3511 95.5263 24.2165 95.5351 24.0788C95.5526 23.8065 95.5967 23.57 95.6644 23.3696L95.726 23.3427ZM95.9315 22.5466C96.1547 21.9272 96.4132 21.4306 96.7069 21.0594C97.0006 20.6854 97.3294 20.437 97.6965 20.3084C97.7963 20.2694 97.8874 20.2485 97.9725 20.2424C98.0577 20.2366 98.134 20.2485 98.2046 20.2755C98.2722 20.2994 98.3338 20.3352 98.3837 20.3772C98.4366 20.4221 98.4806 20.47 98.513 20.5298C98.5481 20.5866 98.5687 20.6495 98.5775 20.7213C98.5864 20.7902 98.5775 20.8709 98.557 20.9578C98.5364 21.0445 98.4983 21.1342 98.4483 21.2211C98.3955 21.3078 98.3278 21.3917 98.2486 21.4754C98.1576 21.5772 98.0519 21.6699 97.9314 21.7597C97.811 21.8465 97.6788 21.9272 97.532 22.002C97.3851 22.0769 97.2502 22.1397 97.1238 22.1936C96.9976 22.2444 96.8831 22.2864 96.7743 22.3163C96.6687 22.3492 96.5425 22.382 96.4014 22.421C96.2575 22.4599 96.0989 22.5019 95.9227 22.5466H95.9315ZM56.418 24.4038C55.8057 24.2683 55.0557 24.1855 54.1678 24.1554V22.7566H56.8828C56.9131 22.9639 56.9453 23.1656 56.9791 23.3611C57.0034 23.5017 57.0317 23.6567 57.0636 23.8265C57.0047 23.8742 56.9606 23.9109 56.9296 23.9373C56.8035 24.0452 56.7109 24.1262 56.6415 24.1885L56.7665 24.3331L56.7661 24.3341L56.6399 24.1882C56.6133 24.2121 56.5879 24.2369 56.5634 24.2623C56.5184 24.3049 56.4699 24.3521 56.418 24.4038ZM106.448 11.2744C106.181 9.25401 105.724 7.69971 105.075 6.6117C104.427 5.5238 103.703 4.71753 102.902 4.19299C102.101 3.66846 101.272 3.35756 100.414 3.26039C99.5556 3.16334 98.8024 3.11462 98.1542 3.11462H92.8346V22.4216C92.7691 22.6652 92.7172 22.913 92.6791 23.1649L92.6736 23.1642C92.6669 23.2083 92.6623 23.2524 92.6597 23.2961C92.651 23.3767 92.6445 23.4423 92.6401 23.4961C92.6388 23.513 92.6334 23.6082 92.6248 23.7618H92.6244L92.6242 23.7648L92.6211 23.7645C92.6187 23.8082 92.6182 23.8514 92.6196 23.8942C92.6185 23.9439 92.6175 24.001 92.617 24.0646C92.6161 24.158 92.6168 24.2456 92.6185 24.3303L92.6993 24.3291L92.701 24.334L92.6131 24.3357C92.6141 24.3894 92.618 24.4423 92.6247 24.4943C92.6288 24.5681 92.634 24.6347 92.6402 24.6926L92.6407 24.6924L92.6408 24.6935L92.6377 24.6938C92.6421 24.7348 92.6483 24.7753 92.6559 24.815C92.6668 24.8924 92.6802 24.9704 92.6962 25.0483L92.6974 25.048L92.6975 25.0491L92.6929 25.05C92.7024 25.0971 92.7143 25.1429 92.728 25.1878C92.7427 25.2496 92.759 25.3116 92.7768 25.3738C92.7975 25.4462 92.8167 25.5105 92.8346 25.5664V32.5482C92.8346 33.3643 92.8918 34.1025 93.0063 34.7631C93.1207 35.4237 93.378 36.0066 93.7785 36.5117C94.1789 37.0168 94.7604 37.4054 95.523 37.6774C96.2856 37.9494 97.2961 38.1241 98.5547 38.2019V39.7173H80.4794V38.2019C81.6998 38.1241 82.6913 37.9591 83.4539 37.7065C84.2166 37.454 84.7981 37.0847 85.1984 36.5991C85.5989 36.1134 85.8658 35.5305 85.9993 34.8506C86.1327 34.1705 86.1995 33.4032 86.1995 32.5482V23.577L86.302 23.412C86.3988 23.2555 86.4697 23.1389 86.5133 23.0642C86.5727 22.9617 86.6296 22.8588 86.6836 22.7552L86.6839 22.7553L86.6885 22.7465L86.6911 22.7479C86.7153 22.7013 86.7366 22.6539 86.7554 22.6061L86.7692 22.5737L86.7723 22.5752C86.7984 22.5132 86.8197 22.4505 86.8367 22.3873L86.8407 22.374L86.8423 22.3745L86.8431 22.3721L86.8454 22.3727C86.8675 22.2999 86.8837 22.2268 86.8944 22.1537L86.9 22.1195C86.918 22.0077 86.9268 21.9108 86.9268 21.8329C86.9268 21.753 86.9203 21.6745 86.9082 21.5982C86.8862 21.4467 86.8462 21.3029 86.788 21.1651L86.771 21.1725L86.7704 21.1713L86.7885 21.1633C86.7508 21.0745 86.7056 20.9914 86.6537 20.9145C86.5902 20.8117 86.5186 20.7201 86.4391 20.639L86.4392 20.6389C86.365 20.5633 86.2845 20.4978 86.1995 20.4422V3.11462H81.6808C80.8037 3.11462 79.8695 3.16334 78.8779 3.26039C77.8865 3.35756 76.9523 3.6587 76.0751 4.16383C75.1981 4.66896 74.4449 5.47521 73.8157 6.58263C73.1866 7.69005 72.7766 9.25401 72.586 11.2744H71.3848V1.13304H107.649V11.2744H106.448ZM141.454 39.7173V38.2019C142.598 38.1241 143.514 37.9494 144.2 37.6774C144.886 37.4054 145.411 37.0265 145.773 36.5409C146.135 36.0551 146.374 35.4723 146.488 34.7923C146.602 34.1123 146.66 33.3643 146.66 32.5482V25.2158L146.7 25.1715C146.889 24.9661 146.878 24.983 146.922 24.9325C146.94 24.9126 147.009 24.8326 147.139 24.6795L147.142 24.6823C147.178 24.6404 147.211 24.597 147.241 24.5523L147.305 24.4746L147.308 24.477L147.311 24.4737L147.313 24.4758C147.335 24.449 147.356 24.4216 147.376 24.3938L147.531 24.2028L147.503 24.1795L147.503 24.1793L147.535 24.2061C147.559 24.1759 147.582 24.145 147.604 24.1134L147.636 24.0726L147.639 24.0749C147.663 24.0447 147.685 24.0137 147.707 23.9821C147.756 23.9196 147.802 23.8612 147.843 23.807L147.847 23.8098C147.871 23.7773 147.894 23.7441 147.916 23.7103C147.999 23.6043 148.013 23.5851 148.026 23.568L148.089 23.4846L148.091 23.4856L148.102 23.4704L148.104 23.4722C148.126 23.4435 148.147 23.4144 148.166 23.3846L148.34 23.1497L148.342 23.1519L148.344 23.1503L148.345 23.1518C148.361 23.1306 148.376 23.1091 148.39 23.0873L148.398 23.0772L148.397 23.0767L148.397 23.0761L148.4 23.0779C148.466 22.988 148.521 22.8928 148.564 22.7939C148.586 22.7493 148.607 22.7029 148.626 22.6541C148.676 22.5316 148.714 22.4025 148.738 22.2619L148.744 22.263C148.76 22.1712 148.767 22.0799 148.766 21.9901C148.768 21.9121 148.765 21.8344 148.757 21.7569C148.741 21.6022 148.703 21.4465 148.642 21.29L148.639 21.2818L148.644 21.2797C148.62 21.2184 148.592 21.1598 148.562 21.1037C148.442 20.8635 148.275 20.6636 148.06 20.5031C147.81 20.3162 147.526 20.2045 147.206 20.1653C147.041 20.1454 146.869 20.1511 146.692 20.1834L146.691 20.1788L146.681 20.1807L146.681 20.1796L146.66 20.1838V5.38783L141.184 18.4274C141.049 18.5325 140.933 18.6299 140.837 18.7183L140.837 18.7177L140.826 18.7276L140.825 18.726C140.805 18.7449 140.785 18.7642 140.767 18.7839C140.672 18.8743 140.578 18.9768 140.483 19.0818C140.448 19.1206 140.415 19.1612 140.381 19.2004C140.305 19.2885 140.231 19.3754 140.162 19.4647L140.162 19.4652L140.157 19.4608C140.126 19.5012 140.097 19.5429 140.07 19.5853C139.904 19.8065 139.753 20.0323 139.615 20.2623C139.448 20.5432 139.303 20.8255 139.178 21.1082L139.173 21.1063C139.161 21.1342 139.15 21.1624 139.139 21.1908C139.026 21.4592 138.929 21.7393 138.848 22.0299L138.846 22.0294L138.846 22.0305L138.845 22.0302C138.839 22.0519 138.833 22.0736 138.828 22.0953C138.754 22.374 138.696 22.6689 138.655 22.9782L138.654 22.978L138.653 22.9823L138.65 22.9818C138.646 23.0156 138.642 23.049 138.64 23.0823C138.606 23.3645 138.591 23.6467 138.597 23.9279C138.6 24.126 138.614 24.316 138.636 24.4977L132.245 39.7173H130.872L126.122 28.7865C126.164 28.7809 126.206 28.7733 126.247 28.7639C126.595 28.6996 126.966 28.5335 127.363 28.2661C127.689 28.0462 128.085 27.7227 128.552 27.2965L128.555 27.2998L128.559 27.2964L128.56 27.2977C128.577 27.2822 128.593 27.2662 128.61 27.25C129.002 26.8911 129.403 26.5027 129.811 26.0864C130.199 25.6906 130.592 25.2659 130.989 24.8142L130.993 24.8181C131.01 24.7993 131.026 24.7802 131.041 24.7607L131.169 24.6128L133.79 30.6832L146.259 1.13304H158.271V2.64843C157.127 2.68737 156.212 2.8524 155.525 3.14379C154.839 3.43529 154.324 3.81408 153.981 4.28039C153.638 4.7467 153.409 5.31969 153.295 5.99974C153.18 6.67979 153.123 7.44712 153.123 8.30198V26.5671C153.072 26.687 153.03 26.8 152.998 26.9057C152.946 27.0729 152.908 27.2414 152.884 27.412L152.881 27.4116C152.874 27.462 152.87 27.5122 152.868 27.5619C152.861 27.6338 152.855 27.7067 152.852 27.7803C152.847 27.8935 152.847 28.0058 152.852 28.1164L152.951 28.1121L152.951 28.113L152.847 28.1176C152.85 28.1701 152.855 28.2218 152.862 28.2727C152.871 28.3593 152.883 28.4439 152.899 28.5264L152.9 28.5262L152.9 28.5273L152.896 28.5281C152.905 28.5752 152.916 28.6213 152.929 28.6663C152.947 28.7399 152.966 28.8107 152.988 28.8791L152.986 28.8797L152.996 28.9112L152.996 28.9114C153.002 28.9301 153.009 28.9487 153.016 28.967C153.042 29.0394 153.075 29.1208 153.115 29.2105L153.113 29.2117L153.115 29.2168L153.113 29.2178L153.123 29.2406V32.5482C153.123 33.3643 153.171 34.1025 153.266 34.7631C153.361 35.4237 153.581 35.9968 153.924 36.4825C154.267 36.9681 154.782 37.3567 155.468 37.6482C156.155 37.9397 157.089 38.1241 158.271 38.2019V39.7173H141.454ZM123.629 23.0483L120.322 15.4384C120.411 15.4067 120.502 15.3728 120.596 15.336V15.3304L120.598 15.3298L120.6 15.3361C120.648 15.3173 120.694 15.2962 120.739 15.2728C120.994 15.1676 121.224 15.059 121.428 14.9465L121.433 14.9474L121.468 14.9271C121.701 14.7964 121.938 14.6381 122.18 14.4515L122.181 14.4523L122.187 14.4476L122.19 14.452C122.228 14.4229 122.264 14.3921 122.298 14.3601C122.392 14.2838 122.478 14.208 122.557 14.1326C122.682 14.0132 122.791 13.8987 122.887 13.7879L122.888 13.7887C122.921 13.7512 122.951 13.7125 122.979 13.6728C123.058 13.5748 123.131 13.4776 123.198 13.3817L123.2 13.3831C123.232 13.3371 123.261 13.2895 123.287 13.2412C123.347 13.1501 123.402 13.0588 123.454 12.9674L123.455 12.9677L123.461 12.9572L123.466 12.9599C123.489 12.9184 123.51 12.8762 123.529 12.8335C123.59 12.7183 123.648 12.5972 123.702 12.4707C123.783 12.2795 123.847 12.1044 123.894 11.9469C123.942 11.7822 123.984 11.6069 124.019 11.4227C124.047 11.2784 124.07 11.1136 124.089 10.93L124.094 10.887L124.098 10.8874C124.102 10.8472 124.104 10.8072 124.105 10.7676C124.108 10.7036 124.108 10.6404 124.106 10.5782H124.105L124.105 10.5744L124.11 10.5742C124.106 10.4799 124.092 10.3881 124.072 10.2998C124.059 10.2366 124.043 10.174 124.024 10.112C123.969 9.93536 123.887 9.77167 123.781 9.62294L123.784 9.62029L123.781 9.6158L123.783 9.61455C123.739 9.55379 123.692 9.49727 123.641 9.44536C123.577 9.37679 123.507 9.31317 123.432 9.2546L123.434 9.25195C123.364 9.19739 123.29 9.15033 123.214 9.11094C123.163 9.082 123.109 9.0551 123.054 9.03041L123.055 9.02843L123.051 9.02686L123.053 9.02305C122.991 8.9956 122.927 8.97311 122.864 8.9553C122.779 8.92785 122.695 8.90822 122.613 8.89559C122.455 8.87135 122.299 8.87052 122.144 8.88913L122.144 8.88774C122.114 8.8913 122.085 8.89593 122.056 8.90133C121.964 8.91707 121.875 8.93946 121.788 8.9676C121.638 9.01595 121.495 9.08392 121.364 9.16868C121.23 9.25528 121.104 9.36751 120.989 9.50005L120.986 9.49754L120.985 9.49879L120.984 9.49799C120.935 9.5553 120.891 9.61526 120.852 9.67763C120.812 9.73988 120.772 9.8081 120.735 9.88252L120.73 9.87974C120.701 9.93671 120.677 9.9947 120.656 10.0533C120.629 10.1241 120.605 10.2011 120.584 10.2843L120.58 10.2831C120.551 10.3943 120.536 10.5058 120.533 10.616C120.528 10.6739 120.523 10.7194 120.517 10.7524C120.512 10.7816 120.496 10.8394 120.471 10.9248L120.471 10.9247C120.466 10.942 120.461 10.9594 120.457 10.9767C120.445 11.0102 120.432 11.0436 120.418 11.0771C120.399 11.1207 120.377 11.1641 120.352 11.2065C120.311 11.2746 120.279 11.3245 120.255 11.3571C120.229 11.3927 120.191 11.4396 120.141 11.4962L120.139 11.4947C120.125 11.5104 120.112 11.5264 120.099 11.5425C120.076 11.5668 120.057 11.5859 120.042 11.5988C120.013 11.625 119.981 11.6508 119.944 11.6765L119.942 11.6727C119.917 11.6902 119.893 11.7085 119.87 11.7272C119.835 11.7515 119.807 11.7698 119.786 11.7823C119.726 11.8182 119.668 11.8501 119.614 11.8774C119.58 11.8939 119.51 11.925 119.408 11.9682C119.334 11.9997 119.254 12.0307 119.171 12.0607L119.172 12.0643L119.171 12.0644L119.169 12.0585C119.134 12.0713 119.099 12.0856 119.065 12.1009C119.008 12.12 118.951 12.138 118.895 12.1549L115.6 4.57179V9.99747C115.558 9.9977 115.516 9.99931 115.475 10.0022C115.336 10.0125 115.188 10.0402 115.03 10.0843L115.057 10.1837L115.054 10.1855L115.025 10.0797C114.954 10.0995 114.887 10.1243 114.822 10.1538C114.735 10.1882 114.65 10.2275 114.569 10.2714L114.58 10.2938L114.579 10.2945L114.566 10.2691C114.545 10.2803 114.526 10.2957 114.506 10.3078C114.414 10.3611 114.318 10.4199 114.222 10.4911L114.237 10.5125L114.237 10.5127L114.22 10.4895C114.131 10.5558 114.051 10.6308 113.981 10.7126C113.89 10.8072 113.797 10.9132 113.701 11.0303L113.655 11.0867V9.52598C113.655 8.43797 113.646 7.48606 113.627 6.67002C113.608 5.85399 113.455 5.15467 113.169 4.57179C112.883 3.98902 112.416 3.53236 111.768 3.20216C111.119 2.87184 110.147 2.68737 108.851 2.64843V1.13304H121.034L129.544 20.8478L129.495 20.898L129.508 20.9101L129.507 20.9103L129.493 20.8956C129.423 20.9689 129.363 21.0476 129.312 21.1304C129.264 21.1929 129.191 21.2852 129.092 21.409C128.92 21.6226 128.771 21.8031 128.655 21.9394L128.652 21.937L128.648 21.942L128.647 21.9411C128.636 21.9541 128.625 21.9674 128.614 21.9808L128.333 22.3051L128.332 22.2919C128.331 22.2122 128.325 22.1319 128.314 22.0516C128.308 22.0081 128.302 21.9653 128.294 21.9237C128.424 21.7992 128.538 21.659 128.639 21.5046C128.778 21.2898 128.874 21.0612 128.927 20.8197L128.931 20.8207C128.948 20.7444 128.959 20.6681 128.963 20.5924C128.981 20.4271 128.98 20.2593 128.958 20.0894L128.909 20.0955L128.908 20.0919L128.963 20.0846C128.957 20.0332 128.947 19.9825 128.936 19.9329C128.911 19.8086 128.878 19.6899 128.836 19.5773C128.775 19.4146 128.691 19.2562 128.585 19.1035L128.588 19.1011C128.544 19.0376 128.496 18.9789 128.444 18.9249C128.369 18.8396 128.288 18.761 128.2 18.6887C128.082 18.5921 127.947 18.5056 127.793 18.4268L127.794 18.4244L127.789 18.4222L127.791 18.419C127.745 18.396 127.699 18.3755 127.653 18.3577C127.27 18.1915 126.878 18.1458 126.473 18.223L126.473 18.224L126.473 18.2241L126.472 18.2195C126.403 18.2326 126.336 18.2506 126.272 18.2731C125.941 18.3718 125.637 18.5526 125.36 18.8156L125.361 18.8166L125.36 18.8182L125.357 18.8148C125.324 18.8455 125.294 18.8774 125.265 18.9103C125.2 18.9772 125.14 19.047 125.085 19.1197L125.104 19.1342L125.102 19.1367L125.08 19.1192C125.047 19.1637 125.016 19.2096 124.988 19.2567C124.932 19.3437 124.882 19.4347 124.838 19.5294L124.835 19.5279C124.809 19.5843 124.787 19.6415 124.768 19.6994C124.732 19.7959 124.703 19.8916 124.681 19.9866C124.65 20.1263 124.632 20.2708 124.625 20.4198L124.621 20.4196C124.617 20.4948 124.62 20.5691 124.627 20.6417C124.631 20.7291 124.64 20.814 124.652 20.8964C124.656 20.9197 124.66 20.9427 124.664 20.9653C124.584 21.0616 124.518 21.1675 124.466 21.2792L124.411 21.3581L124.427 21.37L124.427 21.3709L124.406 21.3554C124.38 21.3933 124.356 21.4319 124.334 21.4711C124.293 21.5356 124.256 21.5951 124.226 21.6488C124.197 21.6998 124.147 21.7993 124.074 21.9504L124.069 21.9478C124.05 21.9859 124.034 22.0246 124.019 22.0637C123.977 22.1498 123.949 22.2099 123.933 22.2468C123.905 22.3129 123.863 22.4172 123.809 22.554C123.758 22.6829 123.715 22.7975 123.681 22.8944C123.664 22.9447 123.646 22.9961 123.629 23.0483ZM115.6 17.0725V20.3472C115.52 20.3758 115.441 20.4101 115.362 20.4503C115.183 20.5416 115.026 20.6557 114.894 20.7905L115.052 20.9529L115.052 20.9537L114.89 20.7883C114.826 20.8538 114.769 20.9238 114.719 20.9975C114.701 21.0229 114.683 21.0487 114.666 21.0753L114.666 21.0749C114.647 21.1011 114.634 21.1264 114.56 21.2431L114.557 21.2414L114.556 21.2431L114.555 21.2424L114.535 21.274L114.535 21.2737C114.521 21.294 114.509 21.3146 114.497 21.3354L114.349 21.5499L114.339 21.5641C114.185 21.7863 114.153 21.8384 114.089 21.9279L114.084 21.924C114.061 21.957 114.039 21.9908 114.018 22.0249L113.987 22.0688L113.929 22.1508C114.049 21.7227 114.183 21.2685 114.332 20.7882C114.506 20.2272 114.679 19.6907 114.852 19.1786C115.06 18.56 115.233 18.0644 115.37 17.6903C115.449 17.4757 115.525 17.2697 115.6 17.0725ZM115.6 26.0318V31.266C115.6 32.3152 115.629 33.2574 115.686 34.0928C115.743 34.9282 115.934 35.6375 116.258 36.2202C116.582 36.8031 117.097 37.2597 117.802 37.5899C118.508 37.9202 119.509 38.1241 120.805 38.2019V39.7173H108.851V38.2019C110.109 38.1241 111.072 37.9202 111.739 37.5899C112.407 37.2597 112.883 36.7935 113.169 36.1911C113.455 35.5889 113.608 34.8796 113.627 34.0637C113.646 33.2477 113.655 32.3152 113.655 31.266V28.0968C113.684 28.073 113.712 28.0483 113.739 28.0227C113.829 27.9488 113.911 27.8786 113.987 27.8112C114.113 27.7001 114.223 27.5992 114.32 27.5057C114.35 27.4773 114.38 27.4507 114.407 27.4205C114.492 27.3357 114.576 27.249 114.659 27.1604C114.766 27.0456 114.873 26.9248 114.98 26.7981L114.983 26.8005C115.007 26.7719 115.03 26.7426 115.051 26.7128C115.214 26.5209 115.389 26.3036 115.577 26.0615L115.6 26.0318Z" fill="#B38C0A"/>
</svg>
