<svg width="76" height="35" viewBox="0 0 76 35" fill="none" xmlns="http://www.w3.org/2000/svg">
<path d="M0.5 8.42958C0.5 4.09523 4.05075 0.581543 8.43083 0.581543H26.9278C31.3079 0.581543 34.8587 4.09523 34.8587 8.42958V26.7335C34.8587 31.0679 31.3079 34.5815 26.9278 34.5815H8.43083C4.05075 34.5815 0.5 31.0679 0.5 26.7335V8.42958Z" fill="#4D4B50"/>
<path d="M20.2635 13.9044V10.735C20.2635 10.2574 19.8721 9.86719 19.3865 9.86719H18.3389V12.0804C18.3389 12.858 18.3389 16.3508 18.3389 17.1429C18.7303 16.5226 19.2571 15.1188 19.7691 14.7897C20.0752 14.5946 20.2635 14.2626 20.2635 13.9044Z" fill="#FD6721"/>
<path d="M27.8209 16.6817C27.5855 15.345 26.888 14.2937 25.7432 13.554C24.9545 13.0444 24.0864 12.7852 23.1623 12.7852C22.8268 12.7852 22.4825 12.8201 22.1323 12.8871C22.1352 12.89 18.3712 13.7025 18.3418 17.2408C18.3418 17.2962 18.3418 17.3544 18.3418 17.4097C18.3418 17.7621 18.3683 18.0708 18.4183 18.3533C18.6567 19.6842 19.3483 20.7326 20.4754 21.4693C21.2671 21.9877 22.1411 22.2498 23.0681 22.2498C23.3624 22.2498 23.6655 22.2236 23.9686 22.1712C25.3106 21.9382 26.3701 21.2509 27.1146 20.1297C27.8033 19.093 28.0416 17.9339 27.8209 16.6817ZM23.124 20.3773H23.1093C21.5084 20.3685 20.2576 19.1134 20.2606 17.5175C20.2635 15.9158 21.5172 14.6606 23.1152 14.6606H23.1211C23.898 14.6606 24.622 14.9577 25.1576 15.4906C25.6961 16.0265 25.9904 16.7516 25.9904 17.5321C25.9845 19.1279 24.725 20.3802 23.124 20.3802V20.3773Z" fill="#FD6721"/>
<path d="M7.54071 16.5683C7.89974 14.259 9.88327 12.5815 12.2552 12.5815C12.476 12.5815 12.7026 12.5961 12.9233 12.6252C13.2088 12.6631 13.4854 12.7242 13.7503 12.8058C14.1829 12.9397 14.4801 13.3358 14.4801 13.7843V15.3889C13.9474 14.8239 13.1911 14.4745 12.3347 14.4745C11.5372 14.4745 10.7926 14.7744 10.2423 15.319C9.68903 15.8665 9.38592 16.6091 9.38592 17.4041C9.38592 19.0437 10.6837 20.3309 12.3347 20.3338C13.1264 20.3338 13.865 20.0309 14.4124 19.4834C14.9598 18.9359 15.2629 18.1991 15.2629 17.407V12.7621H16.1605C16.7314 12.7621 17.1934 13.2193 17.1934 13.7843V25.2961H16.2929C15.722 25.2961 15.2599 24.8389 15.2599 24.274V21.2045C14.4153 21.8685 13.3588 22.2354 12.2464 22.2354C11.2959 22.2354 10.3865 21.9617 9.61545 21.4404C7.93211 20.3047 7.21111 18.6185 7.53189 16.5683H7.54071Z" fill="#FD6721"/>
<path d="M44.7966 20.8299C44.5819 21.0038 44.3183 21.1342 44.006 21.2211C43.7034 21.3081 43.3813 21.3515 43.0396 21.3515C42.1807 21.3515 41.5169 21.1294 41.0484 20.6851C40.5798 20.2407 40.3456 19.5936 40.3456 18.7436V15.02H39.0571V13.5711H40.3456V11.8035H42.1758V13.5711H44.2695V15.02H42.1758V18.7001C42.1758 19.0768 42.2685 19.3666 42.454 19.5694C42.6394 19.7626 42.9079 19.8592 43.2592 19.8592C43.6692 19.8592 44.0108 19.753 44.2842 19.5405L44.7966 20.8299Z" fill="#4D4B50"/>
<path d="M49.5588 21.3515C48.7681 21.3515 48.0556 21.1825 47.4211 20.8444C46.7866 20.5064 46.2888 20.0379 45.9277 19.439C45.5763 18.8305 45.4006 18.1447 45.4006 17.3816C45.4006 16.6186 45.5763 15.9376 45.9277 15.3387C46.2888 14.7399 46.7866 14.2714 47.4211 13.9333C48.0556 13.5953 48.7681 13.4262 49.5588 13.4262C50.3592 13.4262 51.0766 13.5953 51.7111 13.9333C52.3455 14.2714 52.8385 14.7399 53.1899 15.3387C53.551 15.9376 53.7316 16.6186 53.7316 17.3816C53.7316 18.1447 53.551 18.8305 53.1899 19.439C52.8385 20.0379 52.3455 20.5064 51.7111 20.8444C51.0766 21.1825 50.3592 21.3515 49.5588 21.3515ZM49.5588 19.8012C50.2323 19.8012 50.7887 19.5791 51.2279 19.1348C51.6671 18.6904 51.8868 18.1061 51.8868 17.3816C51.8868 16.6572 51.6671 16.0728 51.2279 15.6285C50.7887 15.1842 50.2323 14.962 49.5588 14.962C48.8853 14.962 48.3289 15.1842 47.8896 15.6285C47.4601 16.0728 47.2454 16.6572 47.2454 17.3816C47.2454 18.1061 47.4601 18.6904 47.8896 19.1348C48.3289 19.5791 48.8853 19.8012 49.5588 19.8012Z" fill="#4D4B50"/>
<path d="M58.9957 21.3515C58.205 21.3515 57.4925 21.1825 56.858 20.8444C56.2236 20.5064 55.7257 20.0379 55.3646 19.439C55.0132 18.8305 54.8375 18.1447 54.8375 17.3816C54.8375 16.6186 55.0132 15.9376 55.3646 15.3387C55.7257 14.7399 56.2236 14.2714 56.858 13.9333C57.4925 13.5953 58.205 13.4262 58.9957 13.4262C59.7961 13.4262 60.5135 13.5953 61.148 13.9333C61.7825 14.2714 62.2754 14.7399 62.6268 15.3387C62.9879 15.9376 63.1685 16.6186 63.1685 17.3816C63.1685 18.1447 62.9879 18.8305 62.6268 19.439C62.2754 20.0379 61.7825 20.5064 61.148 20.8444C60.5135 21.1825 59.7961 21.3515 58.9957 21.3515ZM58.9957 19.8012C59.6692 19.8012 60.2256 19.5791 60.6648 19.1348C61.1041 18.6904 61.3237 18.1061 61.3237 17.3816C61.3237 16.6572 61.1041 16.0728 60.6648 15.6285C60.2256 15.1842 59.6692 14.962 58.9957 14.962C58.3222 14.962 57.7658 15.1842 57.3265 15.6285C56.8971 16.0728 56.6823 16.6572 56.6823 17.3816C56.6823 18.1061 56.8971 18.6904 57.3265 19.1348C57.7658 19.5791 58.3222 19.8012 58.9957 19.8012Z" fill="#4D4B50"/>
<path d="M64.9186 10.4995H66.7488V21.2501H64.9186V10.4995Z" fill="#4D4B50"/>
<path d="M71.5668 21.3515C70.9323 21.3515 70.3125 21.2694 69.7073 21.1052C69.1021 20.941 68.619 20.7334 68.2578 20.4822L68.9606 19.1058C69.312 19.3376 69.7317 19.526 70.2198 19.6709C70.7176 19.8061 71.2056 19.8737 71.6839 19.8737C72.7772 19.8737 73.3238 19.5887 73.3238 19.0189C73.3238 18.7484 73.1823 18.5601 72.8992 18.4538C72.6259 18.3476 72.1818 18.2461 71.5668 18.1495C70.9226 18.0529 70.3955 17.9419 69.9855 17.8163C69.5853 17.6907 69.2339 17.4734 68.9313 17.1643C68.6385 16.8456 68.4921 16.4061 68.4921 15.8458C68.4921 15.1117 68.7996 14.5274 69.4145 14.0927C70.0392 13.6484 70.8787 13.4262 71.9328 13.4262C72.4697 13.4262 73.0066 13.489 73.5434 13.6146C74.0803 13.7305 74.5195 13.8899 74.8611 14.0927L74.1584 15.4691C73.4946 15.0828 72.7479 14.8896 71.9182 14.8896C71.3813 14.8896 70.9714 14.9717 70.6883 15.1359C70.415 15.2904 70.2784 15.4981 70.2784 15.7589C70.2784 16.0487 70.4248 16.2564 70.7176 16.3819C71.0202 16.4978 71.4838 16.6089 72.1085 16.7152C72.7332 16.8118 73.2457 16.9228 73.6459 17.0484C74.0461 17.174 74.3877 17.3865 74.6708 17.6859C74.9636 17.9853 75.1101 18.4103 75.1101 18.9609C75.1101 19.6853 74.7928 20.2649 74.1584 20.6995C73.5239 21.1342 72.66 21.3515 71.5668 21.3515Z" fill="#4D4B50"/>
</svg>
