<svg width="22" height="20" viewBox="0 0 22 20" fill="none" xmlns="http://www.w3.org/2000/svg">
<path d="M19.4361 11.2975C19.7284 11.004 19.7275 10.5291 19.434 10.2368C19.1406 9.94449 18.6657 9.94542 18.3734 10.2389L19.4361 11.2975ZM11.0476 18.656L10.5162 19.1853C10.657 19.3266 10.8482 19.406 11.0476 19.406C11.247 19.406 11.4382 19.3266 11.579 19.1853L11.0476 18.656ZM3.72183 10.2389C3.42951 9.94542 2.95463 9.94449 2.66117 10.2368C2.36771 10.5291 2.36678 11.004 2.6591 11.2975L3.72183 10.2389ZM2.66374 11.3022C2.95863 11.5931 3.4335 11.5898 3.72437 11.2949C4.01525 11 4.01199 10.5251 3.71709 10.2343L2.66374 11.3022ZM11.0476 3.79576L10.4427 4.23925C10.5836 4.43133 10.8073 4.5451 11.0455 4.54576C11.2837 4.54642 11.508 4.4339 11.6499 4.24259L11.0476 3.79576ZM18.3755 10.2431C18.082 10.5354 18.081 11.0102 18.3732 11.3038C18.6655 11.5973 19.1403 11.5983 19.4339 11.3061L18.3755 10.2431ZM18.3734 10.2389L10.5162 18.1267L11.579 19.1853L19.4361 11.2975L18.3734 10.2389ZM11.579 18.1267L3.72183 10.2389L2.6591 11.2975L10.5162 19.1853L11.579 18.1267ZM3.71709 10.2343C2.50455 9.03825 2.0546 7.24953 2.55861 5.60648L1.12456 5.16658C0.457856 7.34003 1.05043 9.71088 2.66374 11.3022L3.71709 10.2343ZM2.55861 5.60648C3.06233 3.96436 4.43029 2.75498 6.09092 2.46802L5.83551 0.989929C3.60924 1.37462 1.79156 2.9922 1.12456 5.16658L2.55861 5.60648ZM6.09092 2.46802C7.75088 2.18119 9.4332 2.86243 10.4427 4.23925L11.6524 3.35228C10.3099 1.52131 8.06244 0.605121 5.83551 0.989929L6.09092 2.46802ZM11.6499 4.24259C12.6636 2.87603 14.3423 2.20383 15.9963 2.49335L16.2549 1.01582C14.0361 0.627415 11.7934 1.53145 10.4452 3.34893L11.6499 4.24259ZM15.9963 2.49335C17.6509 2.78299 19.0133 3.98857 19.5174 5.62469L20.9509 5.18302C20.2834 3.01656 18.4731 1.40411 16.2549 1.01582L15.9963 2.49335ZM19.5174 5.62469C20.0218 7.26174 19.5787 9.04525 18.3755 10.2431L19.4339 11.3061C21.0346 9.71243 21.6181 7.34856 20.9509 5.18302L19.5174 5.62469Z" fill="#EB3A65"/>
</svg>
